<svg width="99" height="108" viewBox="0 0 99 108" fill="none" xmlns="http://www.w3.org/2000/svg">
<g id="_Layer_" clip-path="url(#clip0_40_2500)">
<path id="Vector" d="M98.8477 22.3667C98.782 21.2126 98.3614 20.1109 97.6833 19.1435C96.7851 17.6369 95.8769 16.1303 94.9586 14.6285C94.9707 14.6453 94.9815 14.6634 94.9935 14.6802C93.656 12.7809 91.309 11.4059 88.7849 11.185C88.6468 11.1736 88.5072 11.1736 88.3691 11.1588C69.3784 9.16416 47.309 8.78685 28.1815 10.707C24.2709 11.0964 21.6254 13.851 22.0299 16.8313C25.1811 40.1971 19.0316 65.1118 8.23363 89.1242C7.42804 90.908 7.64872 92.5301 8.65084 93.6103C8.64212 93.6003 8.63206 93.5942 8.62334 93.5841C10.374 95.5137 12.1006 97.4553 13.8023 99.407C14.5059 100.215 15.6268 100.741 17.089 100.844C33.9346 101.99 50.5528 104.349 66.7604 107.855C67.0911 107.927 67.4305 107.972 67.7766 107.99C70.8856 108.154 74.5138 106.23 76.194 103.247C90.6571 77.4886 100.343 49.832 98.8464 22.3674L98.8477 22.3667Z" fill="url(#paint0_radial_40_2500)"/>
<g id="Group">
<path id="Vector_2" d="M98.8477 22.3669C98.782 21.2128 98.3614 20.1111 97.6833 19.1437C96.7851 17.6364 95.8776 16.1312 94.9586 14.6287C94.9707 14.6448 94.9815 14.6636 94.9935 14.6804C93.6553 12.7804 91.309 11.4067 88.7849 11.1852C88.6468 11.1738 88.5072 11.1744 88.3691 11.159C69.2288 9.15294 47.309 8.79107 28.1815 10.7072C24.2709 11.0972 21.6254 13.8505 22.0299 16.8314C25.1811 40.1966 19.0316 65.1127 8.23363 89.1251C7.42804 90.9089 7.64872 92.5309 8.65084 93.6112C8.64212 93.6011 8.63206 93.5944 8.62334 93.5843C10.374 95.5139 12.1006 97.4548 13.8023 99.4078C14.5059 100.215 15.6268 100.742 17.089 100.845C33.9346 101.992 50.5528 104.349 66.7604 107.855C67.0911 107.927 67.4312 107.973 67.7766 107.991C70.8856 108.156 74.5138 106.231 76.194 103.247C90.6571 77.4888 100.343 49.8329 98.8464 22.3683L98.8477 22.3669Z" fill="url(#paint1_linear_40_2500)"/>
</g>
<path id="Vector_3" d="M82.9822 10.6438C82.8501 9.54609 82.4181 8.52358 81.7789 7.64811C80.9183 6.27179 80.0543 4.89548 79.1884 3.52117C79.1998 3.53594 79.2098 3.55273 79.2206 3.56817C77.9743 1.84206 75.9231 0.678572 73.7847 0.611434C73.668 0.608749 73.5499 0.616134 73.4325 0.610763C57.3221 -0.180788 38.7675 -0.295593 22.5605 0.83903C19.2516 1.07603 16.906 3.58697 17.1287 6.45911C18.9089 28.9428 12.8083 52.6396 0.639952 74.8017C-0.265579 76.4459 -0.181063 78.0122 0.707699 79.1193C0.70032 79.1092 0.690929 79.1018 0.683551 79.0918C2.23167 81.0649 3.77376 83.0415 5.30847 85.02C5.94301 85.8377 7.00818 86.4145 8.43892 86.6011C24.9129 88.7112 41.303 91.2188 57.5898 94.1198C57.9218 94.1796 58.2626 94.2131 58.6087 94.2205C61.7224 94.287 65.27 92.2957 66.7886 89.3625C79.9383 64.0315 86.1046 36.7408 82.9829 10.6438H82.9822Z" fill="url(#paint2_radial_40_2500)"/>
<g id="Group_2">
<path id="Vector_4" d="M82.9822 10.6441C82.8501 9.54645 82.4181 8.52395 81.7789 7.64848C80.9183 6.27216 80.0543 4.89584 79.1884 3.52154C79.1998 3.53631 79.2098 3.55309 79.2206 3.56853C77.9743 1.84243 75.9224 0.678937 73.7847 0.611799C73.668 0.609114 73.5499 0.616499 73.4325 0.611128C57.1954 -0.185794 38.7675 -0.293885 22.5605 0.839395C19.2516 1.07639 16.906 3.58733 17.1287 6.45947C18.9089 28.9431 12.8083 52.64 0.639952 74.802C-0.265579 76.4462 -0.181063 78.0126 0.707699 79.1197C0.70032 79.1096 0.690929 79.1022 0.683551 79.0921C2.23167 81.0653 3.77376 83.0418 5.30847 85.0204C5.94301 85.8381 7.00818 86.4148 8.43892 86.6015C24.9129 88.7116 41.303 91.2192 57.5898 94.1202C57.9218 94.1799 58.2626 94.2135 58.6087 94.2209C61.7224 94.2874 65.27 92.2961 66.7886 89.3628C79.9383 64.0319 86.1046 36.7411 82.9829 10.6441H82.9822Z" fill="url(#paint3_linear_40_2500)"/>
</g>
<path id="Vector_5" d="M46.3591 13.9674C44.6936 13.8727 42.9549 14.0708 41.1928 14.6038C32.1496 17.3404 26.4481 27.0612 29.9488 36.1429C36.1856 52.321 61.193 43.7059 59.8273 27.6755C59.176 20.0272 53.4236 14.3675 46.3584 13.9674H46.3591Z" fill="url(#paint4_radial_40_2500)"/>
<g id="Group_3">
<path id="Vector_6" d="M54.2612 39.2425C60.4343 33.0638 60.987 23.5993 55.4958 18.1031C50.0046 12.6068 40.5487 13.1601 34.3756 19.3388C28.2025 25.5175 27.6498 34.982 33.141 40.4782C38.6323 45.9745 48.0881 45.4212 54.2612 39.2425Z" fill="url(#paint5_radial_40_2500)"/>
</g>
<path id="Vector_7" opacity="0.18" d="M33.8159 25.5197C33.5704 25.9897 33.2518 26.3932 32.805 26.3072C32.469 26.2428 32.2765 25.8796 32.2188 25.5419C32.0786 24.7275 32.4381 23.9104 32.8728 23.2082C33.7749 21.7513 35.0427 20.3971 36.5311 19.5351C36.7672 19.3988 37.0248 19.2793 37.2971 19.2759C37.5695 19.2726 37.8592 19.4095 37.9632 19.662C38.2738 20.4153 36.6398 21.5647 36.1816 22.0158C35.4545 22.7322 34.826 23.5486 34.3169 24.4334C34.1814 24.6698 34.0258 25.1189 33.8165 25.5191L33.8159 25.5197Z" fill="white"/>
<path id="Vector_8" d="M58.0728 55.0367C58.054 55.0347 58.0352 55.0327 58.0157 55.0306C46.1325 53.8067 34.2493 52.5821 22.368 51.3582C20.722 51.2065 19.0705 52.4002 18.6621 54.0202C18.2589 55.612 19.2242 57.0172 20.8447 57.1992C20.8528 57.1998 20.8608 57.2012 20.8689 57.2019C20.889 57.2059 57.0371 60.7239 57.0391 60.7246C58.7093 60.8656 60.2863 59.7141 60.5438 58.1458C60.7981 56.5956 59.6859 55.218 58.0728 55.0367Z" fill="url(#paint6_linear_40_2500)"/>
<path id="Vector_9" d="M24.1119 71.1361C22.4343 70.9152 21.4831 69.553 21.9728 67.9846C22.4698 66.3955 24.2292 65.2387 25.9243 65.4066C32.4401 66.0692 38.9532 66.7339 45.4656 67.3999C47.1613 67.5617 48.2231 68.9669 47.8247 70.5245C47.4263 72.082 45.6943 73.212 43.9745 73.0542C43.9745 73.0522 24.134 71.1394 24.1119 71.1361Z" fill="url(#paint7_linear_40_2500)"/>
<path id="Vector_10" d="M50.5884 23.66C50.1215 23.6371 49.6526 23.7889 49.2784 24.1239C46.7026 26.4307 44.0531 28.753 41.3291 31.0914C40.1909 29.6862 39.0552 28.2757 37.9203 26.8597C37.5541 26.4032 37.0376 26.1555 36.509 26.1299C36.0361 26.1071 35.5532 26.2622 35.1588 26.6039C34.3257 27.3283 34.1949 28.6221 34.8797 29.4868C36.4124 31.4257 37.9485 33.3539 39.4852 35.2747C39.8146 35.687 40.2948 35.9434 40.8234 35.9877C40.8462 35.9897 40.8683 35.9911 40.8911 35.9924C41.3955 36.0166 41.8986 35.8447 42.2937 35.5111C45.5965 32.7282 48.7921 29.9675 51.8823 27.2296C52.6905 26.5153 52.7475 25.2437 52.0231 24.3864C51.6394 23.9319 51.1156 23.6855 50.589 23.66H50.5884Z" fill="url(#paint8_linear_40_2500)"/>
</g>
<defs>
<radialGradient id="paint0_radial_40_2500" cx="0" cy="0" r="1" gradientUnits="userSpaceOnUse" gradientTransform="translate(-35.0697 26.1551) rotate(1.53139) scale(148.923 155.021)">
<stop offset="0.43" stop-color="#C9B3F8"/>
<stop offset="0.65" stop-color="#A389F0"/>
<stop offset="0.79" stop-color="#9A6CF0"/>
<stop offset="0.81" stop-color="#9668EA"/>
<stop offset="0.83" stop-color="#8A5FD9"/>
<stop offset="0.86" stop-color="#7851BE"/>
<stop offset="0.88" stop-color="#6945A9"/>
<stop offset="0.9" stop-color="#724CB6"/>
<stop offset="0.93" stop-color="#8A5FD8"/>
<stop offset="0.94" stop-color="#9A6CF0"/>
</radialGradient>
<linearGradient id="paint1_linear_40_2500" x1="64.2512" y1="-2.11338" x2="44.7359" y2="116.149" gradientUnits="userSpaceOnUse">
<stop offset="0.06" stop-color="#C9B3F8"/>
<stop offset="0.2" stop-color="#C9B3F8"/>
<stop offset="0.57" stop-color="#A389F0"/>
<stop offset="0.82" stop-color="#6945A9"/>
<stop offset="0.91" stop-color="#6945A9"/>
</linearGradient>
<radialGradient id="paint2_radial_40_2500" cx="0" cy="0" r="1" gradientUnits="userSpaceOnUse" gradientTransform="translate(-42.8544 26.8225) rotate(1.47134) scale(139.088 139.214)">
<stop offset="0.43" stop-color="#F3F8FB"/>
<stop offset="0.65" stop-color="#DFEEF0"/>
<stop offset="0.79" stop-color="#ECFCFF"/>
<stop offset="0.81" stop-color="#E6F7FA"/>
<stop offset="0.85" stop-color="#D5EAEC"/>
<stop offset="0.88" stop-color="#BED8D9"/>
<stop offset="0.94" stop-color="#BED8D9"/>
</radialGradient>
<linearGradient id="paint3_linear_40_2500" x1="52.9449" y1="-11.6811" x2="34.3355" y2="101.094" gradientUnits="userSpaceOnUse">
<stop offset="0.06" stop-color="#F3F8FB"/>
<stop offset="0.14" stop-color="#E3ECF1"/>
<stop offset="0.57" stop-color="#E3ECF1"/>
<stop offset="0.85" stop-color="#BED8D9"/>
<stop offset="0.91" stop-color="#BED8D9"/>
</linearGradient>
<radialGradient id="paint4_radial_40_2500" cx="0" cy="0" r="1" gradientUnits="userSpaceOnUse" gradientTransform="translate(41.9783 27.9595) scale(18.7485 18.7656)">
<stop stop-color="#75D982"/>
<stop offset="0.13" stop-color="#70D179"/>
<stop offset="0.47" stop-color="#67BF67"/>
<stop offset="0.74" stop-color="#51AA59"/>
<stop offset="0.84" stop-color="#48A153"/>
<stop offset="0.93" stop-color="#49A254"/>
<stop offset="0.96" stop-color="#50A958"/>
<stop offset="0.99" stop-color="#5CB460"/>
<stop offset="1" stop-color="#67BF67"/>
</radialGradient>
<radialGradient id="paint5_radial_40_2500" cx="0" cy="0" r="1" gradientUnits="userSpaceOnUse" gradientTransform="translate(40.7304 28.4243) rotate(16.3141) scale(14.3958 15.3673)">
<stop offset="0.2" stop-color="#67BF67"/>
<stop offset="1" stop-color="#67BF67"/>
</radialGradient>
<linearGradient id="paint6_linear_40_2500" x1="40.4346" y1="47.2382" x2="38.9113" y2="63.136" gradientUnits="userSpaceOnUse">
<stop offset="0.23" stop-color="#A6BBBE"/>
<stop offset="0.25" stop-color="#A8BEC1"/>
<stop offset="0.38" stop-color="#B8D1D2"/>
<stop offset="0.47" stop-color="#BED8D9"/>
<stop offset="0.55" stop-color="#BAD3D4"/>
<stop offset="0.63" stop-color="#AFC5C8"/>
<stop offset="0.68" stop-color="#A6BBBE"/>
<stop offset="0.74" stop-color="#9BAFB2"/>
<stop offset="0.85" stop-color="#809093"/>
<stop offset="0.9" stop-color="#717F82"/>
</linearGradient>
<linearGradient id="paint7_linear_40_2500" x1="35.8616" y1="61.4559" x2="34.087" y2="75.6614" gradientUnits="userSpaceOnUse">
<stop offset="0.23" stop-color="#A6BBBE"/>
<stop offset="0.25" stop-color="#A8BEC1"/>
<stop offset="0.38" stop-color="#B8D1D2"/>
<stop offset="0.47" stop-color="#BED8D9"/>
<stop offset="0.55" stop-color="#BAD3D4"/>
<stop offset="0.63" stop-color="#AFC5C8"/>
<stop offset="0.68" stop-color="#A6BBBE"/>
<stop offset="0.74" stop-color="#9BAFB2"/>
<stop offset="0.85" stop-color="#809093"/>
<stop offset="0.9" stop-color="#717F82"/>
</linearGradient>
<linearGradient id="paint8_linear_40_2500" x1="40.0741" y1="23.5794" x2="47.1645" y2="31.3723" gradientUnits="userSpaceOnUse">
<stop stop-color="#FFFDA6"/>
<stop offset="0.47" stop-color="#F5E37B"/>
<stop offset="0.67" stop-color="#F5E278"/>
<stop offset="0.79" stop-color="#F5DF6F"/>
<stop offset="0.89" stop-color="#F5DA61"/>
<stop offset="0.98" stop-color="#F5D44C"/>
<stop offset="1" stop-color="#F6D246"/>
</linearGradient>
<clipPath id="clip0_40_2500">
<rect width="99" height="108" fill="white"/>
</clipPath>
</defs>
</svg>
