<svg width="336" height="348" viewBox="0 0 336 348" fill="none" xmlns="http://www.w3.org/2000/svg">
<g clip-path="url(#clip0_42_2786)">
<path d="M61.2481 212.706C99.8546 190.434 162.452 190.434 201.067 212.706C233.794 231.579 238.766 260.395 216.006 282.304L300.961 330.679C306.138 333.667 306.138 338.508 300.961 341.496L293.329 345.903C288.152 348.891 279.897 348.662 274.894 345.39L200.688 293.562C162.05 315.621 99.7363 315.55 61.2481 293.357C22.6416 271.085 22.6416 234.985 61.2481 212.713V212.706Z" fill="#E6E6E6"/>
<path d="M44.6042 227.196V251.187C44.6042 264.211 53.2221 277.235 70.4498 287.169C104.905 307.044 160.779 307.044 195.234 287.169C212.462 277.235 221.08 264.211 221.08 251.187V227.196C221.08 214.172 212.462 201.148 195.234 191.214C160.779 171.339 104.905 171.339 70.4498 191.214C53.2221 201.148 44.6042 214.172 44.6042 227.204V227.196ZM212.541 227.196C212.541 237.619 204.878 247.773 190.965 255.799C175.576 264.676 154.931 269.564 132.842 269.564C110.753 269.564 90.1082 264.676 74.7192 255.799C60.8061 247.773 53.1431 237.619 53.1431 227.196C53.1431 216.774 60.8061 206.619 74.7192 198.594C90.1082 189.717 110.753 184.829 132.842 184.829C154.931 184.829 175.576 189.717 190.965 198.594C204.878 206.619 212.541 216.774 212.541 227.196Z" fill="#49A16D"/>
<path opacity="0.6" d="M220.985 253.426C219.612 261.672 215.974 267.885 201.327 279.316C180.603 295.478 128.155 302.077 97.7002 292.033C68.9899 282.564 59.8354 264.061 59.8354 251.36L59.9065 243.894C55.4713 238.62 53.1353 232.944 53.1353 227.196C53.1353 221.449 55.5897 215.489 60.2379 210.096L60.3405 199.587H58.6911C49.2999 207.96 44.5964 217.578 44.5964 227.196V251.187C44.5964 264.211 53.2143 277.235 70.442 287.169C104.897 307.044 160.771 307.044 195.227 287.169C211.468 277.803 220.054 265.693 220.985 253.426Z" fill="#49A16D"/>
<path d="M195.235 191.214C160.779 171.339 104.905 171.339 70.45 191.214C35.9945 211.09 35.9945 243.311 70.45 263.186C104.905 283.061 160.779 283.061 195.235 263.186C229.69 243.311 229.69 211.09 195.235 191.214ZM190.965 255.807C175.576 264.684 154.931 269.572 132.842 269.572C110.753 269.572 90.1084 264.684 74.7194 255.807C60.8063 247.781 53.1433 237.627 53.1433 227.204C53.1433 216.782 60.8063 206.627 74.7194 198.602C90.1084 189.724 110.753 184.836 132.842 184.836C154.931 184.836 175.576 189.724 190.965 198.602C204.878 206.627 212.541 216.782 212.541 227.204C212.541 237.627 204.878 247.781 190.965 255.807Z" fill="#49A16D"/>
<path opacity="0.5" d="M195.235 191.214C160.779 171.339 104.905 171.339 70.45 191.214C35.9945 211.09 35.9945 243.311 70.45 263.186C104.905 283.061 160.779 283.061 195.235 263.186C229.69 243.311 229.69 211.09 195.235 191.214ZM190.965 255.807C175.576 264.684 154.931 269.572 132.842 269.572C110.753 269.572 90.1084 264.684 74.7194 255.807C60.8063 247.781 53.1433 237.627 53.1433 227.204C53.1433 216.782 60.8063 206.627 74.7194 198.602C90.1084 189.724 110.753 184.836 132.842 184.836C154.931 184.836 175.576 189.724 190.965 198.602C204.878 206.627 212.541 216.782 212.541 227.204C212.541 237.627 204.878 247.781 190.965 255.807Z" fill="white"/>
<path d="M212.557 227.196C212.557 231.288 211.381 235.309 209.108 239.195C205.612 233.141 199.449 227.464 190.965 222.592C175.592 213.707 154.939 208.819 132.834 208.819C110.729 208.819 90.1003 213.715 74.7271 222.592C66.2435 227.464 60.0879 233.149 56.5682 239.195C54.319 235.309 53.1353 231.288 53.1353 227.196C53.1353 216.782 60.7982 206.62 74.7271 198.586C90.1003 189.717 110.753 184.829 132.834 184.829C154.915 184.829 175.584 189.724 190.965 198.586C204.894 206.62 212.557 216.774 212.557 227.196Z" fill="#49A16D"/>
<path opacity="0.3" d="M212.557 227.196C212.557 231.288 211.381 235.309 209.108 239.195C205.612 233.141 199.449 227.464 190.965 222.592C175.592 213.707 154.939 208.819 132.834 208.819C110.729 208.819 90.1003 213.715 74.7271 222.592C66.2435 227.464 60.0879 233.149 56.5682 239.195C54.319 235.309 53.1353 231.288 53.1353 227.196C53.1353 216.782 60.7982 206.62 74.7271 198.586C90.1003 189.717 110.753 184.829 132.834 184.829C154.915 184.829 175.584 189.724 190.965 198.586C204.894 206.62 212.557 216.774 212.557 227.196Z" fill="white"/>
<path opacity="0.6" d="M74.7271 198.586C60.7982 206.619 53.1353 216.774 53.1353 227.196C53.1353 231.288 54.3111 235.309 56.5682 239.195C60.0879 233.141 66.2435 227.464 74.7271 222.592C78.1837 220.597 81.9244 218.808 85.8703 217.223C82.5084 218.524 72.186 221.843 75.9504 212.012C80.425 200.328 102.254 187.69 118.305 185.585V185.562C101.804 187.225 86.6753 191.695 74.7271 198.586Z" fill="#49A16D"/>
<path opacity="0.4" d="M190.973 209.458C175.584 200.58 154.939 195.692 132.85 195.692C110.761 195.692 90.1161 200.58 74.7272 209.458C63.2446 216.08 56.0395 224.153 53.8613 232.628C56.0395 241.103 63.2446 249.176 74.7272 255.799C90.1161 264.676 110.761 269.564 132.85 269.564C154.939 269.564 175.584 264.676 190.973 255.799C202.455 249.176 209.661 241.103 211.839 232.628C209.661 224.153 202.455 216.08 190.973 209.458Z" fill="white"/>
<path d="M68.8242 238.131C73.7566 241.994 79.3518 244.422 85.0576 246.378C90.7791 248.309 96.6585 249.681 102.585 250.698C114.454 252.693 126.529 253.252 138.54 252.748C144.546 252.488 150.559 251.928 156.533 251.116C162.492 250.264 168.418 249.2 174.203 247.639C179.98 246.094 185.654 244.131 190.878 241.316C192.188 240.615 193.451 239.842 194.666 239.006C195.897 238.178 197.05 237.248 198.131 236.247C199.212 235.238 200.206 234.118 201.043 232.88C201.903 231.651 202.558 230.263 203.008 228.765C203.055 230.334 202.732 231.934 202.203 233.464C201.651 234.985 200.861 236.428 199.954 237.784C199.054 239.148 197.997 240.402 196.852 241.568C195.724 242.751 194.493 243.815 193.23 244.84C188.124 248.885 182.292 251.802 176.318 254.12C170.328 256.414 164.133 258.061 157.883 259.252C151.633 260.442 145.311 261.176 138.95 261.491C126.237 262.082 113.381 260.876 101.07 257.462C94.9302 255.72 88.9167 253.442 83.3056 250.359C80.5119 248.806 77.8129 247.071 75.3349 245.053C74.7115 244.556 74.1196 244.012 73.5198 243.492C72.9437 242.94 72.3518 242.412 71.8073 241.829C70.7182 240.67 69.7081 239.448 68.8321 238.147L68.8242 238.131Z" fill="white"/>
<path d="M192.607 278.457C192.591 274.515 195.337 269.714 198.746 267.735C200.443 266.749 201.974 266.647 203.095 267.278H203.111L222.769 278.512C222.769 278.512 222.785 278.512 222.793 278.52C223.905 279.166 224.6 280.538 224.608 282.501C224.624 286.443 221.877 291.244 218.468 293.223C216.763 294.217 215.217 294.311 214.096 293.673L194.438 282.446C193.309 281.807 192.599 280.428 192.591 278.449L192.607 278.457Z" fill="#37474F"/>
<path d="M194.453 282.454C193.325 281.815 192.615 280.436 192.607 278.457C192.607 276.975 192.985 275.366 193.656 273.837L221.917 290.015C220.938 291.355 219.754 292.49 218.476 293.231C216.771 294.224 215.224 294.319 214.104 293.681L194.445 282.454H194.453Z" fill="#263238"/>
<path d="M289.731 310.465C289.723 310.465 289.715 310.457 289.707 310.449L227.157 278.607L227.07 278.559C225.618 277.787 223.653 277.921 221.475 279.19C217.039 281.768 213.464 288.02 213.488 293.144C213.496 295.714 214.411 297.512 215.879 298.348L274.697 336.174C276.993 337.617 279.708 338.453 282.628 338.453C290.867 338.453 297.543 331.783 297.543 323.552C297.543 317.899 294.395 312.988 289.754 310.465H289.731Z" fill="#455A64"/>
<path d="M215.856 298.347L274.673 336.174C276.97 337.617 279.684 338.453 282.604 338.453C290.52 338.453 296.975 332.295 297.465 324.514C296.336 329.402 288.239 333.572 278.201 327.959C268.107 322.322 230.984 298.884 214.08 289.163C213.678 290.511 213.457 291.859 213.465 293.144C213.472 295.714 214.388 297.512 215.856 298.347Z" fill="#37474F"/>
<path d="M215.856 298.348C214.388 297.512 213.48 295.714 213.464 293.144C213.441 288.02 217.024 281.768 221.451 279.19C223.621 277.921 225.594 277.787 227.046 278.567L232.586 281.374C231.095 280.57 229.074 280.712 226.849 282.012C222.303 284.661 218.634 291.071 218.657 296.321C218.665 298.955 219.565 300.839 221.064 301.698" fill="#49A16D"/>
<path opacity="0.2" d="M221.072 301.698C219.573 300.847 218.673 298.962 218.665 296.321C218.665 294.997 218.886 293.601 219.304 292.214C217.418 291.094 215.658 290.069 214.088 289.163C213.891 289.833 213.733 290.511 213.63 291.181C213.575 291.512 213.536 291.843 213.512 292.174C213.488 292.506 213.472 292.829 213.472 293.144C213.48 295.714 214.396 297.512 215.864 298.347L221.08 301.698H221.072Z" fill="black"/>
<path d="M66.2041 334.866L18.8613 311.206L0 319.547L66.2041 334.866Z" fill="#49A16D"/>
<path d="M66.2041 334.866L24.4961 307.012L31.9696 296.29L66.2041 334.866Z" fill="#49A16D"/>
<path d="M24.4961 307.012L25.2853 314.415L66.2041 334.866L24.4961 307.012Z" fill="#33704C"/>
<path d="M17.7484 305.593C17.8589 305.593 17.9694 305.553 18.0562 305.467C18.2535 305.278 18.2693 304.954 18.1036 304.734C17.7958 304.339 17.4959 303.953 17.1881 303.551C17.0224 303.33 16.7225 303.307 16.5252 303.488C16.3279 303.669 16.3043 304 16.47 304.221C16.7699 304.623 17.0776 305.017 17.3854 305.412C17.4801 305.53 17.6064 305.593 17.7406 305.593H17.7484Z" fill="#455A64"/>
<path d="M13.5896 300.216C13.0293 299.396 12.4847 298.568 11.956 297.733C11.8061 297.496 11.8613 297.173 12.0665 297.008C12.2796 296.842 12.5716 296.897 12.7215 297.134C13.2424 297.961 13.779 298.781 14.3393 299.593C14.4971 299.822 14.4577 300.145 14.2446 300.319C14.1578 300.39 14.0631 300.421 13.9605 300.421C13.8185 300.421 13.6764 300.35 13.5896 300.216ZM9.41485 293.444C8.92556 292.569 8.45995 291.678 8.01011 290.787C7.88385 290.535 7.96276 290.22 8.19163 290.078C8.4126 289.936 8.70459 290.03 8.83086 290.275C9.2728 291.158 9.73841 292.025 10.2198 292.892C10.354 293.137 10.2829 293.46 10.062 293.61C9.98306 293.665 9.89625 293.688 9.81733 293.688C9.65949 293.688 9.50955 293.602 9.41485 293.444ZM5.89512 286.222C5.50053 285.292 5.12173 284.338 4.77449 283.4C4.6719 283.132 4.79027 282.832 5.02703 282.722C5.26378 282.612 5.53999 282.738 5.64258 283.006C5.98982 283.928 6.36073 284.866 6.74743 285.781C6.85792 286.041 6.75532 286.349 6.51857 286.475C6.45544 286.506 6.38441 286.522 6.32128 286.522C6.14766 286.522 5.97404 286.412 5.89512 286.222ZM3.16457 278.591C2.87257 277.605 2.61214 276.612 2.37539 275.634C2.30436 275.359 2.45431 275.075 2.70685 274.996C2.95938 274.917 3.21192 275.083 3.28294 275.359C3.5197 276.32 3.78013 277.298 4.06423 278.268C4.14315 278.544 4.00899 278.835 3.76434 278.922C3.71699 278.938 3.66964 278.946 3.62229 278.946C3.425 278.946 3.24349 278.804 3.17246 278.583L3.16457 278.591ZM1.34946 270.628C1.18373 269.627 1.04168 268.602 0.923305 267.585C0.891738 267.301 1.07325 267.041 1.32579 267.002C1.57832 266.97 1.81508 267.167 1.84664 267.451C1.96502 268.452 2.09918 269.461 2.26491 270.447C2.31226 270.731 2.13864 270.999 1.8861 271.054C1.85453 271.054 1.83086 271.062 1.79929 271.062C1.57832 271.062 1.38103 270.888 1.34157 270.636L1.34946 270.628ZM0.536608 262.461C0.505041 261.656 0.49715 260.852 0.489258 260.04V259.378C0.489258 259.094 0.702336 258.866 0.962764 258.866C1.22319 258.866 1.42838 259.102 1.42838 259.394V260.04C1.42838 260.837 1.43627 261.633 1.46784 262.421C1.47573 262.705 1.27843 262.949 1.01801 262.965H1.00222C0.749686 262.965 0.5445 262.744 0.536608 262.468V262.461ZM1.16795 254.813C0.907522 254.79 0.718119 254.529 0.741794 254.246C0.828604 253.229 0.939089 252.204 1.07325 251.187C1.11271 250.903 1.34946 250.706 1.602 250.745C1.85453 250.785 2.03604 251.053 1.99659 251.336C1.87032 252.338 1.75983 253.347 1.67302 254.348C1.64935 254.616 1.44416 254.821 1.20741 254.821C1.19163 254.821 1.17584 254.821 1.16006 254.821L1.16795 254.813ZM2.2728 246.756C2.02026 246.693 1.86243 246.417 1.91767 246.133C2.12285 245.132 2.35961 244.131 2.62004 243.145C2.69106 242.869 2.95149 242.712 3.20403 242.79C3.45656 242.869 3.59862 243.161 3.5197 243.437C3.26716 244.399 3.03041 245.384 2.83311 246.362C2.78576 246.598 2.58847 246.764 2.37539 246.764C2.34382 246.764 2.30437 246.764 2.2728 246.748V246.756ZM4.40358 238.967C4.15893 238.856 4.04845 238.557 4.14315 238.289C4.49039 237.343 4.8613 236.389 5.25589 235.458C5.36637 235.198 5.65048 235.088 5.87934 235.206C6.11609 235.332 6.21079 235.64 6.10031 235.9C5.71361 236.814 5.3427 237.745 5.01124 238.675C4.94022 238.88 4.75871 238.998 4.57719 238.998C4.52195 238.998 4.45882 238.983 4.40358 238.959V238.967ZM7.60763 231.635C7.38667 231.485 7.31564 231.17 7.4498 230.925C7.92331 230.042 8.42838 229.167 8.94924 228.324C9.09918 228.087 9.39117 228.024 9.60425 228.19C9.81733 228.355 9.87257 228.678 9.73052 228.915C9.21756 229.743 8.72827 230.602 8.25476 231.461C8.16795 231.627 8.01011 231.714 7.85228 231.714C7.77336 231.714 7.68655 231.69 7.60763 231.643V231.635ZM11.8061 224.949C11.6088 224.768 11.5772 224.437 11.7429 224.216C12.3348 223.428 12.9583 222.647 13.5896 221.898C13.7711 221.685 14.0631 221.678 14.2525 221.875C14.4419 222.072 14.4498 222.403 14.2762 222.608C13.6606 223.341 13.053 224.098 12.469 224.878C12.3743 225.005 12.2401 225.068 12.1059 225.068C12.0034 225.068 11.8929 225.028 11.8061 224.949ZM16.8726 219.044C16.699 218.831 16.7147 218.5 16.912 218.311C17.6065 217.625 18.3247 216.963 19.0428 216.324C19.248 216.143 19.54 216.183 19.7057 216.411C19.8636 216.64 19.832 216.963 19.6268 217.144C18.9165 217.767 18.2142 218.422 17.5355 219.092C17.4487 219.178 17.3382 219.226 17.2277 219.226C17.1014 219.226 16.9673 219.17 16.8805 219.052L16.8726 219.044ZM22.6888 214.054C22.5468 213.809 22.6099 213.494 22.8309 213.336C23.6279 212.769 24.4329 212.241 25.23 211.76C25.4509 211.626 25.7429 211.712 25.8692 211.965C25.9955 212.217 25.9086 212.532 25.6798 212.674C24.8985 213.147 24.1093 213.668 23.3359 214.212C23.257 214.267 23.1702 214.29 23.0834 214.29C22.9335 214.29 22.7756 214.204 22.6888 214.054Z" fill="#455A64"/>
<path d="M29.6652 210.648C29.7126 210.648 29.7599 210.64 29.8073 210.624C30.3045 210.443 30.7385 210.325 31.0937 210.27C31.3462 210.23 31.5277 209.962 31.4882 209.678C31.4488 209.394 31.2041 209.189 30.9595 209.237C30.557 209.3 30.0677 209.434 29.5232 209.631C29.2785 209.718 29.1444 210.009 29.2233 210.285C29.2864 210.506 29.4679 210.648 29.6731 210.648H29.6652Z" fill="#455A64"/>
<path d="M251.258 29.2804L202.724 14.4194L240.115 40.0813L251.258 29.2804Z" fill="#49A16D"/>
<path d="M202.724 14.4195L254.967 22.8157L266.111 12.0149L202.724 14.4195Z" fill="#49A16D"/>
<path d="M254.967 22.8157L255.015 35.7136L251.258 29.2804L202.724 14.4194L254.967 22.8157Z" fill="#387C54"/>
<path d="M255.015 35.7137L247.549 32.8755L251.258 29.2805L255.015 35.7137Z" fill="#49A16D"/>
<path opacity="0.2" d="M251.258 29.2805L247.549 32.8755L248.741 33.3328L251.258 29.2805Z" fill="black"/>
<path d="M264.808 27.0099C264.722 27.073 264.658 27.1755 264.643 27.2937C264.603 27.5618 264.785 27.8377 265.053 27.9087C265.534 28.0348 266.016 28.161 266.497 28.295C266.765 28.3659 267.018 28.2083 267.057 27.9481C267.105 27.68 266.923 27.4041 266.655 27.3332C266.174 27.1991 265.684 27.073 265.203 26.939C265.061 26.8995 264.919 26.939 264.816 27.0099H264.808Z" fill="#455A64"/>
<path d="M271.374 28.7679C272.321 29.0833 273.252 29.4144 274.184 29.7534C274.444 29.848 274.602 30.1397 274.531 30.3999C274.468 30.6601 274.192 30.7862 273.931 30.6916C273.016 30.3526 272.092 30.0215 271.153 29.714C270.893 29.6273 270.727 29.3435 270.782 29.0833C270.806 28.9729 270.861 28.8862 270.94 28.831C271.051 28.7443 271.208 28.7127 271.366 28.7679H271.374ZM278.8 31.6298C279.724 32.0318 280.631 32.4576 281.531 32.8912C281.783 33.0173 281.91 33.3169 281.815 33.5613C281.72 33.8136 281.436 33.9082 281.184 33.7899C280.3 33.3563 279.4 32.9385 278.493 32.5443C278.24 32.4339 278.098 32.1343 278.185 31.882C278.216 31.7953 278.264 31.7244 278.335 31.6692C278.461 31.5746 278.635 31.5509 278.8 31.6219V31.6298ZM285.982 35.2484C286.866 35.753 287.742 36.2812 288.586 36.8094C288.823 36.9592 288.918 37.2746 288.799 37.5032C288.673 37.7397 288.381 37.8028 288.144 37.653C287.308 37.1248 286.448 36.6123 285.579 36.1157C285.335 35.9738 285.224 35.6663 285.343 35.4298C285.374 35.3667 285.414 35.3115 285.469 35.2721C285.611 35.1617 285.808 35.1538 285.99 35.2563L285.982 35.2484ZM292.785 39.6713C293.613 40.2783 294.426 40.909 295.207 41.5397C295.428 41.7211 295.484 42.0364 295.334 42.2493C295.184 42.4621 294.876 42.4858 294.655 42.3045C293.889 41.6816 293.084 41.0667 292.272 40.4675C292.043 40.302 291.972 39.9866 292.114 39.7659C292.137 39.7265 292.177 39.687 292.216 39.6555C292.374 39.5372 292.603 39.5372 292.793 39.6713H292.785ZM299.059 44.9061C299.8 45.6078 300.534 46.3331 301.245 47.0742C301.442 47.2792 301.458 47.5945 301.276 47.7837C301.103 47.965 300.787 47.9493 300.59 47.7443C299.895 47.019 299.169 46.3016 298.443 45.6157C298.238 45.4186 298.206 45.1032 298.38 44.9061C298.396 44.8825 298.419 44.8667 298.443 44.8509C298.617 44.7169 298.885 44.7406 299.066 44.914L299.059 44.9061ZM304.654 50.9136C305.167 51.5364 305.664 52.1671 306.153 52.8136L306.556 53.3418C306.729 53.5705 306.698 53.8779 306.493 54.0356C306.287 54.1854 305.98 54.1302 305.806 53.8937L305.411 53.3734C304.93 52.7426 304.433 52.1198 303.936 51.5049C303.754 51.2841 303.77 50.9688 303.967 50.8032C303.967 50.8032 303.975 50.8032 303.983 50.7953C304.18 50.6456 304.48 50.6929 304.662 50.9057L304.654 50.9136ZM308.789 57.3783C309.01 57.2443 309.318 57.331 309.468 57.5754C310.012 58.4348 310.549 59.3256 311.062 60.2086C311.204 60.453 311.133 60.7605 310.904 60.8788C310.675 61.0049 310.375 60.9024 310.233 60.6501C309.728 59.775 309.199 58.8999 308.663 58.0563C308.521 57.8277 308.56 57.5439 308.75 57.402C308.765 57.3941 308.773 57.3862 308.789 57.3783ZM312.798 64.4501C313.035 64.3476 313.335 64.4738 313.453 64.7339C313.895 65.6564 314.313 66.5945 314.708 67.5327C314.818 67.7929 314.708 68.0767 314.463 68.1634C314.219 68.2501 313.927 68.1082 313.816 67.8402C313.437 66.9178 313.019 65.9954 312.585 65.0966C312.482 64.8759 312.53 64.6315 312.703 64.4974C312.727 64.4738 312.759 64.458 312.798 64.4422V64.4501ZM315.829 71.9398C316.089 71.8767 316.357 72.0501 316.444 72.3182C316.744 73.28 317.028 74.2655 317.273 75.2431C317.344 75.519 317.178 75.7713 316.926 75.8186C316.665 75.8659 316.397 75.6767 316.326 75.4008C316.081 74.4389 315.805 73.4771 315.513 72.5311C315.45 72.3261 315.513 72.1211 315.663 72.0107C315.71 71.9792 315.765 71.9476 315.821 71.9319L315.829 71.9398ZM317.73 79.7132C317.999 79.6975 318.243 79.9024 318.291 80.1862C318.449 81.1717 318.575 82.173 318.678 83.1663C318.709 83.4423 318.512 83.6709 318.243 83.6709C317.975 83.6709 317.738 83.4502 317.707 83.1742C317.612 82.2045 317.486 81.2269 317.336 80.2572C317.304 80.0759 317.375 79.9103 317.502 79.8157C317.565 79.7684 317.644 79.7369 317.738 79.729L317.73 79.7132Z" fill="#455A64"/>
<path d="M326.38 205.626C324.265 204.365 321.282 204.538 317.967 206.446L257.856 241.119C251.44 244.816 246.239 253.615 246.239 260.765C246.239 264.258 247.478 266.71 249.498 267.869C250.595 268.499 254.849 270.951 255.954 271.582C258.061 272.78 261.005 272.591 264.272 270.707L324.383 236.034C330.799 232.336 336 223.538 336 216.387C336 212.911 334.769 210.467 332.764 209.3C331.66 208.653 327.437 206.257 326.38 205.626Z" fill="#E0E0E0"/>
<path d="M258.937 271.945C255.307 271.945 253.05 269.075 253.05 264.463C253.05 257.454 258.171 248.79 264.469 245.163L324.581 210.49C326.372 209.458 328.156 208.906 329.718 208.906C333.348 208.906 335.605 211.775 335.605 216.388C335.605 223.396 330.484 232.061 324.186 235.687L264.074 270.36C262.283 271.393 260.507 271.945 258.937 271.945Z" fill="#FAFAFA"/>
<path d="M329.718 209.3C333.104 209.3 335.211 212.012 335.211 216.387C335.211 223.27 330.176 231.777 323.989 235.348L263.877 270.021C262.141 271.022 260.436 271.551 258.937 271.551C257.319 271.551 255.962 270.936 255.007 269.777C253.981 268.531 253.444 266.694 253.444 264.463C253.444 257.58 258.479 249.074 264.666 245.502L324.778 210.829C326.514 209.828 328.219 209.3 329.718 209.3ZM329.718 208.511C328.124 208.511 326.309 209.04 324.383 210.143L264.272 244.816C257.856 248.514 252.655 257.312 252.655 264.463C252.655 269.469 255.204 272.339 258.937 272.339C260.531 272.339 262.346 271.811 264.272 270.707L324.383 236.034C330.799 232.336 336 223.538 336 216.387C336 211.381 333.451 208.511 329.718 208.511Z" fill="#EBEBEB"/>
<path d="M315.947 228.213C316.192 227.756 316.152 227.291 315.923 227.157C315.852 227.117 314.14 226.132 313.911 225.998C313.84 225.95 313.745 225.943 313.627 225.99L311.78 226.699L311.173 225.406C311.141 225.336 311.094 225.28 311.038 225.249C310.786 225.107 309.081 224.113 309.026 224.09C308.774 223.948 308.347 224.263 308.19 224.807L306.935 228.915C306.856 229.175 306.706 229.411 306.524 229.545L303.723 231.706C303.281 232.053 303.099 232.88 303.423 233.117L305.451 234.583C305.577 234.678 305.641 234.883 305.609 235.135L305.128 239.132C305.096 239.424 305.175 239.621 305.309 239.7C305.467 239.794 307.187 240.788 307.321 240.867C307.479 240.961 307.716 240.882 307.929 240.606L310.439 237.406C310.597 237.201 310.786 237.098 310.944 237.114L313.453 237.421C313.856 237.469 314.321 236.751 314.243 236.207L313.761 232.762C313.73 232.541 313.793 232.273 313.919 232.029L315.947 228.221V228.213Z" fill="#49A16D"/>
<path opacity="0.15" d="M315.923 227.157C315.852 227.117 315.758 227.109 315.647 227.157L312.838 228.229C312.664 228.3 312.514 228.237 312.427 228.071L311.78 226.699L313.627 225.998C313.737 225.95 313.832 225.958 313.903 225.998C314.124 226.132 315.845 227.117 315.916 227.157H315.923Z" fill="white"/>
<path opacity="0.15" d="M308.947 230.074C308.868 230.334 308.71 230.57 308.537 230.704L305.735 232.865C305.609 232.959 305.506 233.093 305.435 233.243L303.423 232.076C303.494 231.934 303.604 231.8 303.723 231.698L306.524 229.538C306.706 229.404 306.856 229.167 306.935 228.907L308.947 230.066V230.074Z" fill="white"/>
<path opacity="0.1" d="M311.062 225.257C310.81 225.091 310.376 225.414 310.21 225.966L308.955 230.074L306.943 228.907L308.197 224.799C308.363 224.263 308.781 223.94 309.034 224.082C309.089 224.114 310.786 225.099 311.046 225.241C311.046 225.241 311.054 225.241 311.062 225.249V225.257Z" fill="black"/>
<path opacity="0.25" d="M307.463 235.742L305.467 234.599C305.467 234.599 305.459 234.583 305.443 234.575L303.415 233.109C303.178 232.943 303.21 232.462 303.415 232.076L305.427 233.243C305.222 233.621 305.191 234.102 305.427 234.276L307.456 235.742H307.463Z" fill="black"/>
<path opacity="0.15" d="M307.14 240.291C307.108 240.591 307.187 240.788 307.337 240.859C307.337 240.859 307.329 240.859 307.321 240.859C307.187 240.78 305.467 239.787 305.309 239.692C305.175 239.613 305.096 239.416 305.128 239.124L305.609 235.127C305.633 234.891 305.585 234.694 305.467 234.599L307.463 235.742C307.463 235.742 307.471 235.75 307.479 235.75C307.59 235.861 307.645 236.058 307.621 236.286L307.14 240.283V240.291Z" fill="black"/>
<path d="M311.181 225.406L312.435 228.071C312.514 228.237 312.664 228.3 312.846 228.229L315.647 227.157C316.089 226.983 316.271 227.614 315.947 228.213L313.919 232.021C313.793 232.258 313.73 232.533 313.761 232.754L314.243 236.199C314.322 236.743 313.856 237.469 313.453 237.414L310.944 237.106C310.786 237.09 310.597 237.193 310.439 237.398L307.929 240.599C307.535 241.111 307.061 240.922 307.14 240.291L307.621 236.294C307.653 236.042 307.59 235.837 307.464 235.742L305.435 234.276C305.112 234.039 305.293 233.211 305.735 232.865L308.537 230.704C308.71 230.57 308.868 230.334 308.947 230.074L310.202 225.966C310.399 225.312 310.975 224.981 311.173 225.406H311.181Z" fill="#49A16D"/>
<path opacity="0.5" d="M311.181 225.406L312.435 228.071C312.514 228.237 312.664 228.3 312.846 228.229L315.647 227.157C316.089 226.983 316.271 227.614 315.947 228.213L313.919 232.021C313.793 232.258 313.73 232.533 313.761 232.754L314.243 236.199C314.322 236.743 313.856 237.469 313.453 237.414L310.944 237.106C310.786 237.09 310.597 237.193 310.439 237.398L307.929 240.599C307.535 241.111 307.061 240.922 307.14 240.291L307.621 236.294C307.653 236.042 307.59 235.837 307.464 235.742L305.435 234.276C305.112 234.039 305.293 233.211 305.735 232.865L308.537 230.704C308.71 230.57 308.868 230.334 308.947 230.074L310.202 225.966C310.399 225.312 310.975 224.981 311.173 225.406H311.181Z" fill="white"/>
<path d="M330.034 220.101C330.279 219.643 330.239 219.178 330.01 219.044C329.939 219.005 328.227 218.019 327.998 217.885C327.927 217.838 327.832 217.83 327.714 217.877L325.867 218.587L325.26 217.294C325.228 217.223 325.181 217.168 325.125 217.136C324.873 216.994 323.168 216.001 323.113 215.977C322.86 215.835 322.434 216.151 322.276 216.695L321.022 220.802C320.943 221.062 320.793 221.299 320.611 221.433L317.81 223.593C317.368 223.94 317.186 224.768 317.51 225.004L319.538 226.471C319.664 226.565 319.727 226.77 319.696 227.023L319.214 231.02C319.183 231.311 319.262 231.508 319.396 231.587C319.554 231.682 321.274 232.675 321.408 232.754C321.566 232.849 321.803 232.77 322.016 232.494L324.526 229.293C324.683 229.088 324.873 228.986 325.031 229.001L327.54 229.309C327.943 229.356 328.408 228.639 328.329 228.095L327.848 224.65C327.816 224.429 327.88 224.161 328.006 223.916L330.034 220.108V220.101Z" fill="#49A16D"/>
<path opacity="0.15" d="M330.01 219.044C329.939 219.005 329.845 218.997 329.734 219.044L326.925 220.116C326.751 220.187 326.601 220.124 326.514 219.959L325.867 218.587L327.714 217.885C327.824 217.838 327.919 217.846 327.99 217.885C328.211 218.019 329.931 219.005 330.002 219.044H330.01Z" fill="white"/>
<path opacity="0.15" d="M323.034 221.961C322.955 222.221 322.797 222.458 322.624 222.592L319.822 224.752C319.696 224.847 319.593 224.981 319.522 225.131L317.51 223.964C317.581 223.822 317.691 223.688 317.81 223.585L320.611 221.425C320.793 221.291 320.943 221.055 321.022 220.794L323.034 221.953V221.961Z" fill="white"/>
<path opacity="0.1" d="M325.141 217.144C324.888 216.979 324.454 217.302 324.289 217.854L323.034 221.961L321.021 220.794L322.276 216.687C322.442 216.151 322.86 215.828 323.113 215.969C323.168 216.001 324.865 216.986 325.125 217.128C325.125 217.128 325.133 217.128 325.141 217.136V217.144Z" fill="black"/>
<path opacity="0.25" d="M321.55 227.63L319.554 226.486C319.554 226.486 319.546 226.471 319.53 226.463L317.502 224.996C317.265 224.831 317.297 224.35 317.502 223.964L319.514 225.13C319.309 225.509 319.278 225.99 319.514 226.163L321.542 227.63H321.55Z" fill="black"/>
<path opacity="0.15" d="M321.227 232.179C321.195 232.478 321.274 232.675 321.424 232.746C321.424 232.746 321.416 232.746 321.408 232.746C321.274 232.667 319.554 231.674 319.396 231.58C319.262 231.501 319.183 231.304 319.214 231.012L319.696 227.015C319.72 226.778 319.672 226.581 319.554 226.487L321.55 227.63C321.55 227.63 321.558 227.638 321.566 227.638C321.677 227.748 321.732 227.945 321.708 228.174L321.227 232.171V232.179Z" fill="black"/>
<path d="M325.267 217.294L326.522 219.959C326.601 220.124 326.751 220.187 326.933 220.116L329.734 219.044C330.176 218.871 330.358 219.501 330.034 220.108L328.006 223.916C327.88 224.153 327.817 224.429 327.848 224.649L328.329 228.095C328.408 228.639 327.943 229.364 327.54 229.309L325.031 229.001C324.873 228.986 324.683 229.088 324.526 229.293L322.016 232.494C321.621 233.006 321.148 232.817 321.227 232.186L321.708 228.189C321.74 227.937 321.677 227.732 321.55 227.637L319.522 226.171C319.199 225.935 319.38 225.107 319.822 224.76L322.624 222.6C322.797 222.466 322.955 222.229 323.034 221.969L324.289 217.861C324.486 217.207 325.062 216.876 325.26 217.302L325.267 217.294Z" fill="#49A16D"/>
<path opacity="0.5" d="M325.267 217.294L326.522 219.959C326.601 220.124 326.751 220.187 326.933 220.116L329.734 219.044C330.176 218.871 330.358 219.501 330.034 220.108L328.006 223.916C327.88 224.153 327.817 224.429 327.848 224.649L328.329 228.095C328.408 228.639 327.943 229.364 327.54 229.309L325.031 229.001C324.873 228.986 324.683 229.088 324.526 229.293L322.016 232.494C321.621 233.006 321.148 232.817 321.227 232.186L321.708 228.189C321.74 227.937 321.677 227.732 321.55 227.637L319.522 226.171C319.199 225.935 319.38 225.107 319.822 224.76L322.624 222.6C322.797 222.466 322.955 222.229 323.034 221.969L324.289 217.861C324.486 217.207 325.062 216.876 325.26 217.302L325.267 217.294Z" fill="white"/>
<path d="M287.45 244.564C287.695 244.107 287.655 243.642 287.426 243.508C287.355 243.469 285.643 242.483 285.414 242.349C285.343 242.302 285.248 242.294 285.13 242.341L283.283 243.051L282.676 241.758C282.644 241.687 282.597 241.632 282.541 241.6C282.289 241.458 280.584 240.465 280.529 240.441C280.276 240.299 279.85 240.615 279.692 241.159L278.438 245.266C278.359 245.526 278.209 245.763 278.027 245.897L275.226 248.057C274.784 248.404 274.602 249.232 274.926 249.468L276.954 250.935C277.08 251.029 277.143 251.234 277.112 251.486L276.63 255.483C276.599 255.775 276.678 255.972 276.812 256.051C276.97 256.146 278.69 257.139 278.824 257.218C278.982 257.313 279.219 257.234 279.432 256.958L281.942 253.757C282.099 253.552 282.289 253.449 282.447 253.465L284.956 253.773C285.359 253.82 285.824 253.103 285.745 252.559L285.264 249.113C285.233 248.893 285.296 248.625 285.422 248.38L287.45 244.572V244.564Z" fill="#49A16D"/>
<path opacity="0.15" d="M287.426 243.508C287.355 243.469 287.261 243.461 287.15 243.508L284.341 244.58C284.167 244.651 284.017 244.588 283.93 244.423L283.283 243.051L285.13 242.349C285.24 242.302 285.335 242.31 285.406 242.349C285.627 242.483 287.347 243.469 287.419 243.508H287.426Z" fill="white"/>
<path opacity="0.15" d="M280.45 246.425C280.371 246.685 280.213 246.922 280.04 247.056L277.238 249.216C277.112 249.311 277.009 249.445 276.938 249.594L274.926 248.428C274.997 248.286 275.107 248.152 275.226 248.049L278.027 245.889C278.209 245.755 278.359 245.518 278.438 245.258L280.45 246.417V246.425Z" fill="white"/>
<path opacity="0.1" d="M282.557 241.616C282.305 241.45 281.871 241.773 281.705 242.325L280.45 246.433L278.438 245.266L279.693 241.159C279.858 240.622 280.277 240.299 280.529 240.441C280.584 240.473 282.281 241.458 282.541 241.6C282.541 241.6 282.549 241.6 282.557 241.608V241.616Z" fill="black"/>
<path opacity="0.25" d="M278.966 252.093L276.97 250.95C276.97 250.95 276.962 250.935 276.946 250.927L274.918 249.46C274.681 249.295 274.713 248.814 274.918 248.427L276.93 249.594C276.725 249.973 276.694 250.454 276.93 250.627L278.958 252.093H278.966Z" fill="black"/>
<path opacity="0.15" d="M278.643 256.643C278.611 256.942 278.69 257.139 278.84 257.21C278.84 257.21 278.832 257.21 278.824 257.21C278.69 257.131 276.97 256.138 276.812 256.043C276.678 255.965 276.599 255.767 276.63 255.476L277.112 251.479C277.136 251.242 277.088 251.045 276.97 250.95L278.966 252.094C278.966 252.094 278.974 252.101 278.982 252.101C279.093 252.212 279.148 252.409 279.124 252.638L278.643 256.635V256.643Z" fill="black"/>
<path d="M282.675 241.758L283.93 244.423C284.009 244.588 284.159 244.651 284.341 244.58L287.142 243.508C287.584 243.335 287.766 243.965 287.442 244.564L285.414 248.372C285.288 248.609 285.224 248.885 285.256 249.106L285.737 252.551C285.816 253.095 285.351 253.82 284.948 253.765L282.439 253.457C282.281 253.442 282.091 253.544 281.934 253.749L279.424 256.95C279.029 257.462 278.556 257.273 278.635 256.642L279.116 252.645C279.148 252.393 279.085 252.188 278.958 252.093L276.93 250.627C276.607 250.391 276.788 249.563 277.23 249.216L280.032 247.056C280.205 246.922 280.363 246.685 280.442 246.425L281.697 242.318C281.894 241.663 282.47 241.332 282.668 241.758H282.675Z" fill="#49A16D"/>
<path opacity="0.5" d="M282.675 241.758L283.93 244.423C284.009 244.588 284.159 244.651 284.341 244.58L287.142 243.508C287.584 243.335 287.766 243.965 287.442 244.564L285.414 248.372C285.288 248.609 285.224 248.885 285.256 249.106L285.737 252.551C285.816 253.095 285.351 253.82 284.948 253.765L282.439 253.457C282.281 253.442 282.091 253.544 281.934 253.749L279.424 256.95C279.029 257.462 278.556 257.273 278.635 256.642L279.116 252.645C279.148 252.393 279.085 252.188 278.958 252.093L276.93 250.627C276.607 250.391 276.788 249.563 277.23 249.216L280.032 247.056C280.205 246.922 280.363 246.685 280.442 246.425L281.697 242.318C281.894 241.663 282.47 241.332 282.668 241.758H282.675Z" fill="white"/>
<path d="M301.529 236.452C301.774 235.995 301.734 235.529 301.505 235.395C301.434 235.356 299.722 234.371 299.493 234.236C299.422 234.189 299.327 234.181 299.209 234.229L297.362 234.938L296.754 233.645C296.723 233.574 296.675 233.519 296.62 233.488C296.368 233.346 294.663 232.352 294.608 232.329C294.355 232.187 293.929 232.502 293.771 233.046L292.517 237.154C292.438 237.414 292.288 237.65 292.106 237.784L289.305 239.944C288.863 240.291 288.681 241.119 289.005 241.356L291.033 242.822C291.159 242.917 291.222 243.122 291.191 243.374L290.709 247.371C290.678 247.663 290.757 247.86 290.891 247.939C291.049 248.033 292.769 249.027 292.903 249.105C293.061 249.2 293.298 249.121 293.511 248.845L296.02 245.644C296.178 245.439 296.368 245.337 296.526 245.353L299.035 245.66C299.438 245.707 299.903 244.99 299.824 244.446L299.343 241.001C299.311 240.78 299.375 240.512 299.501 240.268L301.529 236.46V236.452Z" fill="#49A16D"/>
<path opacity="0.15" d="M301.505 235.396C301.434 235.356 301.34 235.348 301.229 235.396L298.42 236.468C298.246 236.539 298.096 236.476 298.009 236.31L297.362 234.938L299.209 234.237C299.319 234.189 299.414 234.197 299.485 234.237C299.706 234.371 301.426 235.356 301.497 235.396H301.505Z" fill="white"/>
<path opacity="0.15" d="M294.537 238.313C294.458 238.573 294.3 238.809 294.126 238.943L291.325 241.103C291.198 241.198 291.096 241.332 291.025 241.482L289.012 240.315C289.083 240.173 289.194 240.039 289.312 239.937L292.114 237.776C292.295 237.642 292.445 237.406 292.524 237.146L294.537 238.305V238.313Z" fill="white"/>
<path opacity="0.1" d="M296.644 233.503C296.391 233.338 295.957 233.661 295.792 234.213L294.537 238.32L292.524 237.153L293.779 233.046C293.945 232.51 294.363 232.187 294.616 232.329C294.671 232.36 296.368 233.346 296.628 233.488C296.628 233.488 296.636 233.488 296.644 233.495V233.503Z" fill="black"/>
<path opacity="0.25" d="M293.045 243.981L291.049 242.838C291.049 242.838 291.041 242.822 291.025 242.814L288.997 241.348C288.76 241.182 288.792 240.701 288.997 240.315L291.009 241.482C290.804 241.86 290.772 242.341 291.009 242.515L293.037 243.981H293.045Z" fill="black"/>
<path opacity="0.15" d="M292.722 248.53C292.69 248.83 292.769 249.027 292.919 249.098C292.919 249.098 292.911 249.098 292.903 249.098C292.769 249.019 291.049 248.025 290.891 247.931C290.757 247.852 290.678 247.655 290.709 247.363L291.191 243.366C291.214 243.13 291.167 242.932 291.049 242.838L293.045 243.981C293.045 243.981 293.053 243.989 293.061 243.989C293.172 244.099 293.227 244.296 293.203 244.525L292.722 248.522V248.53Z" fill="black"/>
<path d="M296.762 233.645L298.017 236.31C298.096 236.475 298.246 236.539 298.428 236.468L301.229 235.395C301.671 235.222 301.853 235.853 301.529 236.46L299.501 240.268C299.375 240.504 299.311 240.78 299.343 241.001L299.824 244.446C299.903 244.99 299.438 245.715 299.035 245.66L296.526 245.353C296.368 245.337 296.178 245.439 296.021 245.644L293.511 248.845C293.116 249.358 292.643 249.168 292.722 248.538L293.203 244.541C293.235 244.288 293.172 244.083 293.045 243.989L291.017 242.522C290.694 242.286 290.875 241.458 291.317 241.111L294.119 238.951C294.292 238.817 294.45 238.58 294.529 238.32L295.784 234.213C295.981 233.558 296.557 233.227 296.754 233.653L296.762 233.645Z" fill="#49A16D"/>
<path opacity="0.5" d="M296.762 233.645L298.017 236.31C298.096 236.475 298.246 236.539 298.428 236.468L301.229 235.395C301.671 235.222 301.853 235.853 301.529 236.46L299.501 240.268C299.375 240.504 299.311 240.78 299.343 241.001L299.824 244.446C299.903 244.99 299.438 245.715 299.035 245.66L296.526 245.353C296.368 245.337 296.178 245.439 296.021 245.644L293.511 248.845C293.116 249.358 292.643 249.168 292.722 248.538L293.203 244.541C293.235 244.288 293.172 244.083 293.045 243.989L291.017 242.522C290.694 242.286 290.875 241.458 291.317 241.111L294.119 238.951C294.292 238.817 294.45 238.58 294.529 238.32L295.784 234.213C295.981 233.558 296.557 233.227 296.754 233.653L296.762 233.645Z" fill="white"/>
<path d="M271.343 252.953C271.588 252.495 271.548 252.03 271.319 251.896C271.248 251.857 269.536 250.871 269.307 250.737C269.236 250.69 269.141 250.682 269.023 250.729L267.176 251.439L266.568 250.146C266.537 250.075 266.489 250.02 266.434 249.988C266.182 249.846 264.477 248.853 264.422 248.829C264.169 248.687 263.743 249.003 263.585 249.547L262.331 253.654C262.252 253.914 262.102 254.151 261.92 254.285L259.119 256.445C258.677 256.792 258.495 257.62 258.819 257.856L260.847 259.323C260.973 259.417 261.036 259.622 261.005 259.875L260.523 263.872C260.492 264.163 260.571 264.361 260.705 264.439C260.863 264.534 262.583 265.527 262.717 265.606C262.875 265.701 263.112 265.622 263.325 265.346L265.834 262.145C265.992 261.94 266.182 261.838 266.34 261.853L268.849 262.161C269.252 262.208 269.717 261.491 269.638 260.947L269.157 257.502C269.125 257.281 269.188 257.013 269.315 256.768L271.343 252.96V252.953Z" fill="#49A16D"/>
<path opacity="0.15" d="M271.319 251.896C271.248 251.857 271.153 251.849 271.043 251.896L268.234 252.969C268.06 253.039 267.91 252.976 267.823 252.811L267.176 251.439L269.023 250.737C269.133 250.69 269.228 250.698 269.299 250.737C269.52 250.871 271.24 251.857 271.311 251.896H271.319Z" fill="white"/>
<path opacity="0.15" d="M264.343 254.813C264.264 255.073 264.106 255.31 263.932 255.444L261.131 257.604C261.005 257.699 260.902 257.833 260.831 257.983L258.819 256.816C258.89 256.674 259 256.54 259.118 256.437L261.92 254.277C262.102 254.143 262.252 253.907 262.33 253.646L264.343 254.805V254.813Z" fill="white"/>
<path opacity="0.1" d="M266.45 250.004C266.197 249.838 265.763 250.162 265.598 250.714L264.343 254.821L262.33 253.654L263.585 249.547C263.751 249.011 264.169 248.687 264.422 248.829C264.477 248.861 266.174 249.846 266.434 249.988C266.434 249.988 266.442 249.988 266.45 249.996V250.004Z" fill="black"/>
<path opacity="0.25" d="M262.859 260.482L260.863 259.339C260.863 259.339 260.855 259.323 260.839 259.315L258.811 257.848C258.574 257.683 258.606 257.202 258.811 256.816L260.823 257.982C260.618 258.361 260.586 258.842 260.823 259.015L262.851 260.482H262.859Z" fill="black"/>
<path opacity="0.15" d="M262.536 265.031C262.504 265.33 262.583 265.527 262.733 265.598C262.733 265.598 262.725 265.598 262.717 265.598C262.583 265.52 260.863 264.526 260.705 264.432C260.571 264.353 260.492 264.156 260.523 263.864L261.005 259.867C261.028 259.63 260.981 259.433 260.863 259.339L262.859 260.482C262.859 260.482 262.867 260.49 262.875 260.49C262.986 260.6 263.041 260.797 263.017 261.026L262.536 265.023V265.031Z" fill="black"/>
<path d="M266.568 250.146L267.823 252.811C267.902 252.976 268.052 253.039 268.233 252.968L271.035 251.896C271.477 251.723 271.658 252.353 271.335 252.96L269.307 256.768C269.18 257.005 269.117 257.281 269.149 257.502L269.63 260.947C269.709 261.491 269.244 262.216 268.841 262.161L266.332 261.853C266.174 261.838 265.984 261.94 265.826 262.145L263.317 265.346C262.922 265.858 262.449 265.669 262.528 265.038L263.009 261.041C263.041 260.789 262.978 260.584 262.851 260.489L260.823 259.023C260.499 258.787 260.681 257.959 261.123 257.612L263.925 255.452C264.098 255.318 264.256 255.081 264.335 254.821L265.59 250.714C265.787 250.059 266.363 249.728 266.56 250.154L266.568 250.146Z" fill="#49A16D"/>
<path opacity="0.5" d="M266.568 250.146L267.823 252.811C267.902 252.976 268.052 253.039 268.233 252.968L271.035 251.896C271.477 251.723 271.658 252.353 271.335 252.96L269.307 256.768C269.18 257.005 269.117 257.281 269.149 257.502L269.63 260.947C269.709 261.491 269.244 262.216 268.841 262.161L266.332 261.853C266.174 261.838 265.984 261.94 265.826 262.145L263.317 265.346C262.922 265.858 262.449 265.669 262.528 265.038L263.009 261.041C263.041 260.789 262.978 260.584 262.851 260.489L260.823 259.023C260.499 258.787 260.681 257.959 261.123 257.612L263.925 255.452C264.098 255.318 264.256 255.081 264.335 254.821L265.59 250.714C265.787 250.059 266.363 249.728 266.56 250.154L266.568 250.146Z" fill="white"/>
<path d="M256.664 66.2162C250.721 62.7788 242.546 63.244 233.525 68.4473C215.358 78.9249 200.625 104.61 200.625 125.81C200.625 136.477 204.365 143.959 210.387 147.435C211.776 148.24 217.245 151.354 217.237 151.385C216.637 155.469 214.932 159.774 209.574 162.943C209.227 163.148 209.448 163.479 209.747 163.66C209.874 163.731 217.781 168.296 218.089 168.469C218.215 168.54 218.349 168.588 218.468 168.588C226.675 168.603 236.193 163.077 238.836 151.598C239.831 151.133 240.833 150.613 241.851 150.029C260.018 139.552 274.752 113.866 274.752 92.6664C274.752 81.9996 271.019 74.5021 264.998 71.0174C263.593 70.2054 258.045 67.0203 256.664 66.2162Z" fill="#37474F"/>
<path d="M241.859 73.2563C223.692 83.7339 208.958 109.419 208.958 130.619C208.958 144.999 215.745 153.616 225.776 154.405C225.405 158.977 224.063 164.117 217.908 167.752C217.418 168.036 218.057 168.588 218.468 168.588C226.675 168.603 236.193 163.077 238.837 151.598C239.831 151.133 240.833 150.612 241.851 150.029C260.018 139.551 274.752 113.866 274.752 92.6663C274.752 71.4667 260.026 62.7787 241.851 73.2563H241.859Z" fill="#455A64"/>
<path d="M217.908 167.744C217.608 167.925 217.742 168.201 217.986 168.398C217 167.839 209.866 163.731 209.755 163.652C209.448 163.471 209.235 163.14 209.582 162.935C214.948 159.773 216.645 155.461 217.245 151.377L218.16 151.913L218.989 152.402C221.017 153.529 223.298 154.192 225.776 154.389C225.405 158.954 224.063 164.102 217.908 167.736V167.744Z" fill="#263238"/>
<path d="M238.387 133.93C237.503 133.308 237.069 132.188 237.069 130.572C237.069 128.956 237.503 127.355 238.363 125.771C239.223 124.186 240.328 123.003 241.67 122.231C243.011 121.458 244.116 121.364 244.976 121.955C245.836 122.546 246.27 123.65 246.27 125.266C246.27 126.882 245.828 128.514 244.952 130.146C244.077 131.778 242.98 132.976 241.67 133.733C240.359 134.49 239.263 134.561 238.387 133.938V133.93ZM237.211 91.0739L246.136 85.9258L244.645 115.979L238.702 119.408L237.211 91.0739Z" fill="#FAFAFA"/>
<path opacity="0.2" d="M246.247 147.136C255.938 140.04 264.287 128.798 269.409 116.72C259.718 123.815 251.369 135.058 246.247 147.136Z" fill="black"/>
<path d="M308.205 188.218C304.851 188.25 302.349 185.908 300.779 182.952C310.849 170.582 317.659 154.105 317.659 139.693C317.659 129.003 313.911 121.506 307.874 118.029C306.477 117.225 300.945 114.04 299.548 113.235C293.605 109.806 285.445 110.279 276.425 115.482C258.258 125.96 243.524 151.645 243.524 172.845C243.524 183.512 247.257 191.009 253.278 194.486C254.683 195.298 260.215 198.467 261.588 199.272C267.531 202.733 275.723 202.275 284.759 197.056C287.118 195.7 289.415 194.076 291.632 192.247C297.749 197.08 305.198 191.813 308.15 189.291C308.544 188.952 308.592 188.211 308.221 188.218H308.205Z" fill="#E0E0E0"/>
<path d="M270.198 200.99C259.205 200.99 252.371 192.05 252.371 177.654C252.371 156.652 267.018 131.116 285.019 120.741C290.054 117.84 294.868 116.365 299.327 116.365C310.32 116.365 317.154 125.305 317.154 139.709C317.154 154.113 310.73 169.936 300.392 182.645L300.179 182.905L300.337 183.204C302.192 186.697 304.883 188.652 307.929 188.739C307.905 188.802 307.866 188.865 307.818 188.912C305.719 190.702 301.552 193.713 297.236 193.713C295.294 193.713 293.519 193.091 291.956 191.853L291.632 191.593L291.309 191.853C289.075 193.698 286.787 195.298 284.506 196.615C279.471 199.516 274.657 200.99 270.198 200.99Z" fill="#FAFAFA"/>
<path d="M299.319 115.845V116.87C309.996 116.87 316.633 125.621 316.633 139.701C316.633 153.782 310.257 169.692 299.99 182.314L299.564 182.842L299.879 183.441C301.584 186.658 303.991 188.636 306.745 189.133C304.551 190.875 300.929 193.201 297.228 193.201C295.405 193.201 293.732 192.61 292.272 191.451L291.624 190.938L290.985 191.467C288.768 193.296 286.503 194.88 284.254 196.173C279.298 199.027 274.57 200.478 270.206 200.478C259.529 200.478 252.892 191.727 252.892 177.646C252.892 156.809 267.42 131.471 285.279 121.174C290.236 118.32 294.963 116.87 299.327 116.87V115.845M299.327 115.845C294.939 115.845 289.991 117.272 284.767 120.291C266.6 130.769 251.866 156.455 251.866 177.654C251.866 192.752 259.339 201.503 270.206 201.503C274.594 201.503 279.542 200.076 284.767 197.056C287.126 195.7 289.423 194.076 291.64 192.247C293.44 193.666 295.357 194.218 297.236 194.218C301.75 194.218 306.074 191.072 308.158 189.291C308.552 188.952 308.6 188.219 308.229 188.219C308.229 188.219 308.181 188.219 308.158 188.219C304.835 188.219 302.365 185.885 300.803 182.952C310.872 170.582 317.683 154.105 317.683 139.694C317.683 125.282 310.21 115.845 299.343 115.845H299.327Z" fill="#49A16D"/>
<path d="M283.086 162.281C283.835 160.396 284.932 158.173 286.368 155.595C287.426 153.711 288.199 152.189 288.697 151.03C289.194 149.871 289.438 148.736 289.438 147.632C289.438 146.056 288.965 145.086 288.026 144.715C287.087 144.345 285.824 144.613 284.261 145.512C282.762 146.379 281.42 147.561 280.26 149.067C279.092 150.573 278.114 152.3 277.309 154.247L271.508 153.057C272.85 149.556 274.665 146.403 276.954 143.596C279.242 140.789 281.949 138.479 285.082 136.674C288.76 134.553 291.711 133.899 293.929 134.703C296.154 135.507 297.259 137.762 297.259 141.467C297.259 143.218 297.046 144.873 296.612 146.442C296.178 148.011 295.649 149.438 295.026 150.707C294.402 151.984 293.597 153.506 292.603 155.264C291.419 157.353 290.559 159.032 290.014 160.302C289.47 161.571 289.202 162.888 289.202 164.252L281.957 168.43C281.957 166.215 282.336 164.165 283.086 162.288V162.281ZM282.32 182.558C281.444 181.935 281.002 180.815 281.002 179.199C281.002 177.583 281.436 175.983 282.296 174.398C283.157 172.813 284.261 171.639 285.603 170.858C286.945 170.086 288.049 169.991 288.91 170.582C289.77 171.166 290.204 172.277 290.204 173.893C290.204 175.51 289.762 177.142 288.886 178.774C288.01 180.413 286.913 181.604 285.603 182.361C284.293 183.118 283.196 183.189 282.32 182.566V182.558Z" fill="#455A64"/>
<path d="M116.372 126.37L80.0698 147.372L94.4881 171.859C94.8038 172.561 95.2931 173.073 95.8692 173.405C97.5896 174.382 107.778 180.271 108.338 180.595C110.059 181.588 112.552 180.886 113.207 178.655L128.865 133.575L116.372 126.37Z" fill="#49A16D"/>
<path opacity="0.2" d="M116.372 126.37L80.0698 147.372L94.4881 171.859C94.8038 172.561 95.2931 173.073 95.8692 173.405C97.5896 174.382 107.778 180.271 108.338 180.595C110.059 181.588 112.552 180.886 113.207 178.655L128.865 133.575L116.372 126.37Z" fill="#49A16D"/>
<path d="M92.5703 154.578L106.989 179.065C108.243 181.888 112.339 181.619 113.215 178.655L128.872 133.575L92.5703 154.578Z" fill="#49A16D"/>
<path d="M156.881 0.764557L19.982 79.7211C18.2458 80.7223 16.8411 83.1584 16.8411 85.1609V180.082C16.8411 182.085 18.2537 184.505 19.9978 185.491L31.2514 191.798C32.9955 192.783 35.8208 192.767 37.557 191.766L174.455 112.81C176.192 111.808 177.596 109.372 177.596 107.37V12.4484C177.596 10.4459 176.184 8.02556 174.44 7.04008L163.178 0.733022C161.434 -0.252457 158.609 -0.236689 156.873 0.764557H156.881Z" fill="#31774D"/>
<path opacity="0.3" d="M177.557 11.8729C177.312 10.2883 176.018 9.72854 174.448 10.6273L37.565 89.5917C36.6969 90.0963 35.9077 90.9556 35.3474 91.9411L17.8276 81.9602C18.3958 81.0141 19.1456 80.2021 19.99 79.729L156.889 0.756744C158.617 -0.244502 161.434 -0.260269 163.186 0.725209L174.44 7.02439C176.026 7.92314 177.344 9.99659 177.557 11.8651V11.8729Z" fill="white"/>
<path d="M34.416 190.308V95.3864C34.416 93.3839 35.8208 90.9478 37.5569 89.9465L174.455 10.9979C176.192 9.99663 177.596 10.8087 177.596 12.8112V107.732C177.596 109.735 176.192 112.171 174.455 113.172L37.5569 192.121C35.8208 193.122 34.416 192.31 34.416 190.308Z" fill="#49A16D"/>
<path d="M72.8252 114.323L71.4521 113.535C70.3867 112.92 69.0846 112.92 68.0192 113.535L59.6855 118.344V106.952L75.1218 98.0431C76.6054 97.1837 77.5209 95.5991 77.5209 93.8883V87.5024C77.5209 85.7837 76.6054 84.1991 75.1139 83.3476C73.6302 82.4883 71.7993 82.4883 70.3078 83.3476L48.8974 95.7016C46.3168 97.1916 44.7227 99.9431 44.7227 102.915V162.194C44.7227 163.912 45.6381 165.497 47.1296 166.349C48.6133 167.208 50.4442 167.208 51.9357 166.349L57.2785 163.266C58.7621 162.407 59.6776 160.822 59.6776 159.111V135.862L72.8174 128.285C73.8827 127.671 74.5378 126.543 74.5378 125.313V117.295C74.5378 116.073 73.8827 114.938 72.8174 114.323H72.8252Z" fill="#E0E0E0"/>
<path opacity="0.1" d="M52.4013 166.073L51.9435 166.341C51.2017 166.774 50.3652 166.987 49.5366 166.987C48.7079 166.987 47.8793 166.774 47.1375 166.341C45.6459 165.489 44.7305 163.897 44.7305 162.186V102.907C44.7305 101.504 45.0935 100.164 45.7327 98.9734L50.5388 101.741C49.8917 102.931 49.5366 104.279 49.5366 105.675V164.401C49.5366 165.868 51.1307 166.798 52.4013 166.073Z" fill="black"/>
<path d="M59.6854 106.944V123.878L72.8016 116.31C73.575 115.861 74.5377 116.42 74.5377 117.311V125.313C74.5377 126.535 73.8827 127.663 72.8331 128.27L59.6854 135.854V159.111C59.6854 160.822 58.77 162.407 57.2863 163.258L52.425 166.065C51.1387 166.806 49.5366 165.884 49.5366 164.401V105.683C49.5366 102.703 51.1229 99.9511 53.7114 98.4689L74.9244 86.2332C76.0845 85.5631 77.5287 86.3988 77.5287 87.739V93.9121C77.5287 95.615 76.6212 97.1917 75.1454 98.0432L59.6854 106.96V106.944Z" fill="#FAFAFA"/>
<path d="M105.497 71.1357C105.087 69.7402 104.156 68.5498 102.893 67.8245C102.009 67.3199 101.031 67.0676 100.052 67.0676C99.0734 67.0676 98.0948 67.3199 97.2109 67.8245L91.8998 70.8913C90.5187 71.6875 89.5322 73.0278 89.1929 74.5888L73.362 146.6C73.0858 147.861 73.6619 149.146 74.7746 149.793L76.2267 150.628C77.1422 151.157 78.2707 151.157 79.1861 150.628L85.5863 146.939C86.415 146.458 87.1174 145.709 87.6856 144.692C88.2538 143.683 88.6484 142.681 88.8614 141.696L91.4342 128.561L104.377 121.095L105.718 126.433C106.002 127.253 106.405 127.82 106.941 128.136C107.478 128.451 111.211 130.588 111.748 130.911C112.284 131.226 112.994 131.132 113.87 130.627L121.683 126.117L105.497 71.1357ZM94.9776 110.421L97.7555 96.1353C97.8107 95.8909 97.8659 95.6386 97.9212 95.3785L100.857 107.023L94.9776 110.421Z" fill="#E0E0E0"/>
<path opacity="0.1" d="M111.684 130.872C110.982 130.454 107.462 128.443 106.942 128.136C106.405 127.82 106.002 127.253 105.718 126.433L104.377 121.096L107.96 119.03L110.524 129.2C110.801 129.989 111.179 130.54 111.684 130.872Z" fill="black"/>
<path opacity="0.1" d="M105.663 109.798L100.857 107.023L97.9211 95.3784C97.9211 95.3784 97.9211 95.339 97.9211 95.3232C98.1737 94.1879 98.4262 92.895 98.7024 91.4601C99.0418 89.6705 99.3574 87.7626 99.6573 85.7207C99.9967 87.3605 100.336 88.8742 100.675 90.2539C101.015 91.6336 101.33 92.8161 101.63 93.8095L105.655 109.798H105.663Z" fill="black"/>
<path opacity="0.1" d="M78.2549 148.988C78.0655 149.848 78.8783 150.541 79.6517 150.313L79.636 150.376L79.1861 150.628C78.2707 151.156 77.1422 151.156 76.2267 150.628L74.7746 149.793C73.6619 149.146 73.0858 147.861 73.362 146.6L89.1929 74.5887C89.3349 73.9186 89.6112 73.2879 89.9821 72.7202L94.7882 75.4953C94.4094 76.0551 94.141 76.6858 93.999 77.3559L78.2549 148.988Z" fill="black"/>
<path d="M121.683 126.118L113.863 130.627C112.987 131.132 112.284 131.226 111.748 130.911C111.211 130.596 110.801 130.028 110.524 129.208L107.96 119.03L91.4264 128.561L88.8616 141.696C88.6406 142.681 88.2539 143.675 87.6857 144.692C87.1175 145.709 86.4151 146.458 85.5786 146.939L79.9202 150.203C79.0679 150.691 78.0419 149.942 78.255 148.981L93.9991 77.3481C94.3384 75.7872 95.3249 74.4469 96.706 73.6506L101.812 70.71C103.367 69.8112 105.347 70.6075 105.853 72.3261L121.683 126.11V126.118ZM105.663 109.798L101.638 93.8096C101.338 92.8241 101.023 91.6336 100.683 90.254C100.344 88.8743 100.005 87.3606 99.6654 85.7208C99.3655 87.7627 99.0498 89.6706 98.7105 91.4602C98.3711 93.2498 98.0555 94.8108 97.7556 96.1432L93.7545 116.665L105.663 109.798Z" fill="#FAFAFA"/>
<path d="M159.098 98.5714C160.448 96.2614 161.655 93.8096 162.72 91.2079C163.786 88.6062 164.678 85.9257 165.404 83.1822C166.13 80.4386 166.69 77.6319 167.077 74.7622C167.463 71.8925 167.661 69.0228 167.661 66.1452C167.661 61.344 167.116 57.1734 166.035 53.6336C164.946 50.1016 163.423 47.3738 161.458 45.4502C160.748 44.7643 159.998 44.1887 159.185 43.7315C158.396 43.2821 155.231 41.4452 154.45 40.9958C152.982 40.1365 151.341 39.6555 149.533 39.5531C146.755 39.3954 143.678 40.2941 140.3 42.2414C136.914 44.1887 133.829 46.8377 131.051 50.1883C128.265 53.539 125.882 57.3153 123.901 61.5174C121.92 65.7195 120.389 70.2133 119.308 74.9987C118.219 79.7842 117.682 84.5934 117.682 89.4261C117.682 94.2589 118.219 98.4452 119.308 101.985C120.389 105.517 121.92 108.253 123.901 110.184C124.611 110.886 125.385 111.461 126.197 111.919C126.979 112.36 130.104 114.173 130.877 114.623C132.361 115.49 134.018 115.971 135.857 116.066C138.635 116.2 141.72 115.293 145.106 113.346C146.542 112.518 147.908 111.572 149.202 110.507L151.159 112.754C151.451 113.046 151.751 113.283 152.059 113.456C152.611 113.779 156.541 116.034 156.841 116.215C157.401 116.547 157.985 116.688 158.601 116.641C159.548 116.57 160.621 116.192 161.813 115.498L170.107 110.72L159.098 98.5714ZM151.696 78.783C151.135 81.7473 150.338 84.4515 149.289 86.8876C148.247 89.3315 146.968 91.4681 145.461 93.2971C143.946 95.134 142.226 96.6083 140.3 97.7199C138.509 98.7606 136.899 99.273 135.47 99.2809C134.705 98.122 134.097 96.6083 133.647 94.732C133.087 92.4062 132.811 89.5838 132.811 86.249C132.811 82.9141 133.087 79.8079 133.647 76.8357C134.2 73.8714 135.005 71.1672 136.046 68.7311C137.088 66.295 138.374 64.1427 139.897 62.29C141.421 60.4294 143.157 58.9394 145.106 57.812C146.858 56.8029 148.436 56.2983 149.849 56.2983C150.622 57.4651 151.238 58.9946 151.696 60.8867C152.248 63.2124 152.532 66.0269 152.532 69.3303C152.532 72.6336 152.248 75.8108 151.696 78.783Z" fill="#E0E0E0"/>
<path opacity="0.1" d="M130.68 114.505C129.678 113.929 126.923 112.329 126.197 111.919C125.385 111.461 124.611 110.886 123.901 110.184C121.92 108.253 120.389 105.517 119.308 101.985C118.219 98.4452 117.682 94.2589 117.682 89.4261C117.682 84.5933 118.219 79.7842 119.308 74.9987C120.31 70.568 121.699 66.3896 123.475 62.4556L128.281 65.2307C126.505 69.1568 125.116 73.3352 124.114 77.7738C123.025 82.5593 122.488 87.3685 122.488 92.2012C122.488 97.034 123.025 101.22 124.114 104.752C125.195 108.292 126.726 111.028 128.707 112.959C129.322 113.559 129.985 114.079 130.68 114.505Z" fill="black"/>
<path opacity="0.1" d="M154.095 58.3166C153.053 57.0867 151.775 56.4166 150.267 56.3062C150.133 56.2984 149.991 56.3062 149.849 56.3062C150.622 57.473 151.238 59.0025 151.696 60.8867C152.248 63.2125 152.532 66.027 152.532 69.3303C152.532 72.6336 152.248 75.8108 151.696 78.783C151.135 81.7474 150.338 84.4515 149.289 86.8876C148.247 89.3316 146.969 91.4681 145.461 93.2972C143.946 95.1341 142.226 96.6084 140.3 97.72C138.509 98.7606 136.899 99.2731 135.47 99.281C135.644 99.5648 135.841 99.825 136.046 100.069C137.088 101.307 138.374 101.969 139.897 102.048C141.421 102.135 143.157 101.622 145.106 100.495C147.032 99.3835 148.752 97.9092 150.267 96.0723C151.775 94.2353 153.053 92.0988 154.095 89.6627C155.144 87.2266 155.941 84.5225 156.502 81.5503C157.054 78.5859 157.338 75.4324 157.338 72.0975C157.338 68.7627 157.054 65.9797 156.502 63.654C155.941 61.3282 155.144 59.5465 154.095 58.3166Z" fill="black"/>
<path opacity="0.1" d="M150.567 109.325C150.117 109.735 149.668 110.129 149.202 110.508L151.159 112.754C151.451 113.046 151.751 113.283 152.059 113.456C152.595 113.771 156.297 115.892 156.802 116.192C156.518 116.018 156.233 115.798 155.965 115.522L150.567 109.325Z" fill="black"/>
<path d="M170.107 110.72L161.813 115.506C160.621 116.192 159.548 116.57 158.609 116.641C157.662 116.712 156.786 116.341 155.965 115.522L150.567 109.317C148.878 110.87 147.055 112.21 145.106 113.338C141.72 115.285 138.643 116.192 135.857 116.058C133.071 115.924 130.688 114.883 128.715 112.951C126.734 111.02 125.203 108.284 124.122 104.744C123.041 101.212 122.496 97.0261 122.496 92.1933C122.496 87.3605 123.041 82.5514 124.122 77.7659C125.203 72.9804 126.734 68.4866 128.715 64.2846C130.696 60.0825 133.079 56.3061 135.857 52.9555C138.643 49.6049 141.728 46.9559 145.106 45.0007C148.484 43.0534 151.561 42.1547 154.339 42.3123C157.117 42.47 159.485 43.5107 161.458 45.4343C163.423 47.358 164.954 50.0858 166.035 53.6256C167.116 57.1655 167.661 61.3281 167.661 66.1373C167.661 69.0149 167.463 71.8846 167.077 74.7543C166.69 77.624 166.13 80.4306 165.404 83.1742C164.678 85.9178 163.786 88.5904 162.72 91.1921C161.655 93.7937 160.448 96.2535 159.098 98.5634L170.107 110.705V110.72ZM132.811 86.2489C132.811 89.5838 133.087 92.4141 133.647 94.7398C134.207 97.0655 135.005 98.8473 136.046 100.077C137.088 101.315 138.374 101.969 139.897 102.056C141.421 102.143 143.157 101.622 145.106 100.495C147.032 99.3834 148.752 97.9091 150.267 96.0722C151.775 94.2352 153.061 92.0987 154.103 89.6626C155.144 87.2265 155.949 84.5223 156.502 81.5501C157.062 78.5858 157.338 75.4323 157.338 72.0974C157.338 68.7626 157.062 65.9796 156.502 63.6539C155.941 61.3281 155.144 59.5464 154.103 58.3165C153.061 57.0866 151.782 56.4165 150.267 56.3061C148.752 56.1958 147.032 56.7003 145.106 57.8119C143.157 58.9393 141.421 60.4294 139.897 62.2821C138.374 64.1427 137.096 66.2871 136.046 68.7232C135.005 71.1593 134.2 73.8634 133.647 76.8356C133.087 79.7999 132.811 82.9377 132.811 86.241V86.2489Z" fill="#FAFAFA"/>
</g>
<defs>
<clipPath id="clip0_42_2786">
<rect width="336" height="348" fill="white"/>
</clipPath>
</defs>
</svg>
