<svg width="71" height="184" viewBox="0 0 71 184" fill="none" xmlns="http://www.w3.org/2000/svg">
<g id="Character">
<path id="Vector" d="M1.53485 134.992C0.956616 149.49 1.9387 180.568 1.9387 180.568C1.9387 180.568 17.3216 185.217 27.7849 183.484C38.2482 181.751 60.6158 165.923 60.6158 165.923L56.8894 132.287L1.54402 134.992H1.53485Z" fill="#37474F"/>
<path id="Vector_2" d="M37.257 180.045L39.7535 156.359C49.556 150.517 52.7501 142.429 52.7501 142.429C43.8287 154.103 34.5127 152.214 34.5127 152.214V181.301C35.403 180.916 36.3208 180.494 37.2479 180.045H37.257Z" fill="#263238"/>
<path id="Vector_3" d="M63.0298 91.2968C65.5171 78.6788 66.6552 61.8975 55.6596 58.8256C52.7959 58.0278 45.5083 58.578 45.5083 58.578L33.6591 59.1649C27.0598 60.0085 17.8081 61.3198 15.3758 61.9159C9.00604 63.484 7.12448 73.8737 4.27002 96.8906C2.48024 111.306 0.96582 122.558 0.96582 136.588C12.604 147.014 48.9961 142.906 57.2749 136.129C57.6145 120.228 58.4865 114.332 63.0298 91.2968Z" fill="#455A64"/>
<g id="Group">
<path id="Vector_4" d="M31.649 54.8733C31.5389 57.1749 34.1914 61.0722 38.2483 63.7958C42.3051 66.5193 45.8112 67.6288 46.2518 68.7751C44.3243 69.1327 42.5804 70.0956 41.1486 73.3968C39.781 76.5513 39.7902 76.6522 35.1001 73.3968C30.4099 70.1415 26.2154 62.6587 26.2246 60.1644C26.2338 57.6701 29.9143 52.8558 31.7133 53.2593L31.6399 54.8641L31.649 54.8733Z" fill="#37474F"/>
<path id="Vector_5" d="M46.2607 68.7751C47.6375 67.2804 48.9316 63.5115 49.106 61.8792C49.2804 60.2469 49.7026 55.9737 49.7026 55.9737C49.7026 55.9737 50.8224 56.258 51.3272 57.0282C51.832 57.7894 54.3285 62.943 54.2459 65.8224C54.1633 68.7018 53.4933 72.5899 52.5204 74.2313C51.5475 75.8728 50.8958 72.975 50.2625 71.8563C49.4364 70.3982 48.2983 68.821 46.2699 68.7843L46.2607 68.7751Z" fill="#37474F"/>
<path id="Vector_6" d="M44.4071 72.0764C44.4071 72.0764 44.6366 82.4661 43.6729 87.9956C43.6729 87.9956 46.8027 88.5733 49.8591 87.8306C49.8591 87.8306 48.2712 89.7838 42.4521 88.8851C42.4521 88.8851 44.2419 78.0369 44.398 72.0764H44.4071Z" fill="#37474F"/>
</g>
<g id="Group_2">
<g id="Group_3">
<path id="Vector_7" d="M69.0326 24.0801C68.895 14.9742 61.3963 7.69316 52.2822 7.83071C43.7555 7.95909 36.835 14.5249 36.0824 22.8238L28.5837 17.496C28.5837 17.496 25.8485 17.065 23.7559 19.275C21.6999 21.4391 22.9665 28.0783 25.6558 34.5707C25.6558 34.5707 28.3634 46.4184 29.4097 48.3533C30.4561 50.2882 32.5579 50.8109 32.5579 50.8109L32.3009 43.6032L62.2866 41.4482L59.322 39.3391C65.1227 36.7165 69.1244 30.8385 69.0235 24.0709L69.0326 24.0801Z" fill="#263238"/>
<path id="Vector_8" d="M31.8693 35.0292C30.9239 35.6161 30.052 33.6079 28.3356 32.5808C26.8671 31.7096 23.572 30.1782 21.406 33.8096C19.0655 37.7252 23.3151 43.1356 26.2888 44.2543C30.6944 45.9049 32.2731 42.457 32.2731 42.457L31.3645 60.7971C37.3579 71.7095 55.1639 71.0126 49.1154 61.87L49.8405 54.7999C49.8405 54.7999 54.5857 55.451 56.8894 55.0567C60.726 54.4056 63.094 51.3428 64.1954 47.1704C65.9668 40.4671 66.6001 35.0751 64.8195 21.971C62.8645 7.61067 46.1232 7.71154 37.1652 13.5345C28.2071 19.3575 31.8876 35.0292 31.8876 35.0292H31.8693Z" fill="#FFA8A7"/>
<path id="Vector_9" d="M68.4634 8.57351C67.2427 7.91326 65.7742 7.85824 64.4158 8.10583C64.7187 6.04256 63.3235 4.01598 61.4787 3.1815C59.2484 2.17279 57.2383 2.53042 55.2741 4.00681C55.678 2.54876 54.3563 1.06321 52.8694 0.742256C51.3917 0.421303 49.8681 0.925658 48.4546 1.46669C46.3528 2.27366 44.2785 3.16316 42.1399 3.87842C38.3676 5.13473 34.3567 5.85916 30.9515 7.89492C30.1438 8.38094 29.3729 8.94031 28.8222 9.70143C28.0512 10.7652 27.8034 12.1315 27.8584 13.4428C27.8768 13.883 27.9502 14.3048 28.042 14.7266C27.785 14.4515 27.4913 14.2039 27.1517 14.0297C25.5455 13.1952 23.5905 13.8738 22.792 15.5428L28.4734 18.4772C28.3357 19.6235 28.1889 20.7605 28.0787 21.9068C27.7758 24.9329 27.1884 28.4542 27.8676 31.462C27.941 31.8013 28.0053 32.1956 28.2347 32.4707C28.2347 32.4707 29.7033 33.5345 31.1902 35.341C31.6307 35.8728 32.1631 36.7348 32.8698 36.9457C33.5765 37.1567 34.5862 36.7532 34.834 36.0471C34.9808 35.6253 34.9441 35.1576 34.8982 34.7082C34.7146 32.8467 34.5311 30.976 34.3475 29.1145C34.3016 28.6193 34.2557 28.0966 34.4393 27.6289C34.6871 27.0054 35.2929 26.6111 35.8069 26.1801C37.1102 25.0705 37.9363 23.4107 38.0372 21.6959C38.0648 21.1549 38.0372 20.6047 38.1841 20.0911C38.3034 19.6968 38.6154 19.0824 39.0652 19.0824C39.9371 19.0824 44.6915 20.1095 45.8847 20.2745C52.1076 21.1273 58.7894 21.2924 64.2689 18.2388C66.4075 17.0558 70.0054 14.5891 70.3817 11.9481C70.5744 10.5726 69.6841 9.20624 68.4726 8.546L68.4634 8.57351Z" fill="#263238"/>
<path id="Vector_10" d="M49.8313 54.7999C49.8313 54.7999 41.2312 53.2043 38.2115 51.6546C36.1922 50.6184 34.5126 48.7935 34.0078 47.6198C34.0078 47.6198 34.6044 50.1507 36.4309 52.4157C38.6612 55.1851 49.5926 57.0833 49.5926 57.0833L49.8313 54.7999Z" fill="#F28F8F"/>
</g>
<g id="Group_4">
<path id="Vector_11" d="M49.4641 33.4886C49.4733 34.4148 48.7666 35.1668 47.8763 35.1759C46.986 35.1851 46.2517 34.4515 46.2425 33.5253C46.2242 32.5992 46.9401 31.8472 47.8304 31.838C48.7207 31.8289 49.455 32.5716 49.4641 33.4886Z" fill="#263238"/>
<path id="Vector_12" d="M46.3339 27.4914L42.5524 29.3255C42.066 28.2434 42.5157 26.9596 43.5621 26.4461C44.6084 25.9417 45.8475 26.4094 46.3339 27.4914Z" fill="#263238"/>
<path id="Vector_13" d="M46.3703 43.5391L53.199 45.9875C52.5565 47.9407 50.5098 48.9769 48.619 48.3075C46.7375 47.6289 45.7278 45.5015 46.3703 43.5482V43.5391Z" fill="#B16668"/>
<path id="Vector_14" d="M50.6847 48.3901C50.4185 46.4552 48.6379 45.098 46.7013 45.3548C46.5453 45.3731 46.4076 45.419 46.2607 45.4557C46.4994 46.7303 47.353 47.849 48.6196 48.2984C49.308 48.546 50.0239 48.5551 50.6847 48.3809V48.3901Z" fill="#F28F8F"/>
<path id="Vector_15" d="M64.2317 28.7386L60.5879 26.8404C61.0835 25.8408 62.2951 25.4557 63.3047 25.9784C64.3143 26.5011 64.7273 27.739 64.2317 28.7386Z" fill="#263238"/>
<path id="Vector_16" d="M62.3772 33.2227C62.3864 34.1489 61.6797 34.9008 60.7894 34.91C59.8991 34.9192 59.1648 34.1856 59.1556 33.2594C59.1373 32.3332 59.8532 31.5813 60.7435 31.5721C61.6338 31.5629 62.368 32.3057 62.3772 33.2227Z" fill="#263238"/>
<path id="Vector_17" d="M54.1631 32.214L54.4843 42.6312L60.6246 41.2007L54.1631 32.214Z" fill="#F28F8F"/>
</g>
</g>
</g>
</svg>
