<svg width="105" height="64" viewBox="0 0 105 64" fill="none" xmlns="http://www.w3.org/2000/svg">
<g id="Envelope">
<g id="Mail">
<path id="Vector" d="M0.968144 38.8218V39.5004C0.968144 40.5824 1.72997 41.8938 2.65698 42.4348L38.9848 63.3884C39.921 63.9295 41.4355 63.9295 42.3717 63.3884L102.527 28.6889C103.463 28.1478 104.215 26.8365 104.215 25.7544V25.0758C104.215 23.9938 103.454 22.6824 102.517 22.1414L66.1895 1.18776C65.2533 0.646724 63.7388 0.646724 62.8027 1.18776L2.6478 35.8874C1.71161 36.4284 0.958984 37.7397 0.958984 38.8218H0.968144Z" fill="#27DEBF"/>
<path id="Vector_2" d="M0.968144 38.8218V39.5004C0.968144 40.5824 1.72997 41.8938 2.65698 42.4348L38.9848 63.3884C39.921 63.9295 41.4355 63.9295 42.3717 63.3884L102.527 28.6889C103.463 28.1478 104.215 26.8365 104.215 25.7544V25.0758C104.215 23.9938 103.454 22.6824 102.517 22.1414L66.1895 1.18776C65.2533 0.646724 63.7388 0.646724 62.8027 1.18776L2.6478 35.8874C1.71161 36.4284 0.958984 37.7397 0.958984 38.8218H0.968144Z" fill="#27DEBF"/>
<path id="Vector_3" opacity="0.2" d="M40.6831 13.9617L2.66635 35.8965C1.73016 36.4375 0.977539 37.7489 0.977539 38.8309V39.5095C0.977539 40.5916 1.73934 41.9029 2.66635 42.4439L38.9942 63.3976C39.4623 63.6635 40.0773 63.8011 40.6831 63.8011V13.98V13.9617Z" fill="black"/>
<path id="Vector_4" opacity="0.15" d="M40.6831 13.9617L2.66635 35.8965C1.73016 36.4375 0.977539 37.7489 0.977539 38.8309V39.5095C0.977539 40.5916 1.73934 41.9029 2.66635 42.4439L38.9942 63.3976C39.4623 63.6635 40.0773 63.8011 40.6831 63.8011V13.98V13.9617Z" fill="black"/>
<path id="Vector_5" opacity="0.2" d="M102.526 22.1506L66.1984 1.19691C65.2622 0.655879 63.7478 0.655879 62.8116 1.19691L40.6826 13.9617V63.7827C41.2976 63.7827 41.9125 63.6452 42.3806 63.3792L102.535 28.6797C103.472 28.1386 104.224 26.8273 104.224 25.7452V25.0666C104.224 23.9846 103.462 22.6733 102.526 22.1322V22.1506Z" fill="black"/>
<path id="Vector_6" d="M33.1748 55.4471L2.66601 37.8497C1.72982 37.3087 1.72982 36.4375 2.66601 35.8965L62.8209 1.19691C63.7571 0.655879 65.2715 0.655879 66.2077 1.19691L102.536 22.1506C103.472 22.6916 103.472 23.5628 102.536 24.1038L92.5587 29.8626L89.0617 31.88L42.3807 58.8034C41.4445 59.3444 39.9301 59.3444 38.9939 58.8034L36.0385 57.0977L33.184 55.4471H33.1748Z" fill="#27DEBF"/>
<path id="Vector_7" opacity="0.15" d="M60.8662 26.2129L102.527 22.1506L61.2333 24.489L66.1988 1.19696C65.694 0.903515 65.0148 0.78432 64.354 0.81183L56.5615 32.2927L1.96877 36.7952C1.93205 37.1804 2.15233 37.5655 2.65714 37.859L46.7407 35.3005L40.6738 59.2161L48.4295 35.1996L55.9558 34.7595C56.9011 34.7044 57.7731 34.3193 58.4431 33.7232C59.0672 33.1639 59.5261 32.4119 59.7097 31.5408L60.8478 26.2221L60.8662 26.2129Z" fill="black"/>
<path id="Vector_8" opacity="0.3" d="M15.002 35.7131L56.5707 32.2835L58.0576 26.3321L58.8745 23.0217L64.3631 0.802612C63.8032 0.820952 63.2433 0.940148 62.812 1.18774L32.7345 18.5375L2.65713 35.8874C2.22574 36.135 2.00546 36.4559 1.96875 36.7768L10.3027 36.0891L14.9928 35.7039L15.002 35.7131Z" fill="white"/>
</g>
</g>
</svg>
