<svg width="170" height="220" viewBox="0 0 170 220" fill="none" xmlns="http://www.w3.org/2000/svg">
<g id="Front">
<path id="Vector" d="M165.11 126.593C165.064 126.676 165.018 126.749 164.945 126.832L98.7503 105.86C93.5554 103.549 87.4701 105.429 84.4505 110.261L13.6854 215.341L11.0696 216.854H11.0421C10.2527 217.304 9.53684 217.368 9.01367 217.093L81.7887 108.785C84.8084 103.961 90.9028 102.082 96.107 104.374L165.101 126.602L165.11 126.593Z" fill="#27DEBF"/>
<path id="Vector_2" opacity="0.4" d="M77.925 120.578L78.0903 120.431L13.6767 215.341L11.0608 216.854H11.0333C10.244 217.304 9.53723 217.35 9.00488 217.093L75.3735 119.055L77.925 120.578Z" fill="white"/>
<path id="Vector_3" opacity="0.4" d="M165.109 126.593C165.064 126.676 165.018 126.749 164.944 126.832L98.7409 105.851C93.5459 103.54 87.4607 105.42 84.441 110.252L81.8252 108.73C84.854 103.925 90.9209 102.063 96.1159 104.356L165.109 126.593Z" fill="white"/>
<path id="Vector_4" d="M169.084 7.21711H169.074C168.928 6.36429 168.478 6.12587 167.9 6.52935C167.67 6.68524 167.413 6.942 167.138 7.31798L166.807 7.78565L101.485 106.997L91.7285 120.569C90.6363 122.118 88.2316 123.008 86.3592 122.577L77.9426 120.578L13.6759 96.9372C13.2078 96.8272 12.7673 96.818 12.3634 96.8913C12.1982 96.928 12.033 96.9739 11.877 97.0472L14.3 95.6442L75.9142 118.203L84.0279 121.091C85.8819 121.531 88.2866 120.642 89.3972 119.083L99.1538 105.52L164.797 5.84159C165.008 5.54815 165.275 5.32807 165.532 5.16301L159.85 1.88929L162.227 0.522949L166.156 2.78796C167.588 3.62244 168.79 5.49313 169.084 7.21711Z" fill="#27DEBF"/>
<path id="Vector_5" opacity="0.4" d="M101.476 106.988L91.7195 120.559C90.6272 122.109 88.2225 122.999 86.3501 122.568L77.9336 120.569L78.0988 120.422L78.5026 119.78L84.0188 121.091C85.8728 121.531 88.2776 120.642 89.3882 119.083L99.0438 105.658L101.476 106.978V106.988Z" fill="white"/>
<path id="Vector_6" opacity="0.1" d="M166.147 2.78796L162.219 0.522949L159.841 1.88929L165.523 5.16301C165.523 5.16301 165.532 5.16301 165.541 5.17218H165.532C165.248 5.34641 164.991 5.56649 164.798 5.84159L99.1543 105.511L99.0625 105.64L101.495 106.969L166.817 7.75814L167.147 7.29047C167.423 6.92367 167.68 6.65773 167.909 6.50184C168.497 6.09836 168.946 6.33678 169.084 7.1896H169.093C168.8 5.46562 167.597 3.59493 166.165 2.76045L166.147 2.78796Z" fill="black"/>
<path id="Vector_7" d="M14.9704 98.8446L0.955078 90.7566V211.27C0.955078 213.168 2.3043 215.488 3.94722 216.442L7.31567 218.386C8.95859 219.33 11.6478 219.33 13.2908 218.386L14.9704 217.414V98.8446Z" fill="#27DEBF"/>
<path id="Vector_8" opacity="0.15" d="M14.9704 98.8446L0.955078 90.7566V211.27C0.955078 213.168 2.3043 215.488 3.94722 216.442L7.31567 218.386C8.95859 219.33 11.6478 219.33 13.2908 218.386L14.9704 217.414V98.8446Z" fill="black"/>
<path id="Vector_9" d="M169.139 7.96905V125.034C169.139 126.025 168.781 127.107 168.212 128.06C167.735 128.849 167.138 129.546 166.459 130.023L166.34 130.078C166.266 130.124 166.221 130.17 166.147 130.206L13.291 218.367H13.2634C12.4649 218.835 11.749 218.89 11.2258 218.615C10.7577 218.377 10.4365 217.891 10.3355 217.184C10.308 217.019 10.2988 216.836 10.2988 216.653V99.5782C10.2988 97.6891 11.7857 96.497 13.6581 96.9372L77.9248 120.578L86.3414 122.577C88.2138 123.008 90.6185 122.109 91.7107 120.569L101.467 106.997L166.79 7.78565L167.12 7.31798C168.231 5.78657 169.13 6.07084 169.13 7.96905H169.139Z" fill="#27DEBF"/>
<path id="Vector_10" d="M166.147 130.206C166.22 130.17 166.275 130.124 166.339 130.078L166.449 130.005C167.129 129.537 167.725 128.831 168.193 128.051C168.762 127.116 169.111 126.043 169.12 125.08L101.467 106.988L146.771 141.366L166.137 130.197L166.147 130.206Z" fill="#27DEBF"/>
<path id="Vector_11" opacity="0.2" d="M166.147 130.206C166.22 130.17 166.275 130.124 166.339 130.078L166.449 130.005C167.129 129.537 167.725 128.831 168.193 128.051C168.762 127.116 169.111 126.043 169.12 125.08L101.467 106.988L146.771 141.366L166.137 130.197L166.147 130.206Z" fill="black"/>
<path id="Vector_12" d="M10.2988 216.653C10.2988 217.643 10.6568 218.322 11.235 218.615C11.7674 218.89 12.4741 218.835 13.2726 218.386H13.3001L65.9288 188.014L77.9432 120.568L10.308 214.699V216.643L10.2988 216.653Z" fill="#27DEBF"/>
<path id="Vector_13" opacity="0.15" d="M84.4227 110.252L11.2346 218.615C10.6656 218.322 10.3076 217.643 10.3076 216.653V214.709L81.8069 108.776C81.8069 108.767 81.8161 108.748 81.8344 108.739L84.4319 110.252H84.4227Z" fill="black"/>
<path id="Vector_14" d="M168.212 128.06C167.743 128.84 167.138 129.546 166.468 130.014L166.358 130.087L13.2995 218.377H13.272C12.4826 218.835 11.7667 218.89 11.2344 218.615L84.4317 110.225C87.4697 105.383 93.5916 103.503 98.8233 105.814L168.212 128.051V128.06Z" fill="#27DEBF"/>
<path id="Vector_15" opacity="0.15" d="M1.51496 79.9267L3.94722 81.3297C3.59844 82.476 3.38734 83.6406 3.38734 84.5943V92.1596L0.955078 90.7566V83.1821C0.955078 82.2376 1.16618 81.073 1.51496 79.9359V79.9267Z" fill="black"/>
<path id="Vector_16" d="M14.2914 95.6534L11.8683 97.0472L9.40849 95.6351L3.36914 92.1596L5.71879 90.7657L14.2914 95.6534Z" fill="#27DEBF"/>
<path id="Vector_17" opacity="0.1" d="M14.3923 95.6992L5.71879 90.7749L3.36914 92.1688L9.40849 95.6442L11.8591 97.0564L11.8866 97.0381C12.0335 96.9739 12.1895 96.928 12.3456 96.8913C12.7494 96.818 13.19 96.8363 13.6581 96.9372L18.5409 98.7345L74.6481 119.367L75.5293 118.065L14.4015 95.6901L14.3923 95.6992Z" fill="black"/>
</g>
</svg>
