<svg width="90" height="58" viewBox="0 0 90 58" fill="none" xmlns="http://www.w3.org/2000/svg">
<g id="Icon">
<g id="At">
<path id="Vector" d="M89.018 25.5013C89.018 25.162 88.862 24.8869 88.5499 24.6851C88.0084 24.2633 87.3292 24.0708 86.5215 24.0891C85.7046 24.1074 85.0071 24.2817 84.4013 24.6026L80.7024 26.5559C81.0053 26.0056 81.2348 25.4463 81.3725 24.8777C81.4826 24.4284 81.5285 23.9699 81.5193 23.5022C81.5009 22.7319 81.5193 18.4587 81.5193 18.046C81.5193 17.2207 81.3449 16.3771 80.9686 15.5151C80.4087 14.2404 79.3165 13.0024 77.6827 11.8012C76.5538 10.93 75.2046 9.9855 73.6168 8.94928C72.0381 7.91306 70.5971 7.04191 69.2938 6.31747C65.9437 4.51097 62.3182 3.07126 58.4266 1.98919C54.535 0.907122 50.3497 0.384435 45.8798 0.421115C41.41 0.457796 36.6556 1.13638 31.5983 2.45688C26.5502 3.77737 21.2268 5.91398 15.6188 8.88509C10.8369 11.416 7.22063 14.0479 4.77919 16.7805C2.33775 19.5132 0.860037 22.2092 0.34605 24.8594C0.190018 25.6847 0.116586 26.4917 0.125765 27.2986C0.134943 28.1973 0.125765 32.0579 0.125765 32.8282C0.125765 34.653 0.566338 36.432 1.4291 38.1652C2.659 40.6319 4.55891 42.8694 7.11967 44.8685C7.66119 45.2903 8.44135 45.8497 9.46932 46.5558C10.4881 47.2619 11.5895 47.9955 12.7552 48.7566C13.9208 49.5177 15.0589 50.2513 16.1603 50.9391C17.2709 51.6269 18.1612 52.1679 18.8588 52.5622C22.0712 54.277 25.715 55.6158 29.781 56.5787C33.8378 57.5416 38.1241 58.0184 42.6215 58C47.1097 57.9817 51.7539 57.3857 56.5542 56.2302C61.3453 55.0748 66.1364 53.2316 70.9183 50.6915C74.764 48.6557 77.8388 46.73 80.1425 44.9144C82.4463 43.0987 84.2178 41.4022 85.4752 39.8158C86.7326 38.2294 87.5862 36.7163 88.0359 35.2858C88.4857 33.8552 88.8069 32.5164 88.9997 31.2784C89.0088 31.2234 89.018 31.1592 89.018 31.1042C89.018 30.7741 89.018 25.5471 89.018 25.4921V25.5013ZM75.2505 32.0854C74.7549 32.8098 74.0573 33.5985 73.1395 34.4605C72.2217 35.3224 71.0285 36.2578 69.5691 37.2481C68.1006 38.2385 66.2374 39.3389 63.9887 40.5311C60.8038 42.2183 57.5638 43.4838 54.278 44.3275C50.9921 45.1711 47.7705 45.6296 44.604 45.7121C41.4467 45.7947 38.3903 45.5196 35.4624 44.9052C32.5345 44.2908 29.7993 43.3463 27.2753 42.0808C26.5227 41.7232 25.6324 41.2188 24.5952 40.5769C23.5581 39.935 22.5026 39.2564 21.4287 38.5503C20.3548 37.8442 19.336 37.1656 18.3815 36.5054C17.427 35.8451 16.7019 35.2949 16.2154 34.8456C14.3522 33.2317 13.0213 31.526 12.2412 29.7103C12.1494 29.4994 12.076 29.2977 12.0025 29.0868C12.5624 27.5004 13.5996 25.9139 15.1232 24.3367C16.8946 22.5027 19.3728 20.742 22.5668 19.0547C26.3575 17.0465 29.9646 15.5151 33.3881 14.4697C35.2788 13.8919 37.1237 13.461 38.9226 13.1492L37.9772 13.6535C37.3715 13.9745 37.0319 14.3688 36.9585 14.8456C36.885 15.3225 37.1053 15.7168 37.6009 16.0469L38.2159 16.4504C36.628 16.2578 35.0035 16.267 33.3238 16.4779C31.6534 16.6888 29.6892 17.3858 27.4405 18.5779C25.4029 19.6599 23.916 20.852 22.989 22.1542C22.1721 23.3005 21.7591 24.4742 21.7683 25.6847C21.7683 25.8589 21.7683 30.3798 21.7683 31.3151C21.7683 31.4893 21.7683 31.6544 21.7958 31.8287C21.9335 33.2225 22.5576 34.6347 23.6682 36.0836C24.7788 37.5324 26.3942 38.9354 28.496 40.3201C30.607 41.6956 32.8282 42.7869 35.1779 43.5755C37.5275 44.3642 39.9047 44.8502 42.3278 45.0336C44.7417 45.217 47.1097 45.0886 49.4226 44.6484C51.7356 44.2082 53.9109 43.4471 55.9484 42.3742C57.6556 41.4756 58.9681 40.6411 59.8951 39.88C60.8221 39.1189 61.483 38.4128 61.8868 37.7708C62.2907 37.1198 62.511 36.5237 62.5477 35.9552C62.5844 35.3958 62.5936 34.8456 62.5752 34.3137C64.1264 34.4146 65.9895 34.2862 68.1648 33.9194C70.3401 33.5526 72.7999 32.6448 75.5534 31.1867C75.7002 31.1134 75.8287 31.0217 75.9756 30.9483C75.7645 31.3243 75.5259 31.7094 75.2597 32.1037L75.2505 32.0854ZM42.493 26.675C44.7692 26.9593 47.0363 27.8397 49.2758 29.3069C50.0927 29.8387 50.7719 30.3706 51.3226 30.8841C51.0013 31.1134 50.6525 31.3334 50.2487 31.5444C48.3212 32.5622 46.2194 32.9474 43.9432 32.6906C41.6578 32.4339 39.3999 31.5719 37.1512 30.1047C36.3068 29.5545 35.6092 29.0134 35.0585 28.4724C35.3522 28.2615 35.6643 28.0597 36.0314 27.8672C38.0599 26.7943 40.2168 26.3908 42.493 26.675ZM68.073 21.2464C67.1001 21.6682 66.0079 21.9158 64.7872 21.9708C63.337 22.035 62.0612 21.7049 60.969 20.9804L48.5415 12.8557C49.7898 13.0025 51.038 13.2042 52.2587 13.4885C55.2234 14.1946 58.1329 15.2858 60.9782 16.753C62.3366 17.45 63.6858 18.2294 65.035 19.1189C66.1272 19.8342 67.1277 20.5403 68.073 21.2372V21.2464Z" fill="#27DEBF"/>
<path id="Vector_2" opacity="0.2" d="M89.018 25.5013C89.018 25.162 88.862 24.8869 88.5499 24.6851C88.0084 24.2633 87.3292 24.0708 86.5215 24.0891C85.7046 24.1074 85.0071 24.2817 84.4013 24.6026L80.7024 26.5559C81.0053 26.0056 81.2348 25.4463 81.3725 24.8777C81.4826 24.4284 81.5285 23.9699 81.5193 23.5022C81.5009 22.7319 81.5193 18.4587 81.5193 18.046C81.5193 17.2207 81.3449 16.3771 80.9686 15.5151C80.4087 14.2404 79.3165 13.0024 77.6827 11.8012C76.5538 10.93 75.2046 9.9855 73.6168 8.94928C72.0381 7.91306 70.5971 7.04191 69.2938 6.31747C65.9437 4.51097 62.3182 3.07126 58.4266 1.98919C54.535 0.907122 50.3497 0.384435 45.8798 0.421115C41.41 0.457796 36.6556 1.13638 31.5983 2.45688C26.5502 3.77737 21.2268 5.91398 15.6188 8.88509C10.8369 11.416 7.22063 14.0479 4.77919 16.7805C2.33775 19.5132 0.860037 22.2092 0.34605 24.8594C0.190018 25.6847 0.116586 26.4917 0.125765 27.2986C0.134943 28.1973 0.125765 32.0579 0.125765 32.8282C0.125765 34.653 0.566338 36.432 1.4291 38.1652C2.659 40.6319 4.55891 42.8694 7.11967 44.8685C7.66119 45.2903 8.44135 45.8497 9.46932 46.5558C10.4881 47.2619 11.5895 47.9955 12.7552 48.7566C13.9208 49.5177 15.0589 50.2513 16.1603 50.9391C17.2709 51.6269 18.1612 52.1679 18.8588 52.5622C22.0712 54.277 25.715 55.6158 29.781 56.5787C33.8378 57.5416 38.1241 58.0184 42.6215 58C47.1097 57.9817 51.7539 57.3857 56.5542 56.2302C61.3453 55.0748 66.1364 53.2316 70.9183 50.6915C74.764 48.6557 77.8388 46.73 80.1425 44.9144C82.4463 43.0987 84.2178 41.4022 85.4752 39.8158C86.7326 38.2294 87.5862 36.7163 88.0359 35.2858C88.4857 33.8552 88.8069 32.5164 88.9997 31.2784C89.0088 31.2234 89.018 31.1592 89.018 31.1042C89.018 30.7741 89.018 25.5471 89.018 25.4921V25.5013ZM75.2505 32.0854C74.7549 32.8098 74.0573 33.5985 73.1395 34.4605C72.2217 35.3224 71.0285 36.2578 69.5691 37.2481C68.1006 38.2385 66.2374 39.3389 63.9887 40.5311C60.8038 42.2183 57.5638 43.4838 54.278 44.3275C50.9921 45.1711 47.7705 45.6296 44.604 45.7121C41.4467 45.7947 38.3903 45.5196 35.4624 44.9052C32.5345 44.2908 29.7993 43.3463 27.2753 42.0808C26.5227 41.7232 25.6324 41.2188 24.5952 40.5769C23.5581 39.935 22.5026 39.2564 21.4287 38.5503C20.3548 37.8442 19.336 37.1656 18.3815 36.5054C17.427 35.8451 16.7019 35.2949 16.2154 34.8456C14.3522 33.2317 13.0213 31.526 12.2412 29.7103C12.1494 29.4994 12.076 29.2977 12.0025 29.0868C12.5624 27.5004 13.5996 25.9139 15.1232 24.3367C16.8946 22.5027 19.3728 20.742 22.5668 19.0547C26.3575 17.0465 29.9646 15.5151 33.3881 14.4697C35.2788 13.8919 37.1237 13.461 38.9226 13.1492L37.9772 13.6535C37.3715 13.9745 37.0319 14.3688 36.9585 14.8456C36.885 15.3225 37.1053 15.7168 37.6009 16.0469L38.2159 16.4504C36.628 16.2578 35.0035 16.267 33.3238 16.4779C31.6534 16.6888 29.6892 17.3858 27.4405 18.5779C25.4029 19.6599 23.916 20.852 22.989 22.1542C22.1721 23.3005 21.7591 24.4742 21.7683 25.6847C21.7683 25.8589 21.7683 30.3798 21.7683 31.3151C21.7683 31.4893 21.7683 31.6544 21.7958 31.8287C21.9335 33.2225 22.5576 34.6347 23.6682 36.0836C24.7788 37.5324 26.3942 38.9354 28.496 40.3201C30.607 41.6956 32.8282 42.7869 35.1779 43.5755C37.5275 44.3642 39.9047 44.8502 42.3278 45.0336C44.7417 45.217 47.1097 45.0886 49.4226 44.6484C51.7356 44.2082 53.9109 43.4471 55.9484 42.3742C57.6556 41.4756 58.9681 40.6411 59.8951 39.88C60.8221 39.1189 61.483 38.4128 61.8868 37.7708C62.2907 37.1198 62.511 36.5237 62.5477 35.9552C62.5844 35.3958 62.5936 34.8456 62.5752 34.3137C64.1264 34.4146 65.9895 34.2862 68.1648 33.9194C70.3401 33.5526 72.7999 32.6448 75.5534 31.1867C75.7002 31.1134 75.8287 31.0217 75.9756 30.9483C75.7645 31.3243 75.5259 31.7094 75.2597 32.1037L75.2505 32.0854ZM42.493 26.675C44.7692 26.9593 47.0363 27.8397 49.2758 29.3069C50.0927 29.8387 50.7719 30.3706 51.3226 30.8841C51.0013 31.1134 50.6525 31.3334 50.2487 31.5444C48.3212 32.5622 46.2194 32.9474 43.9432 32.6906C41.6578 32.4339 39.3999 31.5719 37.1512 30.1047C36.3068 29.5545 35.6092 29.0134 35.0585 28.4724C35.3522 28.2615 35.6643 28.0597 36.0314 27.8672C38.0599 26.7943 40.2168 26.3908 42.493 26.675ZM68.073 21.2464C67.1001 21.6682 66.0079 21.9158 64.7872 21.9708C63.337 22.035 62.0612 21.7049 60.969 20.9804L48.5415 12.8557C49.7898 13.0025 51.038 13.2042 52.2587 13.4885C55.2234 14.1946 58.1329 15.2858 60.9782 16.753C62.3366 17.45 63.6858 18.2294 65.035 19.1189C66.1272 19.8342 67.1277 20.5403 68.073 21.2372V21.2464Z" fill="black"/>
<path id="Vector_3" opacity="0.1" d="M12.0029 29.096C12.5628 27.5095 13.6 25.9231 15.1236 24.3459C16.895 22.5118 19.3731 20.7512 22.5672 19.0639C26.3579 17.0556 29.9649 15.5242 33.3885 14.4788C35.2792 13.9011 37.124 13.4701 38.923 13.1583L42.2639 11.3885C42.8697 11.0676 43.5764 10.9117 44.3841 10.9208C45.1826 10.9208 45.8435 11.0951 46.3483 11.4252L48.5511 12.8649C49.7993 13.0116 51.0476 13.2134 52.2683 13.4976C55.2329 14.2037 58.1424 15.295 60.9877 16.7622C62.3461 17.4591 63.6953 18.2386 65.0446 19.1281C66.1368 19.8433 67.1372 20.5494 68.0826 21.2464C68.2662 21.173 68.4405 21.0996 68.6149 21.0079C69.7163 20.421 70.3497 19.7241 70.5332 18.8896C70.7076 18.0643 70.1202 17.1382 68.771 16.1203C67.642 15.2491 66.403 14.378 65.0537 13.4976C63.7045 12.6173 62.3461 11.8287 60.9969 11.1318C58.1516 9.65538 55.2421 8.57331 52.2775 7.86721C49.3037 7.16112 46.2748 6.88601 43.1726 7.03273C40.0703 7.18863 36.812 7.78468 33.3976 8.83924C29.9741 9.8938 26.3762 11.416 22.5764 13.4243C19.3915 15.1116 16.9042 16.8722 15.1327 18.7062C13.3613 20.5402 12.2416 22.3743 11.7735 24.2266C11.3145 26.0698 11.4706 27.9038 12.2416 29.7103C12.6271 30.6182 13.1594 31.4985 13.8202 32.3513C13.1594 31.4985 12.6362 30.6182 12.2416 29.7103C12.1498 29.4994 12.0763 29.2977 12.0029 29.0868V29.096Z" fill="black"/>
<path id="Vector_4" opacity="0.1" d="M49.2853 23.6856C47.0458 22.2184 44.7787 21.338 42.5025 21.0538C40.2263 20.7695 38.0693 21.1638 36.0409 22.2459C34.1135 23.2638 33.2599 24.465 33.4802 25.8406C33.6179 26.7025 34.1502 27.5828 35.0772 28.4815C35.3617 28.2706 35.683 28.0689 36.0501 27.8763C38.0785 26.8034 40.2354 26.3999 42.5117 26.6842C44.7879 26.9685 47.0549 27.8488 49.2945 29.316C50.1113 29.8479 50.7905 30.3797 51.3412 30.8933C51.1852 31.0033 51.0292 31.1133 50.8548 31.2142C52.4702 30.2238 53.2044 29.1326 53.0301 27.9405C52.8281 26.6108 51.589 25.1895 49.3036 23.6947L49.2853 23.6856Z" fill="black"/>
<path id="Vector_5" opacity="0.1" d="M42.3368 39.394C39.9137 39.2106 37.5366 38.7245 35.1869 37.9359C32.8372 37.1473 30.6069 36.0652 28.5051 34.6806C26.4032 33.305 24.7878 31.8929 23.6773 30.444C22.5667 29.0043 21.9426 27.5829 21.8049 26.189C21.7773 25.9139 21.7865 25.648 21.8049 25.3729C21.8049 25.4738 21.7773 25.5655 21.7773 25.6664C21.7773 25.8406 21.7773 30.3614 21.7773 31.2968C21.7773 31.471 21.7773 31.6361 21.8049 31.8103C21.9426 33.2042 22.5667 34.6164 23.6773 36.0652C24.7878 37.5141 26.4032 38.9171 28.5051 40.3018C30.6161 41.6773 32.8372 42.7686 35.1869 43.5572C37.5366 44.3458 39.9137 44.8318 42.3368 45.0152V39.394Z" fill="black"/>
<path id="Vector_6" opacity="0.1" d="M62.5754 28.6741C62.5937 29.206 62.5846 29.7562 62.5479 30.3155L62.5754 34.2954C64.1265 34.3962 65.9897 34.2679 68.165 33.9011V28.2798C65.9897 28.6466 64.1265 28.775 62.5754 28.6741Z" fill="black"/>
<path id="Vector_7" opacity="0.1" d="M29.7906 50.9574C25.7246 49.9946 22.09 48.6557 18.8684 46.9409C18.1708 46.5466 17.2713 46.0056 16.1699 45.3178C15.0685 44.6301 13.9304 43.9056 12.7648 43.1353C11.5991 42.3742 10.4977 41.6406 9.4789 40.9345C8.45093 40.2284 7.66159 39.6691 7.12925 39.2472C4.56849 37.2482 2.66858 35.0107 1.43868 32.5439C0.566738 30.8016 0.144531 29.0042 0.144531 27.1702C0.144531 27.2161 0.144531 27.2528 0.144531 27.2986C0.15371 28.1973 0.144531 32.0579 0.144531 32.8282C0.144531 34.653 0.58509 36.432 1.44785 38.1651C2.67775 40.6319 4.57768 42.8694 7.13844 44.8685C7.67996 45.2903 8.46012 45.8497 9.48809 46.5558C10.5161 47.2619 11.6083 47.9955 12.7739 48.7566C13.9396 49.5177 15.0777 50.2513 16.1791 50.9391C17.2897 51.6269 18.1892 52.1679 18.8775 52.5622C22.09 54.277 25.7337 55.6158 29.7998 56.5787C33.8566 57.5415 38.1429 58.0184 42.6311 58V52.3788C38.1337 52.3971 33.8566 51.9295 29.7906 50.9574Z" fill="black"/>
<path id="Vector_8" d="M77.6925 11.8103C79.3262 13.0116 80.4184 14.2404 80.9783 15.5242C81.5382 16.7989 81.6667 18.046 81.3821 19.2564C81.0884 20.4669 80.4368 21.6132 79.4088 22.7044C78.3808 23.7865 77.0959 24.7402 75.5631 25.5563C72.8188 27.0143 70.3498 27.9222 68.1745 28.289C65.9993 28.6558 64.1361 28.7842 62.5849 28.6833C62.6033 29.2152 62.5941 29.7654 62.5574 30.3247C62.5207 30.8841 62.3004 31.4894 61.8965 32.1404C61.4927 32.7915 60.8318 33.4884 59.9048 34.2495C58.9778 35.0107 57.6653 35.8451 55.9582 36.7438C53.9206 37.8167 51.7545 38.5778 49.4323 39.018C47.1194 39.4582 44.7514 39.5865 42.3375 39.4031C39.9144 39.2197 37.5372 38.7337 35.1876 37.9451C32.8379 37.1565 30.6076 36.0744 28.5057 34.6897C26.4039 33.3142 24.7885 31.902 23.6779 30.4531C22.5673 29.0134 21.9432 27.5921 21.8055 26.1982C21.6679 24.8044 22.0625 23.4563 22.9987 22.145C23.9349 20.8337 25.4218 19.6416 27.4502 18.5687C29.6989 17.3766 31.6631 16.6797 33.3335 16.4688C35.004 16.267 36.6377 16.2487 38.2256 16.4413L37.6106 16.0378C37.1058 15.7076 36.8947 15.3133 36.9682 14.8365C37.0416 14.3596 37.3812 13.9653 37.9869 13.6444L42.2732 11.3702C42.879 11.0492 43.5857 10.8933 44.3934 10.9025C45.192 10.9025 45.8528 11.0767 46.3576 11.4069L60.9879 20.9804C62.0893 21.6957 63.3651 22.0258 64.8061 21.9708C66.2562 21.9066 67.5229 21.5857 68.6243 21.0079C69.7257 20.421 70.359 19.7241 70.5425 18.8896C70.7169 18.0643 70.1295 17.1382 68.7803 16.1203C67.6514 15.2491 66.4123 14.378 65.0631 13.4976C63.7138 12.6173 62.3646 11.8287 61.0062 11.1318C58.161 9.65538 55.2514 8.57332 52.2868 7.86722C49.313 7.16112 46.2842 6.88602 43.1819 7.03274C40.0796 7.18863 36.8213 7.78469 33.3978 8.83925C29.9743 9.89381 26.3764 11.416 22.5765 13.4243C19.3916 15.1116 16.9043 16.8722 15.1329 18.7062C13.3615 20.5403 12.2417 22.3743 11.7736 24.2266C11.3147 26.0698 11.4707 27.9038 12.2417 29.7103C13.0219 31.526 14.3436 33.2317 16.2159 34.8456C16.7024 35.2949 17.4183 35.8451 18.382 36.5054C19.3366 37.1656 20.3554 37.8442 21.4292 38.5503C22.5031 39.2564 23.5678 39.9258 24.5957 40.5769C25.6329 41.2188 26.5232 41.7232 27.2758 42.0808C29.7999 43.3463 32.535 44.2816 35.4629 44.9052C38.4 45.5196 41.4472 45.7947 44.6045 45.7121C47.7711 45.6388 50.9927 45.1711 54.2785 44.3275C57.5643 43.4838 60.8043 42.2183 63.9892 40.5311C66.2471 39.3389 68.1011 38.2477 69.5696 37.2481C71.029 36.2578 72.2222 35.3224 73.14 34.4605C74.0578 33.5985 74.7554 32.8007 75.251 32.0854C75.7375 31.361 76.1413 30.6824 76.4442 30.0313C76.6828 29.4719 76.9031 29.0501 77.0959 28.7475C77.2886 28.454 77.6925 28.1423 78.2982 27.8213L84.4018 24.5934C85.0076 24.2725 85.7143 24.0983 86.522 24.0799C87.3297 24.0524 88.0089 24.2541 88.5504 24.676C88.9176 24.9144 89.0736 25.2445 89.0093 25.6572C88.8166 26.8951 88.4954 28.234 88.0456 29.6645C87.5959 31.095 86.7423 32.5989 85.4849 34.1945C84.2274 35.7809 82.456 37.4774 80.1523 39.2931C77.8485 41.1088 74.7738 43.0345 70.928 45.0702C66.1461 47.6012 61.355 49.4444 56.5639 50.609C51.7637 51.7644 47.1194 52.3604 42.6312 52.3788C38.1338 52.3971 33.8567 51.9295 29.7907 50.9574C25.7247 49.9946 22.0901 48.6557 18.8685 46.9409C18.1709 46.5466 17.2714 46.0056 16.17 45.3178C15.0686 44.6301 13.9305 43.9056 12.7649 43.1354C11.5992 42.3742 10.4978 41.6406 9.47902 40.9345C8.45104 40.2284 7.66171 39.6691 7.12937 39.2472C4.56861 37.2482 2.66869 35.0107 1.4388 32.5439C0.208899 30.0772 -0.149055 27.5187 0.364932 24.8594C0.878919 22.2001 2.35663 19.5041 4.79807 16.7805C7.23951 14.0479 10.8558 11.416 15.6377 8.88509C21.2457 5.91398 26.5691 3.7682 31.6172 2.45688C36.6653 1.13638 41.4288 0.457796 45.8987 0.421115C50.3685 0.384435 54.5539 0.907122 58.4455 1.98919C62.3371 3.07126 65.9625 4.51097 69.3126 6.31747C70.616 7.04191 72.0569 7.91306 73.6356 8.94928C75.2143 9.9855 76.5727 10.93 77.7017 11.8012L77.6925 11.8103ZM37.1609 30.1047C39.4004 31.5719 41.6675 32.4339 43.9529 32.6906C46.2291 32.9474 48.3309 32.5622 50.2584 31.5444C52.2868 30.4715 53.2138 29.261 53.0211 27.9314C52.8191 26.6017 51.5801 25.1803 49.2947 23.6856C47.0552 22.2184 44.7881 21.3381 42.5119 21.0538C40.2356 20.7695 38.0787 21.1638 36.0503 22.2459C34.1229 23.2638 33.2693 24.4651 33.4896 25.8406C33.7007 27.2161 34.9306 28.6375 37.1793 30.1047H37.1609Z" fill="#27DEBF"/>
</g>
</g>
</svg>
