<svg width="137" height="103" viewBox="0 0 137 103" fill="none" xmlns="http://www.w3.org/2000/svg">
<g id="_Layer_" clip-path="url(#clip0_40_2514)">
<path id="Vector" d="M96.3462 23.5114C98.3771 16.2637 101.659 8.18126 107.714 3.28898C108.937 2.30073 110.623 1.05029 111.673 0.0202637C108.81 0.0958952 105.46 0.405624 102.6 0.582818C95.7003 1.01068 66.8613 2.79918 59.342 3.26522C54.4608 3.56774 49.5796 3.87027 44.6977 4.17351C38.9986 4.52718 34.4257 10.8406 31.903 15.3994C29.0577 20.5416 27.4226 26.2889 26.3308 32.0405C24.8511 39.837 23.1901 77.7118 22.8023 81.2189C22.1163 87.4258 19.6854 97.3587 11.8428 97.4257C14.9906 97.4257 74.2178 97.8514 78.8295 97.8471C84.2089 97.842 87.3767 93.5634 89.1718 88.9528C91.3719 83.3021 91.9511 58.8673 92.2464 52.5337C92.5425 46.1864 95.4301 26.7801 96.3462 23.5107V23.5114Z" fill="url(#paint0_radial_40_2514)"/>
<g id="Group">
<path id="Vector_2" d="M96.3462 23.5114C98.3771 16.2637 101.659 8.18126 107.714 3.28898C108.937 2.30073 110.623 1.05029 111.673 0.0202637C108.81 0.0958952 105.46 0.405624 102.6 0.582818C95.7003 1.01068 66.8613 2.79918 59.342 3.26522C54.4608 3.56774 49.5796 3.87027 44.6977 4.17351C38.9986 4.52718 34.4257 10.8406 31.903 15.3994C29.0577 20.5416 27.4226 26.2889 26.3308 32.0405C24.8511 39.837 23.1901 77.7118 22.8023 81.2189C22.1163 87.4258 19.6854 97.3587 11.8428 97.4257C14.9906 97.4257 74.2178 97.8514 78.8295 97.8471C84.2089 97.842 87.3767 93.5634 89.1718 88.9528C91.3719 83.3021 91.9511 58.8673 92.2464 52.5337C92.5425 46.1864 95.4301 26.7801 96.3462 23.5107V23.5114Z" fill="url(#paint1_linear_40_2514)"/>
</g>
<path id="Vector_3" d="M77.2308 102.206C74.1669 101.503 72.1052 99.6441 70.4292 97.0302C69.1868 95.0933 68.1172 93.0109 67.7215 90.7268C67.3215 88.4175 67.8534 86.7162 70.065 85.4614C67.8283 85.465 3.98299 86.0319 3.02524 86.0405C1.04524 86.0578 0.0401886 88.0531 0.00147749 89.7818C-0.0379505 91.5213 0.52121 93.2788 1.18575 94.8649C2.13561 97.1303 3.62025 99.2552 5.5938 100.734C7.33508 102.039 9.61402 102.817 11.8198 102.823C11.8198 102.823 79.2804 103 79.2875 103C78.4517 102.778 77.9606 102.373 77.2301 102.206H77.2308Z" fill="url(#paint2_linear_40_2514)"/>
<g id="Clip path group">
<mask id="mask0_40_2514" style="mask-type:luminance" maskUnits="userSpaceOnUse" x="11" y="0" width="101" height="98">
<g id="clippath">
<path id="Vector_4" d="M96.3462 23.5114C98.3771 16.2637 101.659 8.18126 107.714 3.28898C108.937 2.30073 110.623 1.05029 111.673 0.0202637C108.81 0.0958952 105.46 0.405624 102.6 0.582818C95.7003 1.01068 66.8613 2.79918 59.342 3.26522C54.4608 3.56774 49.5796 3.87027 44.6977 4.17351C38.9986 4.52718 34.4257 10.8406 31.903 15.3994C29.0577 20.5416 27.4226 26.2889 26.3308 32.0405C24.8511 39.837 23.1901 77.7118 22.8023 81.2189C22.1163 87.4258 19.6854 97.3587 11.8428 97.4257C14.9906 97.4257 74.2178 97.8514 78.8295 97.8471C84.2089 97.842 87.3767 93.5634 89.1718 88.9528C91.3719 83.3021 91.9511 58.8673 92.2464 52.5337C92.5425 46.1864 95.4301 26.7801 96.3462 23.5107V23.5114Z" fill="white"/>
</g>
</mask>
<g mask="url(#mask0_40_2514)">
<g id="Group_2">
<g id="Group_3">
<path id="Vector_5" d="M94.885 101.222C109.363 95.7191 116.545 79.1605 110.926 64.2371C105.308 49.3137 89.0174 41.6766 74.5398 47.1792C60.0621 52.6818 52.8801 69.2404 58.4983 84.1638C64.1165 99.0872 80.4073 106.724 94.885 101.222Z" fill="url(#paint3_radial_40_2514)"/>
</g>
</g>
</g>
</g>
<path id="Vector_6" d="M114.459 1.81077C113.91 0.491185 112.441 -0.421435 111.045 0.198743C108.559 1.30656 106.337 3.12604 104.371 5.47278C99.9133 10.7915 97.3046 17.7834 95.5368 24.4224C93.9669 30.3188 93.0493 36.4666 92.5023 42.5416C92.1023 46.9829 91.8829 51.4459 91.7245 55.9017C91.5023 62.1705 91.399 68.4472 91.075 74.7116C90.8277 79.503 90.3861 84.7511 88.5595 89.2307C86.4225 94.4723 78.1534 101.812 74.0013 93.8212C72.9267 91.7532 73.0278 89.4136 72.2507 87.2736C72.0134 86.6218 71.6026 85.9079 70.9481 85.609C69.1567 84.7908 67.4828 86.8623 67.2369 88.411C66.6705 91.9837 68.7939 96.5331 71.113 99.1802C72.6887 100.979 75.0063 102.382 77.3512 102.819C79.3613 103.194 81.7026 102.912 83.6081 102.174C88.1021 100.433 91.2944 96.3501 93.1604 92.0233C94.6658 88.5327 95.4479 84.6352 95.8802 80.868C96.8179 72.6962 96.7025 64.4207 96.9928 56.2093C97.1469 51.8601 97.3584 47.5073 97.7462 43.1726C98.2502 37.5384 99.0495 31.8912 100.353 26.3852C101.69 20.7424 103.713 14.563 107.455 10.0409C109.112 8.03849 111.038 6.47544 113.288 5.4699C114.753 4.81515 115.009 3.13757 114.457 1.81077H114.459Z" fill="url(#paint4_linear_40_2514)"/>
<path id="Vector_7" d="M58.7254 21.6214C56.9418 21.6214 55.4779 20.1872 55.4414 18.3872C55.4041 16.5641 56.845 15.0558 58.6594 15.0191L79.5942 14.6842C81.4079 14.651 82.9098 16.0945 82.9463 17.9176C82.9836 19.7407 81.5427 21.249 79.7283 21.2857L58.7935 21.6206C58.7705 21.6206 58.7476 21.6206 58.7254 21.6206V21.6214Z" fill="url(#paint5_linear_40_2514)"/>
<path id="Vector_8" d="M51.2129 19.1526C51.7633 16.7441 50.2662 14.3433 47.8691 13.7904C45.472 13.2374 43.0827 14.7416 42.5323 17.1502C41.982 19.5587 43.4791 21.9595 45.8762 22.5124C48.2733 23.0654 50.6626 21.5612 51.2129 19.1526Z" fill="url(#paint6_radial_40_2514)"/>
<path id="Vector_9" d="M46.4795 33.9664C46.6934 31.5045 44.8806 29.3346 42.4305 29.1196C39.9804 28.9047 37.8208 30.7261 37.6068 33.188C37.3929 35.6498 39.2057 37.8198 41.6558 38.0347C44.1059 38.2497 46.2656 36.4282 46.4795 33.9664Z" fill="url(#paint7_radial_40_2514)"/>
<path id="Vector_10" d="M44.6168 49.5309C44.9126 47.0776 43.1732 44.8479 40.7317 44.5506C38.2901 44.2533 36.0709 46.001 35.775 48.4542C35.4791 50.9075 37.2185 53.1373 39.6601 53.4346C42.1017 53.7319 44.3209 51.9841 44.6168 49.5309Z" fill="url(#paint8_radial_40_2514)"/>
<path id="Vector_11" d="M39.7384 68.8931C42.1978 68.8931 44.1916 66.8898 44.1916 64.4186C44.1916 61.9474 42.1978 59.9441 39.7384 59.9441C37.2789 59.9441 35.2852 61.9474 35.2852 64.4186C35.2852 66.8898 37.2789 68.8931 39.7384 68.8931Z" fill="url(#paint9_radial_40_2514)"/>
<path id="Vector_12" d="M53.8916 37.0436C52.1081 37.0436 50.6442 35.6094 50.6076 33.8094C50.5704 31.9863 52.0113 30.4787 53.8257 30.4413L74.7591 30.1063C76.5749 30.0646 78.0739 31.5167 78.1112 33.3398C78.1484 35.1629 76.7075 36.6704 74.8931 36.7079L53.9597 37.0428C53.9368 37.0428 53.9139 37.0428 53.8916 37.0428V37.0436Z" fill="url(#paint10_linear_40_2514)"/>
<path id="Vector_13" d="M52.0506 52.466C50.267 52.466 48.8031 51.0318 48.7666 49.2318C48.7293 47.4087 50.1702 45.9004 51.9846 45.8637L72.9187 45.5288C74.7346 45.492 76.2335 46.9391 76.2708 48.7622C76.3081 50.5853 74.8672 52.0936 73.0528 52.1303L52.1187 52.4652C52.0957 52.4652 52.0728 52.4652 52.0506 52.4652V52.466Z" fill="url(#paint11_linear_40_2514)"/>
<path id="Vector_14" d="M51.5904 67.8874C49.8068 67.8874 48.3429 66.4533 48.3064 64.6533C48.2691 62.8302 49.71 61.3226 51.5244 61.2852L67.8548 60.9502C69.6706 60.9056 71.1696 62.3606 71.2069 64.1836C71.2441 66.0067 69.8032 67.5143 67.9888 67.5518L51.6585 67.8867C51.6355 67.8867 51.6126 67.8867 51.5904 67.8867V67.8874Z" fill="url(#paint12_linear_40_2514)"/>
<g id="Group_4">
<path id="Vector_15" d="M53.2529 76.2811L49.9482 76.4309C48.7668 76.485 48.0169 75.0076 48.7524 74.077L50.7883 71.5041C51.3776 70.7593 52.5353 70.9278 53.0063 71.8275L54.2752 74.2506C54.7541 75.1646 54.2135 76.2372 53.2522 76.2811H53.2529Z" fill="url(#paint13_linear_40_2514)"/>
<path id="Vector_16" d="M111.81 42.0496L108.942 37.0947C107.664 34.8862 104.846 34.1379 102.648 35.4222L70.7024 54.0923L60.839 59.8569L53.1914 64.3263C52.1548 64.9321 51.3942 65.9204 51.0716 67.0808L49.9805 71.0086C49.2801 73.5289 50.7978 76.1306 53.3283 76.7479L57.3621 77.7318C58.517 78.0135 59.7357 77.8356 60.763 77.2356L110.145 48.3753C112.343 47.091 113.089 44.2595 111.81 42.0511V42.0496Z" fill="url(#paint14_linear_40_2514)"/>
<g id="Group_5">
<path id="Vector_17" d="M111.81 42.0496L108.942 37.0947C107.664 34.8862 104.846 34.1379 102.648 35.4222L70.7024 54.0923L60.839 59.8569L53.1914 64.3263C52.1548 64.9321 51.3942 65.9204 51.0716 67.0808L49.9805 71.0086C49.2801 73.5289 50.7978 76.1306 53.3283 76.7479L57.3621 77.7318C58.517 78.0135 59.7357 77.8356 60.763 77.2356L110.145 48.3753C112.343 47.091 113.089 44.2595 111.81 42.0511V42.0496Z" fill="url(#paint15_linear_40_2514)"/>
</g>
<path id="Vector_18" d="M133.815 36.5272C133.815 36.5272 102.64 54.7472 102.587 54.7774C98.8273 56.9751 94.3396 53.3916 92.6285 50.8115C90.7431 47.9692 89.3086 41.7134 93.5353 39.2427C93.5353 39.2427 124.79 20.9767 124.807 20.9658C129.316 18.331 134.631 22.2912 136.188 25.7832C137.511 28.753 137.536 34.3519 133.815 36.5265V36.5272Z" fill="url(#paint16_linear_40_2514)"/>
<g id="Group_6">
<path id="Vector_19" d="M133.815 36.5272C133.815 36.5272 102.64 54.7472 102.587 54.7774C98.8273 56.9751 94.3396 53.3916 92.6285 50.8115C90.7431 47.9692 89.3086 41.7134 93.5353 39.2427C93.5353 39.2427 124.79 20.9767 124.807 20.9658C129.316 18.331 134.631 22.2912 136.188 25.7832C137.511 28.753 137.536 34.3519 133.815 36.5265V36.5272Z" fill="url(#paint17_radial_40_2514)"/>
</g>
<path id="Vector_20" d="M94.6221 34.2279C101.943 27.8281 110.443 22.4611 119.803 18.4102C122.117 17.5191 124.811 18.2344 125.762 19.9113C125.959 20.2469 126.156 20.5826 126.353 20.919C127.308 22.6009 126.215 24.6832 123.971 25.6643C114.66 29.6951 106.193 34.9814 98.881 41.2458C97.119 42.7642 94.7791 42.4516 93.5661 40.4773C92.3553 38.5051 92.789 35.6743 94.6221 34.2272V34.2279Z" fill="url(#paint18_radial_40_2514)"/>
</g>
</g>
<defs>
<radialGradient id="paint0_radial_40_2514" cx="0" cy="0" r="1" gradientUnits="userSpaceOnUse" gradientTransform="translate(-144.752 45.2321) scale(269.256 270.543)">
<stop offset="0.63" stop-color="#C0D9DA"/>
<stop offset="0.65" stop-color="#D7E7E9"/>
<stop offset="0.67" stop-color="#E6F0F3"/>
<stop offset="0.7" stop-color="#F0F6F9"/>
<stop offset="0.73" stop-color="#F3F8FB"/>
<stop offset="0.82" stop-color="#F3F8FB"/>
<stop offset="0.85" stop-color="#EAF2F5"/>
<stop offset="0.89" stop-color="#D1E3E5"/>
<stop offset="0.92" stop-color="#BED8D9"/>
<stop offset="0.95" stop-color="#B9D2D3"/>
<stop offset="0.99" stop-color="#ABC1C3"/>
<stop offset="1" stop-color="#A6BBBE"/>
</radialGradient>
<linearGradient id="paint1_linear_40_2514" x1="61.7579" y1="0.0202637" x2="61.7579" y2="97.8478" gradientUnits="userSpaceOnUse">
<stop stop-color="#BED8D9"/>
<stop offset="0.21" stop-color="#F3F8FB"/>
<stop offset="0.82" stop-color="#BED8D9"/>
<stop offset="0.91" stop-color="#B2C9CB"/>
<stop offset="0.99" stop-color="#A6BBBE"/>
</linearGradient>
<linearGradient id="paint2_linear_40_2514" x1="39.6445" y1="81.718" x2="39.6445" y2="107.966" gradientUnits="userSpaceOnUse">
<stop stop-color="#BED8D9"/>
<stop offset="0.03" stop-color="#C2DADB"/>
<stop offset="0.17" stop-color="#D5E6E9"/>
<stop offset="0.27" stop-color="#DDEBEE"/>
<stop offset="0.4" stop-color="#D4E5E8"/>
<stop offset="0.58" stop-color="#BED8D9"/>
<stop offset="0.7" stop-color="#AECBD0"/>
<stop offset="0.91" stop-color="#84ACBA"/>
<stop offset="1" stop-color="#729EB1"/>
</linearGradient>
<radialGradient id="paint3_radial_40_2514" cx="0" cy="0" r="1" gradientUnits="userSpaceOnUse" gradientTransform="translate(84.5085 73.9127) rotate(-20.8106) scale(28.0267 28.7384)">
<stop offset="0.28" stop-color="#729EB1"/>
<stop offset="1" stop-color="#ABC0C3"/>
</radialGradient>
<linearGradient id="paint4_linear_40_2514" x1="131.122" y1="4.40674" x2="58.4883" y2="103.946" gradientUnits="userSpaceOnUse">
<stop stop-color="#E3ECF1"/>
<stop offset="0.04" stop-color="#D5E4E7"/>
<stop offset="0.09" stop-color="#C7DDDF"/>
<stop offset="0.16" stop-color="#C0D9DA"/>
<stop offset="0.3" stop-color="#BED8D9"/>
<stop offset="0.4" stop-color="#AAC9CE"/>
<stop offset="0.59" stop-color="#78A3B4"/>
<stop offset="0.61" stop-color="#729EB1"/>
<stop offset="0.68" stop-color="#93B7C2"/>
<stop offset="0.77" stop-color="#BED8D9"/>
<stop offset="0.87" stop-color="#C0D9DA"/>
<stop offset="0.93" stop-color="#C8DDDF"/>
<stop offset="0.97" stop-color="#D6E5E8"/>
<stop offset="1" stop-color="#E3ECF1"/>
</linearGradient>
<linearGradient id="paint5_linear_40_2514" x1="69.1939" y1="12.704" x2="69.1939" y2="25.2899" gradientUnits="userSpaceOnUse">
<stop offset="0.14" stop-color="#A6BBBE"/>
<stop offset="0.16" stop-color="#A8BEC1"/>
<stop offset="0.28" stop-color="#B8D1D2"/>
<stop offset="0.36" stop-color="#BED8D9"/>
<stop offset="0.47" stop-color="#BAD3D4"/>
<stop offset="0.6" stop-color="#AFC5C8"/>
<stop offset="0.68" stop-color="#A6BBBE"/>
<stop offset="0.74" stop-color="#9BAFB2"/>
<stop offset="0.85" stop-color="#809093"/>
<stop offset="0.9" stop-color="#717F82"/>
</linearGradient>
<radialGradient id="paint6_radial_40_2514" cx="0" cy="0" r="1" gradientUnits="userSpaceOnUse" gradientTransform="translate(46.177 17.3837) scale(5.55791 5.58448)">
<stop stop-color="#67BF67"/>
<stop offset="1" stop-color="#48A153"/>
</radialGradient>
<radialGradient id="paint7_radial_40_2514" cx="0" cy="0" r="1" gradientUnits="userSpaceOnUse" gradientTransform="translate(41.093 32.7241) scale(5.99592 6.02459)">
<stop stop-color="#67BF67"/>
<stop offset="1" stop-color="#48A153"/>
</radialGradient>
<radialGradient id="paint8_radial_40_2514" cx="0" cy="0" r="1" gradientUnits="userSpaceOnUse" gradientTransform="translate(39.241 48.1455) scale(5.99592 6.02459)">
<stop stop-color="#67BF67"/>
<stop offset="1" stop-color="#48A153"/>
</radialGradient>
<radialGradient id="paint9_radial_40_2514" cx="0" cy="0" r="1" gradientUnits="userSpaceOnUse" gradientTransform="translate(38.7864 63.5686) scale(5.99592 6.02459)">
<stop stop-color="#67BF67"/>
<stop offset="1" stop-color="#48A153"/>
</radialGradient>
<linearGradient id="paint10_linear_40_2514" x1="64.3601" y1="26.7411" x2="64.3601" y2="40.6832" gradientUnits="userSpaceOnUse">
<stop offset="0.14" stop-color="#A6BBBE"/>
<stop offset="0.16" stop-color="#A8BEC1"/>
<stop offset="0.28" stop-color="#B8D1D2"/>
<stop offset="0.36" stop-color="#BED8D9"/>
<stop offset="0.47" stop-color="#BAD3D4"/>
<stop offset="0.6" stop-color="#AFC5C8"/>
<stop offset="0.68" stop-color="#A6BBBE"/>
<stop offset="0.74" stop-color="#9BAFB2"/>
<stop offset="0.85" stop-color="#809093"/>
<stop offset="0.9" stop-color="#717F82"/>
</linearGradient>
<linearGradient id="paint11_linear_40_2514" x1="62.519" y1="43.1021" x2="62.519" y2="55.3097" gradientUnits="userSpaceOnUse">
<stop offset="0.14" stop-color="#A6BBBE"/>
<stop offset="0.16" stop-color="#A8BEC1"/>
<stop offset="0.28" stop-color="#B8D1D2"/>
<stop offset="0.36" stop-color="#BED8D9"/>
<stop offset="0.47" stop-color="#BAD3D4"/>
<stop offset="0.6" stop-color="#AFC5C8"/>
<stop offset="0.68" stop-color="#A6BBBE"/>
<stop offset="0.74" stop-color="#9BAFB2"/>
<stop offset="0.85" stop-color="#809093"/>
<stop offset="0.9" stop-color="#717F82"/>
</linearGradient>
<linearGradient id="paint12_linear_40_2514" x1="59.757" y1="57.7197" x2="59.757" y2="71.7108" gradientUnits="userSpaceOnUse">
<stop offset="0.14" stop-color="#A6BBBE"/>
<stop offset="0.16" stop-color="#A8BEC1"/>
<stop offset="0.28" stop-color="#B8D1D2"/>
<stop offset="0.36" stop-color="#BED8D9"/>
<stop offset="0.47" stop-color="#BAD3D4"/>
<stop offset="0.6" stop-color="#AFC5C8"/>
<stop offset="0.68" stop-color="#A6BBBE"/>
<stop offset="0.74" stop-color="#9BAFB2"/>
<stop offset="0.85" stop-color="#809093"/>
<stop offset="0.9" stop-color="#717F82"/>
</linearGradient>
<linearGradient id="paint13_linear_40_2514" x1="50.1964" y1="72.7514" x2="52.3319" y2="76.1356" gradientUnits="userSpaceOnUse">
<stop stop-color="#E8C7FC"/>
<stop offset="0.32" stop-color="#CF8AFF"/>
<stop offset="1" stop-color="#9A6CF0"/>
</linearGradient>
<linearGradient id="paint14_linear_40_2514" x1="75.9677" y1="49.565" x2="85.5398" y2="65.6036" gradientUnits="userSpaceOnUse">
<stop stop-color="#8856ED"/>
<stop offset="0.1" stop-color="#8D5CED"/>
<stop offset="0.39" stop-color="#9A6CF0"/>
<stop offset="0.49" stop-color="#9262EE"/>
<stop offset="0.68" stop-color="#7D48EA"/>
<stop offset="0.88" stop-color="#6125E5"/>
</linearGradient>
<linearGradient id="paint15_linear_40_2514" x1="46.4741" y1="76.7949" x2="97.4947" y2="47.4488" gradientUnits="userSpaceOnUse">
<stop offset="0.08" stop-color="#CF8AFF"/>
<stop offset="0.09" stop-color="#C484FC"/>
<stop offset="0.12" stop-color="#AD76F5"/>
<stop offset="0.14" stop-color="#9E6EF1"/>
<stop offset="0.17" stop-color="#9A6CF0"/>
<stop offset="0.55" stop-color="#9667EF"/>
<stop offset="0.66" stop-color="#9262EE"/>
<stop offset="0.77" stop-color="#8855EC"/>
<stop offset="0.89" stop-color="#7740E9"/>
<stop offset="1" stop-color="#6125E5"/>
</linearGradient>
<linearGradient id="paint16_linear_40_2514" x1="108.915" y1="29.1677" x2="121.127" y2="49.2275" gradientUnits="userSpaceOnUse">
<stop offset="0.04" stop-color="#6125E5"/>
<stop offset="0.06" stop-color="#682EE6"/>
<stop offset="0.13" stop-color="#7E49EA"/>
<stop offset="0.2" stop-color="#8D5CED"/>
<stop offset="0.27" stop-color="#9668EF"/>
<stop offset="0.35" stop-color="#9A6CF0"/>
<stop offset="0.52" stop-color="#8856EC"/>
<stop offset="0.85" stop-color="#6125E5"/>
</linearGradient>
<radialGradient id="paint17_radial_40_2514" cx="0" cy="0" r="1" gradientUnits="userSpaceOnUse" gradientTransform="translate(135.637 23.8157) rotate(-38.9736) scale(53.7354 53.7896)">
<stop stop-color="#6125E5"/>
<stop offset="0.05" stop-color="#6429E5"/>
<stop offset="0.1" stop-color="#6E35E7"/>
<stop offset="0.16" stop-color="#7F4AEA"/>
<stop offset="0.21" stop-color="#9668EF"/>
<stop offset="0.22" stop-color="#9A6CF0"/>
<stop offset="0.85" stop-color="#9667EF"/>
<stop offset="0.87" stop-color="#A470F3"/>
<stop offset="0.93" stop-color="#C382FB"/>
<stop offset="0.97" stop-color="#CF8AFF"/>
</radialGradient>
<radialGradient id="paint18_radial_40_2514" cx="0" cy="0" r="1" gradientUnits="userSpaceOnUse" gradientTransform="translate(150.126 95.2299) rotate(138.374) scale(84.4713 84.5196)">
<stop offset="0.82" stop-color="#6125E5"/>
<stop offset="0.84" stop-color="#6528E5"/>
<stop offset="0.86" stop-color="#7133E8"/>
<stop offset="0.88" stop-color="#8546ED"/>
<stop offset="0.89" stop-color="#A160F4"/>
<stop offset="0.91" stop-color="#C581FC"/>
<stop offset="0.92" stop-color="#CF8AFF"/>
<stop offset="0.95" stop-color="#B77CF8"/>
<stop offset="1" stop-color="#9A6CF0"/>
</radialGradient>
<clipPath id="clip0_40_2514">
<rect width="137" height="103" fill="white"/>
</clipPath>
</defs>
</svg>
