<svg width="144" height="123" viewBox="0 0 144 123" fill="none" xmlns="http://www.w3.org/2000/svg">
<g id="_Layer_" clip-path="url(#clip0_40_2543)">
<path id="Vector" d="M143.46 55.3852C143.929 54.3026 144.08 53.1286 143.962 51.9775C143.909 50.2456 143.853 48.513 143.794 46.7803C143.796 46.8003 143.796 46.8211 143.799 46.8411C143.579 44.5799 142.313 42.4033 140.379 41.1899C140.272 41.1245 140.159 41.0684 140.055 40.9999C125.634 31.5949 108.597 21.4982 93.0514 13.8166C89.8743 12.2532 86.3628 13.3034 85.0234 16.0694C74.5758 37.7431 56.2125 56.2892 33.0837 70.1551C31.3652 71.1823 30.6009 72.6703 30.8247 74.169C30.8231 74.156 30.8185 74.1437 30.817 74.1306C31.183 76.7827 31.5413 79.4332 31.8919 82.083C32.0372 83.1786 32.7084 84.2834 33.9264 85.2252C47.9731 96.0405 61.7293 107.177 75.1786 118.62C75.4523 118.854 75.7484 119.068 76.0636 119.261C78.8977 120.999 83.2373 121.075 86.2137 119.19C111.951 102.933 132.306 81.1113 143.46 55.3867V55.3852Z" fill="url(#paint0_radial_40_2543)"/>
<g id="Group">
<path id="Vector_2" d="M143.46 55.3852C143.929 54.3026 144.08 53.1286 143.962 51.9775C143.909 50.2456 143.853 48.513 143.794 46.7803C143.796 46.8003 143.797 46.8211 143.799 46.8411C143.579 44.5799 142.313 42.4033 140.379 41.1899C140.272 41.1245 140.159 41.0684 140.055 40.9999C125.52 31.5218 108.596 21.4997 93.0514 13.8166C89.8743 12.2532 86.3628 13.3034 85.0234 16.0694C74.5758 37.7431 56.2125 56.2892 33.0837 70.1551C31.3652 71.1823 30.6009 72.6703 30.8247 74.169C30.8231 74.156 30.8185 74.1437 30.817 74.1306C31.183 76.7827 31.5413 79.4332 31.8919 82.083C32.0372 83.1786 32.7084 84.2834 33.9264 85.2252C47.9731 96.0405 61.7293 107.177 75.1786 118.62C75.4523 118.854 75.7484 119.068 76.0636 119.261C78.8977 120.999 83.2373 121.075 86.2137 119.19C111.951 102.933 132.306 81.1113 143.46 55.3867V55.3852Z" fill="url(#paint1_linear_40_2543)"/>
</g>
<path id="Vector_3" d="M103.057 77.9798C103.039 77.9691 103.022 77.9591 103.005 77.9491C92.018 71.4793 81.0306 65.0087 70.0456 58.5397C68.5155 57.661 66.3834 58.085 65.2677 59.4745C64.1697 60.8394 64.4827 62.6313 65.9751 63.5284C65.9828 63.533 65.9897 63.5376 65.9974 63.5415C66.0151 63.5545 99.5277 83.037 99.5293 83.0378C101.087 83.9172 103.128 83.501 104.074 82.0945C105.009 80.7042 104.542 78.8731 103.057 77.9798Z" fill="url(#paint2_linear_40_2543)"/>
<path id="Vector_4" d="M114.152 66.7599C114.134 66.7491 114.117 66.7391 114.1 66.7291C103.113 60.2593 92.1256 53.7887 81.1405 47.3197C79.6105 46.4411 77.4783 46.865 76.3627 48.2545C75.2647 49.6194 75.5777 51.4113 77.0701 52.3084C77.0777 52.313 77.0847 52.3176 77.0924 52.3215C77.11 52.3346 110.623 71.8171 110.624 71.8178C112.182 72.6972 114.223 72.281 115.169 70.8746C116.104 69.4843 115.637 67.6531 114.152 66.7599Z" fill="url(#paint3_linear_40_2543)"/>
<path id="Vector_5" d="M122.044 54.0511C122.026 54.0403 122.009 54.0303 121.991 54.0203C111.005 47.5505 100.017 41.08 89.0324 34.611C87.5023 33.7323 85.3702 34.1562 84.2545 35.5458C83.1566 36.9107 83.4695 38.7026 84.9619 39.5997C84.9696 39.6043 84.9765 39.6089 84.9842 39.6128C85.0019 39.6258 118.515 59.1083 118.516 59.1091C120.074 59.9885 122.115 59.5723 123.061 58.1658C123.996 56.7755 123.528 54.9444 122.044 54.0511Z" fill="url(#paint4_linear_40_2543)"/>
<path id="Vector_6" d="M66.0035 80.1334C64.4742 79.1732 64.1559 77.429 65.3269 76.1256C66.5148 74.8046 68.7353 74.4653 70.3054 75.3809C76.3335 78.92 82.3585 82.46 88.3819 86.0015C89.9558 86.9125 90.3626 88.7475 89.2838 90.0808C88.2058 91.4142 86.0237 91.7404 84.4252 90.8233C84.426 90.8217 66.0243 80.1457 66.0035 80.1326V80.1334Z" fill="url(#paint5_linear_40_2543)"/>
<g id="Clip path group">
<mask id="mask0_40_2543" style="mask-type:luminance" maskUnits="userSpaceOnUse" x="0" y="0" width="83" height="123">
<g id="clippath">
<path id="Vector_7" d="M5.29061 113.663L54.364 122.421C58.659 123.187 62.7602 120.319 63.5183 116.02L81.8939 11.7732C82.7182 7.09606 79.259 2.75517 74.5188 2.51743L24.5512 0.0161416C21.4295 -0.140044 18.68 2.05349 18.1372 5.13335L0.2744 106.48C-0.31918 109.849 1.92443 113.063 5.29061 113.663V113.663Z" fill="white"/>
</g>
</mask>
<g mask="url(#mask0_40_2543)">
<g id="Group_2">
<path id="Vector_8" d="M4.19105 113.462L57.1265 122.922C59.8845 123.409 62.5157 121.566 63.0024 118.805L82.429 8.61339C82.9611 5.59431 80.7175 2.79604 77.6573 2.66139L23.5224 0.00469008C20.9797 -0.106871 18.7476 1.68504 18.3055 4.19325L0.0775135 107.583C-0.409191 110.343 1.43229 112.976 4.19105 113.463V113.462Z" fill="url(#paint6_linear_40_2543)"/>
<g id="Group_3">
<path id="Vector_9" d="M4.19105 113.462L56.5714 122.824C59.6362 123.365 62.5587 121.317 63.1 118.251L82.3168 9.24583C82.908 5.89129 80.4153 2.78219 77.0145 2.63292L23.5224 0.00469008C20.9797 -0.106871 18.7476 1.68504 18.3055 4.19325L0.0775135 107.583C-0.409191 110.343 1.43229 112.976 4.19105 113.463V113.462Z" fill="url(#paint7_linear_40_2543)"/>
</g>
<g id="Group_4">
<path id="Vector_10" d="M4.19105 113.462L56.5714 122.824C59.6362 123.365 62.5587 121.317 63.1 118.251L82.3168 9.24583C82.908 5.89129 80.4153 2.78219 77.0145 2.63292L23.5224 0.00469008C20.9797 -0.106871 18.7476 1.68504 18.3055 4.19325L0.0775135 107.583C-0.409191 110.343 1.43229 112.976 4.19105 113.463V113.462Z" fill="url(#paint8_linear_40_2543)"/>
</g>
<path id="Vector_11" d="M9.27948 108.006L52.2264 115.222C54.5553 115.612 56.7582 114.038 57.1434 111.706L73.3354 13.5976C73.7467 11.1063 71.9191 8.80352 69.4002 8.64041L27.5174 5.93139C25.2339 5.78367 23.2017 7.37169 22.7919 9.62446L5.7872 103.03C5.36047 105.373 6.93207 107.612 9.27871 108.006H9.27948Z" fill="url(#paint9_linear_40_2543)"/>
</g>
</g>
</g>
<path id="Vector_12" d="M44.82 27.7727C43.2707 27.5227 41.6253 27.5396 39.9253 27.8673C31.1999 29.55 24.9251 38.0894 27.3217 46.9236C31.5905 62.6599 55.8204 57.0257 56.0942 41.9002C56.2249 34.6834 51.3909 28.8322 44.82 27.7727Z" fill="url(#paint10_radial_40_2543)"/>
<g id="Group_5">
<path id="Vector_13" d="M49.7672 52.1776C56.1405 46.9967 57.5735 38.1978 52.9678 32.5248C48.3622 26.8518 39.462 26.4529 33.0887 31.6339C26.7154 36.8149 25.2824 45.6138 29.8881 51.2868C34.4938 56.9598 43.394 57.3586 49.7672 52.1776Z" fill="url(#paint11_radial_40_2543)"/>
</g>
<path id="Vector_14" opacity="0.18" d="M31.9665 37.3622C31.6913 37.7785 31.3537 38.1247 30.9447 38.0008C30.6364 37.9077 30.4918 37.5492 30.4703 37.2283C30.418 36.4528 30.8332 35.7234 31.3084 35.1087C32.2933 33.8338 33.6104 32.6897 35.0867 32.0273C35.3204 31.9226 35.5734 31.8365 35.8286 31.8588C36.0839 31.8819 36.3415 32.0388 36.4145 32.285C36.6321 33.0198 34.9921 33.9361 34.52 34.3139C33.7703 34.9132 33.1029 35.6165 32.5409 36.3951C32.391 36.6028 32.2018 37.0075 31.9673 37.3622H31.9665Z" fill="white"/>
<path id="Vector_15" d="M47.8385 37.2483C47.4041 37.1822 46.9504 37.2783 46.5683 37.5553C43.9356 39.4634 41.2315 41.3784 38.4573 43.3019C37.5285 41.877 36.6028 40.4482 35.6778 39.0133C35.3795 38.5509 34.9205 38.2693 34.4284 38.1939C33.9878 38.127 33.5211 38.2247 33.119 38.5063C32.2693 39.1033 32.0225 40.3005 32.5792 41.1761C33.8256 43.138 35.0758 45.0907 36.3275 47.0358C36.5959 47.4535 37.0203 47.7397 37.5101 47.8321C37.5308 47.8359 37.5524 47.8398 37.5731 47.8428C38.0421 47.9144 38.5304 47.8021 38.9317 47.5282C42.291 45.2454 45.548 42.9734 48.7035 40.7121C49.5285 40.122 49.7054 38.9387 49.1102 38.0662C48.795 37.6038 48.3291 37.3222 47.8385 37.2476V37.2483Z" fill="url(#paint12_linear_40_2543)"/>
<g id="Group_6">
<path id="Vector_16" d="M67.3875 17.5813C67.0784 19.1147 65.5852 20.1072 64.0528 19.7979C62.5204 19.4886 61.5286 17.9945 61.8377 16.4611C62.1468 14.9277 63.6399 13.9352 65.1723 14.2444C66.7047 14.5537 67.6966 16.0479 67.3875 17.5813Z" fill="#BED8D9"/>
<path id="Vector_17" d="M66.0767 18.4596C67.2343 17.4079 67.3206 15.6163 66.2695 14.458C65.2185 13.2997 63.428 13.2133 62.2705 14.2651C61.1129 15.3168 61.0266 17.1084 62.0777 18.2667C63.1288 19.425 64.9192 19.5114 66.0767 18.4596Z" fill="url(#paint13_linear_40_2543)"/>
</g>
<g id="Group_7">
<path id="Vector_18" d="M25.9569 108.829L36.5029 110.477C37.9669 110.705 39.3394 109.703 39.5677 108.238C39.7961 106.773 38.7942 105.399 37.3303 105.171L26.7842 103.524C25.3203 103.295 23.9478 104.298 23.7194 105.763C23.4911 107.228 24.4929 108.601 25.9569 108.829Z" fill="#BED8D9"/>
<path id="Vector_19" d="M25.67 108.165L36.2161 109.813C37.68 110.041 39.0525 109.039 39.2809 107.574C39.5092 106.109 38.5074 104.735 37.0434 104.507L26.4974 102.86C25.0334 102.631 23.6609 103.634 23.4326 105.099C23.2042 106.563 24.2061 107.937 25.67 108.165Z" fill="url(#paint14_linear_40_2543)"/>
</g>
<path id="Vector_20" d="M21.848 83.7974L47.0644 87.7174C48.5283 87.9459 49.9008 86.9434 50.1291 85.4785C50.3575 84.0136 49.3556 82.6402 47.8917 82.4117L22.6761 78.4917C21.2121 78.2632 19.8397 79.2657 19.6113 80.7306C19.3829 82.1955 20.3848 83.5689 21.8487 83.7974H21.848Z" fill="url(#paint15_linear_40_2543)"/>
<path id="Vector_21" d="M24.2829 71.5093L49.4985 75.4293C50.9624 75.6579 52.3349 74.6553 52.5633 73.1904C52.7916 71.7255 51.7898 70.3521 50.3258 70.1236L25.1094 66.2036C23.6455 65.9751 22.273 66.9776 22.0446 68.4425C21.8163 69.9074 22.8181 71.2808 24.2821 71.5093H24.2829Z" fill="url(#paint16_linear_40_2543)"/>
</g>
<defs>
<radialGradient id="paint0_radial_40_2543" cx="0" cy="0" r="1" gradientUnits="userSpaceOnUse" gradientTransform="translate(18.7879 2.53322) rotate(31.7668) scale(148.466 148.51)">
<stop offset="0.43" stop-color="#F3F8FB"/>
<stop offset="0.65" stop-color="#DFEEF0"/>
<stop offset="0.79" stop-color="#ECFCFF"/>
<stop offset="0.81" stop-color="#E6F7FA"/>
<stop offset="0.85" stop-color="#D5EAEC"/>
<stop offset="0.88" stop-color="#BED8D9"/>
<stop offset="0.94" stop-color="#BED8D9"/>
</radialGradient>
<linearGradient id="paint1_linear_40_2543" x1="127.782" y1="18.641" x2="49.9636" y2="112.507" gradientUnits="userSpaceOnUse">
<stop offset="0.06" stop-color="#F3F8FB"/>
<stop offset="0.14" stop-color="#E3ECF1"/>
<stop offset="0.57" stop-color="#E3ECF1"/>
<stop offset="0.85" stop-color="#BED8D9"/>
<stop offset="0.91" stop-color="#BED8D9"/>
</linearGradient>
<linearGradient id="paint2_linear_40_2543" x1="89.401" y1="62.5846" x2="80.8625" y2="77.3241" gradientUnits="userSpaceOnUse">
<stop offset="0.23" stop-color="#A6BBBE"/>
<stop offset="0.25" stop-color="#A8BEC1"/>
<stop offset="0.38" stop-color="#B8D1D2"/>
<stop offset="0.47" stop-color="#BED8D9"/>
<stop offset="0.55" stop-color="#BAD3D4"/>
<stop offset="0.63" stop-color="#AFC5C8"/>
<stop offset="0.68" stop-color="#A6BBBE"/>
<stop offset="0.74" stop-color="#9BAFB2"/>
<stop offset="0.85" stop-color="#809093"/>
<stop offset="0.9" stop-color="#717F82"/>
</linearGradient>
<linearGradient id="paint3_linear_40_2543" x1="100.497" y1="51.3636" x2="91.958" y2="66.1027" gradientUnits="userSpaceOnUse">
<stop offset="0.23" stop-color="#A6BBBE"/>
<stop offset="0.25" stop-color="#A8BEC1"/>
<stop offset="0.38" stop-color="#B8D1D2"/>
<stop offset="0.47" stop-color="#BED8D9"/>
<stop offset="0.55" stop-color="#BAD3D4"/>
<stop offset="0.63" stop-color="#AFC5C8"/>
<stop offset="0.68" stop-color="#A6BBBE"/>
<stop offset="0.74" stop-color="#9BAFB2"/>
<stop offset="0.85" stop-color="#809093"/>
<stop offset="0.9" stop-color="#717F82"/>
</linearGradient>
<linearGradient id="paint4_linear_40_2543" x1="108.387" y1="38.6536" x2="99.849" y2="53.393" gradientUnits="userSpaceOnUse">
<stop offset="0.23" stop-color="#A6BBBE"/>
<stop offset="0.25" stop-color="#A8BEC1"/>
<stop offset="0.38" stop-color="#B8D1D2"/>
<stop offset="0.47" stop-color="#BED8D9"/>
<stop offset="0.55" stop-color="#BAD3D4"/>
<stop offset="0.63" stop-color="#AFC5C8"/>
<stop offset="0.68" stop-color="#A6BBBE"/>
<stop offset="0.74" stop-color="#9BAFB2"/>
<stop offset="0.85" stop-color="#809093"/>
<stop offset="0.9" stop-color="#717F82"/>
</linearGradient>
<linearGradient id="paint5_linear_40_2543" x1="81.7033" y1="75.9717" x2="73.6713" y2="88.9592" gradientUnits="userSpaceOnUse">
<stop offset="0.23" stop-color="#A6BBBE"/>
<stop offset="0.25" stop-color="#A8BEC1"/>
<stop offset="0.38" stop-color="#B8D1D2"/>
<stop offset="0.47" stop-color="#BED8D9"/>
<stop offset="0.55" stop-color="#BAD3D4"/>
<stop offset="0.63" stop-color="#AFC5C8"/>
<stop offset="0.68" stop-color="#A6BBBE"/>
<stop offset="0.74" stop-color="#9BAFB2"/>
<stop offset="0.85" stop-color="#809093"/>
<stop offset="0.9" stop-color="#717F82"/>
</linearGradient>
<linearGradient id="paint6_linear_40_2543" x1="72.7186" y1="63.7056" x2="9.76818" y2="52.613" gradientUnits="userSpaceOnUse">
<stop stop-color="#9D6FE9"/>
<stop offset="0.03" stop-color="#A477DB"/>
<stop offset="0.05" stop-color="#A77AD7"/>
<stop offset="0.08" stop-color="#956BCA"/>
<stop offset="0.13" stop-color="#815ABA"/>
<stop offset="0.18" stop-color="#734EB0"/>
<stop offset="0.25" stop-color="#6B47A9"/>
<stop offset="0.36" stop-color="#6945A8"/>
<stop offset="0.56" stop-color="#6A46AA"/>
<stop offset="0.68" stop-color="#704AB2"/>
<stop offset="0.77" stop-color="#7952C0"/>
<stop offset="0.85" stop-color="#875DD4"/>
<stop offset="0.93" stop-color="#9A6CF0"/>
<stop offset="0.95" stop-color="#9F6FF1"/>
<stop offset="0.97" stop-color="#B078F6"/>
<stop offset="1" stop-color="#CF8AFF"/>
</linearGradient>
<linearGradient id="paint7_linear_40_2543" x1="43.7159" y1="0.888444" x2="38.232" y2="126.197" gradientUnits="userSpaceOnUse">
<stop stop-color="#C59EE8"/>
<stop offset="0.01" stop-color="#B68DDF"/>
<stop offset="0.02" stop-color="#AC81DA"/>
<stop offset="0.03" stop-color="#A67AD6"/>
<stop offset="0.05" stop-color="#A579D6"/>
<stop offset="0.14" stop-color="#8158CB"/>
<stop offset="0.61" stop-color="#8259CC"/>
<stop offset="0.78" stop-color="#865CD3"/>
<stop offset="0.9" stop-color="#8E63DF"/>
<stop offset="1" stop-color="#9A6CF0"/>
</linearGradient>
<linearGradient id="paint8_linear_40_2543" x1="30.8147" y1="118.353" x2="51.3429" y2="0.0137561" gradientUnits="userSpaceOnUse">
<stop stop-color="#432594"/>
<stop offset="0.03" stop-color="#7257B7"/>
<stop offset="0.08" stop-color="#B099E5"/>
<stop offset="0.1" stop-color="#C9B3F8"/>
</linearGradient>
<linearGradient id="paint9_linear_40_2543" x1="30.315" y1="114.003" x2="48.7672" y2="7.2315" gradientUnits="userSpaceOnUse">
<stop offset="0.01" stop-color="#BED8D9"/>
<stop offset="0.06" stop-color="#DAE9EC"/>
<stop offset="0.97" stop-color="#F3F8FB"/>
<stop offset="1" stop-color="white"/>
</linearGradient>
<radialGradient id="paint10_radial_40_2543" cx="0" cy="0" r="1" gradientUnits="userSpaceOnUse" gradientTransform="translate(39.3692 40.4348) rotate(5.91384) scale(17.6345 17.6458)">
<stop stop-color="#75D982"/>
<stop offset="0.13" stop-color="#70D179"/>
<stop offset="0.47" stop-color="#67BF67"/>
<stop offset="0.74" stop-color="#51AA59"/>
<stop offset="0.84" stop-color="#48A153"/>
<stop offset="0.93" stop-color="#49A254"/>
<stop offset="0.96" stop-color="#50A958"/>
<stop offset="0.99" stop-color="#5CB460"/>
<stop offset="1" stop-color="#67BF67"/>
</radialGradient>
<radialGradient id="paint11_radial_40_2543" cx="0" cy="0" r="1" gradientUnits="userSpaceOnUse" gradientTransform="translate(39.6318 41.2821) rotate(22.2231) scale(13.5409 14.4504)">
<stop offset="0.2" stop-color="#67BF67"/>
<stop offset="1" stop-color="#67BF67"/>
</radialGradient>
<linearGradient id="paint12_linear_40_2543" x1="38.0109" y1="36.1535" x2="43.8883" y2="44.1303" gradientUnits="userSpaceOnUse">
<stop stop-color="#FFFDA6"/>
<stop offset="0.47" stop-color="#F5E37B"/>
<stop offset="0.67" stop-color="#F5E278"/>
<stop offset="0.79" stop-color="#F5DF6F"/>
<stop offset="0.89" stop-color="#F5DA61"/>
<stop offset="0.98" stop-color="#F5D44C"/>
<stop offset="1" stop-color="#F6D246"/>
</linearGradient>
<linearGradient id="paint13_linear_40_2543" x1="61.66" y1="14.2228" x2="66.8665" y2="18.6414" gradientUnits="userSpaceOnUse">
<stop stop-color="#CF8AFF"/>
<stop offset="0.08" stop-color="#BE80FA"/>
<stop offset="0.22" stop-color="#AA75F4"/>
<stop offset="0.36" stop-color="#9E6EF1"/>
<stop offset="0.49" stop-color="#9A6CF0"/>
<stop offset="0.6" stop-color="#9465EE"/>
<stop offset="0.75" stop-color="#8552EC"/>
<stop offset="0.93" stop-color="#6C33E7"/>
<stop offset="1" stop-color="#6125E5"/>
</linearGradient>
<linearGradient id="paint14_linear_40_2543" x1="32.1618" y1="102.408" x2="30.3771" y2="111.051" gradientUnits="userSpaceOnUse">
<stop offset="0.08" stop-color="#CF8AFF"/>
<stop offset="0.15" stop-color="#BE80FA"/>
<stop offset="0.27" stop-color="#AA75F4"/>
<stop offset="0.38" stop-color="#9E6EF1"/>
<stop offset="0.49" stop-color="#9A6CF0"/>
<stop offset="0.58" stop-color="#9465EE"/>
<stop offset="0.69" stop-color="#8552EC"/>
<stop offset="0.83" stop-color="#6C33E7"/>
<stop offset="0.89" stop-color="#6125E5"/>
</linearGradient>
<linearGradient id="paint15_linear_40_2543" x1="36.2194" y1="74.6384" x2="33.7772" y2="89.8865" gradientUnits="userSpaceOnUse">
<stop offset="0.23" stop-color="#A6BBBE"/>
<stop offset="0.25" stop-color="#A8BEC1"/>
<stop offset="0.38" stop-color="#B8D1D2"/>
<stop offset="0.47" stop-color="#BED8D9"/>
<stop offset="0.55" stop-color="#BAD3D4"/>
<stop offset="0.63" stop-color="#AFC5C8"/>
<stop offset="0.68" stop-color="#A6BBBE"/>
<stop offset="0.74" stop-color="#9BAFB2"/>
<stop offset="0.85" stop-color="#809093"/>
<stop offset="0.9" stop-color="#717F82"/>
</linearGradient>
<linearGradient id="paint16_linear_40_2543" x1="38.6549" y1="62.3509" x2="36.2135" y2="77.5988" gradientUnits="userSpaceOnUse">
<stop offset="0.23" stop-color="#A6BBBE"/>
<stop offset="0.25" stop-color="#A8BEC1"/>
<stop offset="0.38" stop-color="#B8D1D2"/>
<stop offset="0.47" stop-color="#BED8D9"/>
<stop offset="0.55" stop-color="#BAD3D4"/>
<stop offset="0.63" stop-color="#AFC5C8"/>
<stop offset="0.68" stop-color="#A6BBBE"/>
<stop offset="0.74" stop-color="#9BAFB2"/>
<stop offset="0.85" stop-color="#809093"/>
<stop offset="0.9" stop-color="#717F82"/>
</linearGradient>
<clipPath id="clip0_40_2543">
<rect width="144" height="123" fill="white"/>
</clipPath>
</defs>
</svg>
