<svg width="92" height="145" viewBox="0 0 92 145" fill="none" xmlns="http://www.w3.org/2000/svg">
<g id="Paper Plane">
<g id="Group">
<path id="Vector" d="M49.7119 20.8732L91.9231 0.203857L61.4785 29.1171L49.7119 20.8732Z" fill="#27DEBF"/>
<path id="Vector_2" d="M91.9233 0.203857L45.3799 15.4996L33.6133 7.24648L91.9233 0.203857Z" fill="#27DEBF"/>
<path id="Vector_3" d="M45.3799 15.4996L47.2247 27.3014L49.7121 20.8732L91.9233 0.203857L45.3799 15.4996Z" fill="#27DEBF"/>
<path id="Vector_4" opacity="0.25" d="M45.3799 15.4996L47.2247 27.3014L49.7121 20.8732L91.9233 0.203857L45.3799 15.4996Z" fill="black"/>
<path id="Vector_5" d="M47.2246 27.3015L53.6403 23.6243L49.7119 20.8732L47.2246 27.3015Z" fill="#27DEBF"/>
<path id="Vector_6" opacity="0.25" d="M49.7119 20.8732L53.6402 23.6243L52.6123 24.2111L49.7119 20.8732Z" fill="black"/>
</g>
<path id="Vector_7" d="M52.888 144.642C52.787 144.642 52.6769 144.624 52.5759 144.587C51.089 144.055 49.6297 143.505 48.2529 142.964C47.7848 142.78 47.5554 142.248 47.7389 141.772C47.9225 141.304 48.464 141.075 48.9321 141.258C50.2905 141.799 51.7223 142.34 53.2 142.863C53.6773 143.037 53.9251 143.56 53.7507 144.037C53.6131 144.413 53.2643 144.642 52.888 144.642ZM44.3613 141.258C44.242 141.258 44.1135 141.231 43.9942 141.176C42.5624 140.552 41.1581 139.892 39.7997 139.231C39.3408 139.011 39.1572 138.461 39.3775 138.003C39.5977 137.544 40.1484 137.361 40.6074 137.581C41.9382 138.232 43.3242 138.874 44.7376 139.497C45.2057 139.699 45.4168 140.24 45.2057 140.708C45.0589 141.056 44.7193 141.258 44.3613 141.258ZM36.1283 137.223C35.9815 137.223 35.8254 137.187 35.6878 137.113C34.3202 136.37 32.971 135.582 31.686 134.784C31.2546 134.518 31.117 133.95 31.3831 133.519C31.6493 133.088 32.2184 132.95 32.6497 133.216C33.9164 133.995 35.238 134.766 36.5781 135.49C37.0186 135.738 37.1838 136.288 36.9452 136.737C36.78 137.04 36.4679 137.214 36.1375 137.214L36.1283 137.223ZM28.3267 132.409C28.1432 132.409 27.9596 132.354 27.8036 132.244C26.5186 131.354 25.2704 130.419 24.0772 129.475C23.6825 129.163 23.6183 128.585 23.9303 128.191C24.2424 127.796 24.8206 127.732 25.2153 128.044C26.3718 128.961 27.5925 129.869 28.8499 130.74C29.2629 131.033 29.3639 131.602 29.0794 132.015C28.905 132.271 28.6204 132.409 28.3267 132.409ZM21.1585 126.705C20.9382 126.705 20.7179 126.623 20.5435 126.467C19.3962 125.412 18.2765 124.321 17.2301 123.211C16.8813 122.845 16.8997 122.258 17.2668 121.918C17.634 121.57 18.2122 121.588 18.561 121.955C19.5798 123.037 20.6628 124.101 21.7826 125.119C22.1589 125.458 22.1864 126.045 21.8377 126.412C21.6541 126.613 21.4063 126.714 21.1585 126.714V126.705ZM14.8805 120.048C14.6143 120.048 14.3481 119.928 14.1646 119.708C13.1917 118.507 12.2646 117.242 11.3927 115.967C11.1082 115.545 11.2183 114.977 11.6405 114.692C12.0627 114.408 12.6318 114.518 12.9163 114.94C13.7607 116.178 14.6602 117.398 15.5964 118.562C15.9176 118.956 15.8534 119.534 15.4587 119.855C15.2935 119.993 15.0824 120.057 14.8805 120.057V120.048ZM9.7406 112.473C9.41936 112.473 9.10729 112.308 8.94208 112.006C8.18946 110.667 7.47355 109.273 6.82189 107.861C6.61079 107.402 6.81271 106.861 7.27163 106.641C7.73054 106.43 8.27206 106.632 8.49234 107.09C9.12565 108.457 9.81403 109.805 10.5483 111.098C10.7961 111.538 10.6401 112.097 10.1995 112.345C10.0527 112.427 9.90581 112.464 9.74978 112.464L9.7406 112.473ZM5.90405 104.165C5.52774 104.165 5.17896 103.936 5.04129 103.569C4.50894 102.139 4.02249 100.653 3.59111 99.1491C3.45343 98.663 3.72879 98.1495 4.21524 98.012C4.70169 97.8744 5.2065 98.1495 5.35335 98.6355C5.77556 100.094 6.25283 101.542 6.75764 102.927C6.93203 103.404 6.69339 103.927 6.21612 104.101C6.11515 104.138 6.00501 104.156 5.89487 104.156L5.90405 104.165ZM3.35247 95.371C2.93027 95.371 2.55396 95.0775 2.453 94.6466C2.13175 93.1702 1.84722 91.6296 1.59941 90.089C1.52598 89.5847 1.86558 89.117 2.36121 89.0436C2.86602 88.9703 3.33412 89.3096 3.40754 89.8047C3.64618 91.3178 3.92153 92.8125 4.24277 94.2614C4.35291 94.7566 4.04085 95.2426 3.54522 95.3527C3.48097 95.371 3.41672 95.371 3.35247 95.371ZM1.92065 86.3201C1.45256 86.3201 1.05789 85.9717 1.012 85.4948C0.855964 84.0184 0.727467 82.4595 0.635684 80.8823C0.608149 80.3779 0.993639 79.9469 1.49845 79.9102C2.00326 79.9011 2.43464 80.2679 2.47135 80.7722C2.56314 82.322 2.68245 83.8442 2.83849 85.3022C2.89356 85.8066 2.52642 86.2559 2.02161 86.3109C1.9849 86.3109 1.95737 86.3109 1.92065 86.3109V86.3201ZM1.44338 77.1684H1.42502C0.920213 77.1684 0.516366 76.7374 0.525544 76.233C0.553079 74.6924 0.644862 73.1244 0.800894 71.5838C0.855964 71.0794 1.29652 70.7218 1.81051 70.7677C2.31532 70.8227 2.68245 71.272 2.62738 71.7764C2.47135 73.2711 2.38875 74.7841 2.36121 76.2789C2.36121 76.7832 1.93901 77.1775 1.44338 77.1775V77.1684ZM2.36121 68.0533C2.30614 68.0533 2.25107 68.0533 2.196 68.035C1.70037 67.9433 1.36995 67.4664 1.46173 66.9712C1.73709 65.449 2.08586 63.9268 2.48971 62.4229C2.61821 61.9369 3.13219 61.6434 3.60947 61.7718C4.09592 61.9002 4.38963 62.4045 4.26113 62.8905C3.87564 64.3394 3.53604 65.825 3.26987 67.2922C3.18726 67.7324 2.80177 68.0441 2.37039 68.0441L2.36121 68.0533ZM4.72922 59.2042C4.62826 59.2042 4.5273 59.1858 4.42634 59.1492C3.94907 58.9841 3.70125 58.4614 3.86646 57.9754C4.38045 56.5173 4.95868 55.0685 5.59199 53.6471C5.79391 53.1886 6.33543 52.9777 6.80353 53.1794C7.26245 53.3812 7.47355 53.9314 7.27163 54.3899C6.65668 55.7654 6.0968 57.1684 5.60117 58.5806C5.47267 58.9566 5.11471 59.195 4.7384 59.195L4.72922 59.2042ZM8.46481 50.8319C8.31796 50.8319 8.16192 50.7952 8.02425 50.7219C7.57451 50.4834 7.41848 49.9241 7.65712 49.4747C8.40056 48.1176 9.19908 46.7696 10.0435 45.4766C10.3188 45.0547 10.8879 44.9355 11.3101 45.2106C11.7323 45.4857 11.8516 46.0543 11.5763 46.4761C10.7594 47.7324 9.97924 49.0346 9.26332 50.355C9.09811 50.6577 8.77687 50.8319 8.45563 50.8319H8.46481ZM13.4762 43.1565C13.2834 43.1565 13.0815 43.0923 12.9163 42.964C12.5125 42.6522 12.439 42.0745 12.7511 41.6801C13.6965 40.4514 14.7061 39.2501 15.7524 38.113C16.092 37.737 16.6702 37.7095 17.0466 38.0488C17.4229 38.3881 17.4504 38.9658 17.1108 39.3418C16.1012 40.4514 15.1283 41.6068 14.2105 42.7989C14.0269 43.0282 13.7607 43.1565 13.4854 43.1565H13.4762ZM19.6532 36.389C19.4054 36.389 19.1668 36.2881 18.9832 36.0956C18.6344 35.7288 18.6619 35.1419 19.0291 34.8026C20.1672 33.748 21.3512 32.721 22.5627 31.7673C22.9574 31.4555 23.5356 31.5197 23.8477 31.914C24.1598 32.3083 24.0955 32.886 23.7009 33.1978C22.526 34.124 21.3787 35.1144 20.2773 36.1323C20.1029 36.2973 19.8735 36.3798 19.6532 36.3798V36.389ZM26.849 30.7127C26.5553 30.7127 26.2616 30.566 26.0872 30.3001C25.8027 29.8783 25.922 29.3097 26.3442 29.0254C27.6292 28.1726 28.9692 27.3565 30.3276 26.6045C30.7682 26.3569 31.3281 26.522 31.5759 26.9622C31.8237 27.4023 31.6585 27.9617 31.2179 28.2093C29.9054 28.9337 28.6113 29.7224 27.363 30.5477C27.207 30.6485 27.0326 30.7036 26.8582 30.7036L26.849 30.7127ZM34.8709 26.2744C34.5221 26.2744 34.1825 26.0727 34.0357 25.7334C33.8246 25.2749 34.0357 24.7247 34.4946 24.5229C35.8989 23.8902 37.349 23.3033 38.8084 22.7714C39.2857 22.5972 39.8088 22.8448 39.9832 23.3216C40.1576 23.7985 39.9098 24.3212 39.4325 24.4954C38.0191 25.0089 36.6148 25.5775 35.2472 26.1919C35.1279 26.2469 34.9994 26.2744 34.8709 26.2744Z" fill="#E0E0E0"/>
</g>
</svg>
