<?xml version="1.0" standalone="no"?>
<!DOCTYPE svg PUBLIC "-//W3C//DTD SVG 20010904//EN"
 "http://www.w3.org/TR/2001/REC-SVG-20010904/DTD/svg10.dtd">
<svg version="1.0" xmlns="http://www.w3.org/2000/svg"
 width="220.000000pt" height="220.000000pt" viewBox="0 0 220.000000 220.000000"
 preserveAspectRatio="xMidYMid meet">
<metadata>
Created by potrace 1.14, written by Peter Selinger 2001-2017
</metadata>
<g transform="translate(0.000000,220.000000) scale(0.100000,-0.100000)"
fill="#000000" stroke="none">
<path d="M547 2113 c-2 -1 -1 -18 1 -38 4 -30 8 -35 31 -36 14 0 182 0 374 0
191 -1 347 -4 347 -8 0 -4 -8 -15 -18 -24 -16 -14 -58 -16 -352 -16 -184 0
-345 0 -357 -1 -19 0 -23 -5 -23 -35 l0 -35 322 0 321 0 -23 -25 -23 -25 -299
0 -298 0 0 -32 c0 -29 17 -50 132 -165 l132 -133 -132 -133 c-121 -123 -132
-137 -132 -170 0 -32 3 -37 23 -37 12 -1 147 -1 300 -1 l277 0 28 -24 27 -24
-327 -1 -328 0 0 -38 0 -37 353 0 c193 1 359 -1 367 -3 8 -2 22 -13 31 -25
l16 -22 -383 1 -384 1 0 -32 0 -32 471 0 472 -1 -412 412 c-226 226 -411 415
-411 419 0 4 14 5 32 2 26 -5 109 -83 420 -393 214 -213 391 -389 393 -391 3
-2 5 18 5 46 l0 50 -340 341 c-187 187 -340 343 -340 346 0 3 12 6 28 6 23 0
75 -48 309 -282 155 -156 295 -296 312 -312 l30 -29 -2 54 -3 54 -122 122
c-67 66 -122 125 -122 130 0 4 56 64 125 133 l125 125 0 50 0 50 -153 -153
c-143 -143 -155 -153 -170 -137 -10 9 -17 18 -17 20 0 2 77 81 170 175 169
170 170 171 170 215 0 25 -2 45 -5 45 -2 0 -90 -86 -195 -191 -180 -181 -192
-191 -209 -175 -17 15 -7 27 182 216 110 110 198 201 196 201 -7 3 -940 5
-942 2z"/>
<path d="M248 843 c-17 -19 -9 -63 11 -63 6 0 18 -11 27 -25 13 -20 14 -28 4
-40 -7 -9 -8 -15 -2 -15 11 0 22 23 22 46 0 7 -13 26 -30 41 -16 14 -30 32
-30 40 0 20 28 27 47 12 14 -12 16 -12 11 1 -7 22 -42 24 -60 3z"/>
<path d="M369 858 c0 -2 -1 -38 -2 -81 -1 -56 1 -77 10 -77 9 0 11 11 8 35 -2
19 -2 35 1 35 3 0 21 -16 40 -35 18 -19 40 -35 48 -35 8 0 -6 20 -31 43 l-46
44 39 36 c21 20 34 37 27 37 -6 0 -18 -9 -27 -21 -8 -11 -23 -27 -34 -35 -19
-13 -20 -12 -17 16 2 16 0 32 -6 35 -5 4 -9 5 -10 3z"/>
<path d="M816 844 c-23 -22 -20 -30 19 -71 19 -20 35 -37 35 -39 0 -1 -7 -10
-16 -18 -12 -12 -20 -14 -36 -5 -11 6 -22 8 -25 5 -3 -3 7 -10 22 -16 22 -9
31 -7 46 6 27 24 24 43 -13 81 -28 29 -31 36 -20 53 15 24 9 26 -12 4z"/>
<path d="M860 845 c7 -9 15 -13 17 -11 7 7 -7 26 -19 26 -6 0 -6 -6 2 -15z"/>
<path d="M949 853 c-32 -8 -29 -42 7 -78 32 -32 38 -65 11 -65 -6 0 -8 -2 -5
-5 3 -3 13 -3 22 1 26 10 19 51 -14 82 -16 16 -30 34 -30 40 0 14 36 25 51 16
8 -4 9 -3 5 4 -7 12 -18 13 -47 5z"/>
<path d="M1066 838 c-31 -28 -38 -64 -20 -99 15 -30 69 -55 80 -37 4 7 2 8 -5
4 -18 -11 -71 48 -66 74 8 44 17 60 30 60 8 0 17 5 20 10 11 18 -13 10 -39
-12z"/>
<path d="M1142 844 c43 -29 51 -91 16 -124 -12 -11 -17 -20 -11 -20 19 0 53
51 53 80 0 34 -26 66 -60 75 l-25 6 27 -17z"/>
<path d="M1272 850 c-26 -11 -52 -63 -45 -91 8 -29 49 -60 79 -61 47 -1 64 2
64 10 0 4 -18 6 -40 4 -49 -5 -76 15 -83 61 -3 25 2 37 25 59 17 16 29 28 27
27 -2 0 -14 -4 -27 -9z"/>
<path d="M1330 847 c14 -6 28 -16 32 -22 5 -6 8 -3 8 8 0 9 -3 17 -7 18 -5 0
-19 2 -33 4 l-25 4 25 -12z"/>
<path d="M1421 780 c-1 -66 1 -80 15 -80 9 0 12 5 8 12 -4 7 -7 40 -6 75 1 34
-2 65 -7 67 -5 3 -9 -30 -10 -74z"/>
<path d="M1650 852 c24 -8 27 -19 25 -92 -1 -46 2 -67 9 -64 7 3 11 30 10 72
-2 69 7 86 39 76 9 -3 17 -2 17 3 0 5 -26 9 -57 9 -32 1 -51 -1 -43 -4z"/>
<path d="M1799 855 c-1 0 -2 -35 -3 -77 -2 -79 -1 -80 39 -80 29 0 35 2 35 13
0 8 -4 8 -12 2 -25 -18 -43 -9 -44 22 -1 17 3 36 8 43 7 7 7 12 1 12 -6 0 -10
12 -9 28 1 21 6 27 24 26 12 0 22 3 22 8 0 6 -47 9 -61 3z"/>
<path d="M1960 850 c20 -13 33 -13 25 0 -3 6 -14 10 -23 10 -15 0 -15 -2 -2
-10z"/>
<path d="M103 788 c-12 -35 -25 -72 -29 -83 -5 -14 -4 -17 3 -10 6 6 20 37 31
70 19 56 21 58 30 35 11 -28 6 -44 -10 -34 -7 4 -8 2 -4 -5 4 -6 12 -9 17 -5
6 3 15 -8 22 -25 7 -19 18 -31 30 -31 16 0 16 2 4 14 -8 8 -24 42 -37 75 -12
34 -25 61 -29 61 -3 0 -16 -28 -28 -62z"/>
<path d="M670 783 c-14 -37 -26 -71 -28 -75 -2 -5 0 -8 6 -8 5 0 17 27 27 60
10 33 21 57 25 53 4 -4 15 -32 26 -60 10 -29 23 -53 30 -53 7 0 0 28 -19 75
-17 41 -34 75 -37 75 -3 0 -16 -30 -30 -67z"/>
<path d="M1520 783 c-14 -37 -26 -71 -28 -75 -2 -5 0 -8 6 -8 5 0 17 27 27 61
18 57 19 59 31 37 10 -19 10 -24 -2 -26 -8 -2 -14 -7 -14 -12 0 -5 7 -7 14 -4
10 4 20 -6 30 -31 9 -21 20 -34 26 -30 7 4 8 11 2 18 -5 7 -20 40 -32 75 -13
34 -25 62 -29 62 -3 0 -17 -30 -31 -67z"/>
<path d="M1917 843 c-14 -13 -6 -34 27 -71 29 -31 33 -41 23 -57 -9 -18 -9
-19 6 -6 24 19 21 36 -14 76 -18 20 -29 41 -25 50 5 15 -5 20 -17 8z"/>
<path d="M1845 780 c3 -5 8 -10 11 -10 2 0 4 5 4 10 0 6 -5 10 -11 10 -5 0 -7
-4 -4 -10z"/>
<path d="M695 760 c3 -5 8 -10 11 -10 2 0 4 5 4 10 0 6 -5 10 -11 10 -5 0 -7
-4 -4 -10z"/>
<path d="M1900 727 c0 -9 31 -37 41 -37 5 0 9 5 9 12 0 6 -3 8 -7 5 -3 -4 -15
0 -25 10 -10 9 -18 13 -18 10z"/>
<path d="M230 712 c0 -5 7 -13 16 -16 22 -8 24 -8 24 6 0 6 -3 8 -7 5 -3 -4
-12 -2 -20 4 -8 7 -13 8 -13 1z"/>
<path d="M920 711 c0 -5 7 -11 15 -15 8 -3 15 -1 15 3 0 5 -7 11 -15 15 -8 3
-15 1 -15 -3z"/>
</g>
</svg>
